OpenSans-Bold.ufo
<glyph name="exclam" format="2">
  <advance width="586.0"/>
  <unicode hex="0021"/>
  <note>
exclam
</note>
  <outline>
    <contour>
      <point x="166.0" y="474.0" type="line"/>
      <point x="415.0" y="474.0" type="line"/>
      <point x="459.0" y="1462.0" type="line"/>
      <point x="121.0" y="1462.0" type="line"/>
    </contour>
    <contour>
      <point x="289.0" y="-23.0" type="curve" smooth="yes"/>
      <point x="397.0" y="-23.0"/>
      <point x="459.0" y="36.0"/>
      <point x="459.0" y="140.0" type="curve" smooth="yes"/>
      <point x="459.0" y="244.0"/>
      <point x="401.0" y="303.0"/>
      <point x="289.0" y="303.0" type="curve" smooth="yes"/>
      <point x="177.0" y="303.0"/>
      <point x="117.0" y="244.0"/>
      <point x="117.0" y="140.0" type="curve" smooth="yes"/>
      <point x="117.0" y="36.0"/>
      <point x="181.0" y="-23.0"/>
    </contour>
  </outline>
</glyph>
<glyph name="numbersign" format="2">
  <advance width="1323.0"/>
  <unicode hex="0023"/>
  <note>
numbersign
</note>
  <outline>
    <contour>
      <point x="212.0" y="0.0" type="line"/>
      <point x="425.0" y="0.0" type="line"/>
      <point x="500.0" y="409.0" type="line"/>
      <point x="726.0" y="409.0" type="line"/>
      <point x="649.0" y="0.0" type="line"/>
      <point x="863.0" y="0.0" type="line"/>
      <point x="941.0" y="409.0" type="line"/>
      <point x="1240.0" y="409.0" type="line"/>
      <point x="1240.0" y="610.0" type="line"/>
      <point x="979.0" y="610.0" type="line"/>
      <point x="1022.0" y="848.0" type="line"/>
      <point x="1307.0" y="848.0" type="line"/>
      <point x="1307.0" y="1053.0" type="line"/>
      <point x="1061.0" y="1053.0" type="line"/>
      <point x="1138.0" y="1462.0" type="line"/>
      <point x="925.0" y="1462.0" type="line"/>
      <point x="848.0" y="1053.0" type="line"/>
      <point x="623.0" y="1053.0" type="line"/>
      <point x="701.0" y="1462.0" type="line"/>
      <point x="486.0" y="1462.0" type="line"/>
      <point x="410.0" y="1053.0" type="line"/>
      <point x="116.0" y="1053.0" type="line"/>
      <point x="116.0" y="848.0" type="line"/>
      <point x="371.0" y="848.0" type="line"/>
      <point x="327.0" y="610.0" type="line"/>
      <point x="45.0" y="610.0" type="line"/>
      <point x="45.0" y="409.0" type="line"/>
      <point x="288.0" y="409.0" type="line"/>
    </contour>
    <contour>
      <point x="540.0" y="610.0" type="line"/>
      <point x="584.0" y="848.0" type="line"/>
      <point x="809.0" y="848.0" type="line"/>
      <point x="764.0" y="610.0" type="line"/>
    </contour>
  </outline>
</glyph>
<glyph name="ampersand" format="2">
	<unicode hex="0026"/>
	<advance width="1536"/>
	<outline>
		<contour>
			<point x="588" y="-20" type="curve" smooth="yes"/>
			<point x="787" y="-20"/>
			<point x="897" y="17"/>
			<point x="1051" y="131" type="curve"/>
			<point x="1178" y="0" type="line"/>
			<point x="1572" y="0" type="line"/>
			<point x="1269" y="295" type="line"/>
			<point x="1373" y="424"/>
			<point x="1459" y="605"/>
			<point x="1499" y="783" type="curve"/>
			<point x="1186" y="783" type="line"/>
			<point x="1160" y="668"/>
			<point x="1119" y="576"/>
			<point x="1060" y="493" type="curve"/>
			<point x="785" y="763" type="line"/>
			<point x="986" y="883"/>
			<point x="1067" y="1002"/>
			<point x="1067" y="1147" type="curve" smooth="yes"/>
			<point x="1067" y="1355"/>
			<point x="912" y="1482"/>
			<point x="654" y="1482" type="curve" smooth="yes"/>
			<point x="388" y="1482"/>
			<point x="224" y="1352"/>
			<point x="224" y="1145" type="curve" smooth="yes"/>
			<point x="224" y="1024"/>
			<point x="269" y="928"/>
			<point x="353" y="834" type="curve"/>
			<point x="377" y="808" type="line"/>
			<point x="170" y="700"/>
			<point x="82" y="573"/>
			<point x="82" y="395" type="curve" smooth="yes"/>
			<point x="82" y="132"/>
			<point x="295" y="-20"/>
		</contour>
		<contour>
			<point x="616" y="225" type="curve" smooth="yes"/>
			<point x="480" y="225"/>
			<point x="396" y="300"/>
			<point x="396" y="416" type="curve" smooth="yes"/>
			<point x="396" y="517"/>
			<point x="447" y="577"/>
			<point x="547" y="638" type="curve"/>
			<point x="865" y="316" type="line"/>
			<point x="802" y="257"/>
			<point x="720" y="225"/>
		</contour>
		<contour>
			<point x="622" y="932" type="curve"/>
			<point x="536" y="1012"/>
			<point x="502" y="1070"/>
			<point x="502" y="1137" type="curve" smooth="yes"/>
			<point x="502" y="1229"/>
			<point x="565" y="1276"/>
			<point x="649" y="1276" type="curve" smooth="yes"/>
			<point x="732" y="1276"/>
			<point x="788" y="1231"/>
			<point x="788" y="1148" type="curve" smooth="yes"/>
			<point x="788" y="1066"/>
			<point x="738" y="996"/>
		</contour>
	</outline>
	<note>
		ampersand
	</note>
</glyph>
<glyph name="parenleft" format="2">
  <advance width="694.0"/>
  <unicode hex="0028"/>
  <note>
parenleft
</note>
  <outline>
    <contour>
      <point x="369.0" y="-324.0" type="curve"/>
      <point x="629.0" y="-324.0" type="line"/>
      <point x="448.0" y="-77.0"/>
      <point x="356.0" y="237.0"/>
      <point x="356.0" y="578.0" type="curve" smooth="yes"/>
      <point x="356.0" y="932.0"/>
      <point x="454.0" y="1255.0"/>
      <point x="631.0" y="1491.0" type="curve"/>
      <point x="369.0" y="1491.0" type="line"/>
      <point x="181.0" y="1267.0"/>
      <point x="82.0" y="952.0"/>
      <point x="82.0" y="576.0" type="curve" smooth="yes"/>
      <point x="82.0" y="202.0"/>
      <point x="182.0" y="-108.0"/>
    </contour>
  </outline>
</glyph>
<glyph name="parenright" format="2">
  <advance width="694.0"/>
  <unicode hex="0029"/>
  <note>
parenright
</note>
  <outline>
    <contour>
      <point x="63.0" y="-324.0" type="curve"/>
      <point x="323.0" y="-324.0" type="line"/>
      <point x="510.0" y="-108.0"/>
      <point x="610.0" y="206.0"/>
      <point x="610.0" y="576.0" type="curve" smooth="yes"/>
      <point x="610.0" y="945.0"/>
      <point x="511.0" y="1266.0"/>
      <point x="323.0" y="1491.0" type="curve"/>
      <point x="61.0" y="1491.0" type="line"/>
      <point x="241.0" y="1250.0"/>
      <point x="336.0" y="928.0"/>
      <point x="336.0" y="578.0" type="curve" smooth="yes"/>
      <point x="336.0" y="235.0"/>
      <point x="241.0" y="-83.0"/>
    </contour>
  </outline>
</glyph>
<glyph name="asterisk" format="2">
  <advance width="1116.0"/>
  <unicode hex="002A"/>
  <note>
asterisk
</note>
  <outline>
    <contour>
      <point x="409.9" y="604.7" type="line"/>
      <point x="550.0" y="915.1" type="line"/>
      <point x="707.4" y="603.3" type="line"/>
      <point x="926.6" y="721.2" type="line"/>
      <point x="707.6" y="1017.8" type="line"/>
      <point x="1045.9" y="1044.2" type="line"/>
      <point x="1013.7" y="1290.0" type="line"/>
      <point x="643.0" y="1188.1" type="line"/>
      <point x="680.7" y="1556.0" type="line"/>
      <point x="424.8" y="1556.0" type="line"/>
      <point x="463.8" y="1188.1" type="line"/>
      <point x="99.9" y="1290.0" type="line"/>
      <point x="62.7" y="1047.0" type="line"/>
      <point x="398.8" y="1017.8" type="line"/>
      <point x="182.0" y="721.2" type="line"/>
    </contour>
  </outline>
</glyph>
<glyph name="plus" format="2">
  <advance width="1169.0"/>
  <unicode hex="002B"/>
  <note>
plus
</note>
  <outline>
    <contour>
      <point x="478.0" y="234.0" type="line"/>
      <point x="691.0" y="234.0" type="line"/>
      <point x="691.0" y="616.0" type="line"/>
      <point x="1081.0" y="616.0" type="line"/>
      <point x="1081.0" y="828.0" type="line"/>
      <point x="691.0" y="828.0" type="line"/>
      <point x="691.0" y="1215.0" type="line"/>
      <point x="478.0" y="1215.0" type="line"/>
      <point x="478.0" y="828.0" type="line"/>
      <point x="88.0" y="828.0" type="line"/>
      <point x="88.0" y="616.0" type="line"/>
      <point x="478.0" y="616.0" type="line"/>
    </contour>
  </outline>
</glyph>
<glyph name="comma" format="2">
  <advance width="594.0"/>
  <unicode hex="002C"/>
  <outline>
    <contour>
      <point x="63.0" y="-279.0" type="curve"/>
      <point x="278.0" y="-279.0" type="line"/>
      <point x="335.0" y="-151.0"/>
      <point x="393.0" y="27.0"/>
      <point x="453.0" y="258.0" type="curve"/>
      <point x="440.0" y="281.0" type="line"/>
      <point x="166.0" y="281.0" type="line"/>
      <point x="148.0" y="139.0"/>
      <point x="106.0" y="-95.0"/>
    </contour>
  </outline>
</glyph>
<glyph name="period" format="2">
	<unicode hex="002E"/>
	<advance width="584"/>
	<outline>
		<contour>
			<point x="290" y="-23" type="curve" smooth="yes"/>
			<point x="396" y="-23"/>
			<point x="458" y="36"/>
			<point x="458" y="140" type="curve" smooth="yes"/>
			<point x="458" y="245"/>
			<point x="399" y="303"/>
			<point x="290" y="303" type="curve" smooth="yes"/>
			<point x="177" y="303"/>
			<point x="117" y="245"/>
			<point x="117" y="140" type="curve" smooth="yes"/>
			<point x="117" y="35"/>
			<point x="182" y="-23"/>
		</contour>
	</outline>
</glyph>
<glyph name="slash" format="2">
	<unicode hex="002F"/>
	<advance width="846"/>
	<outline>
		<contour>
			<point x="14" y="-14" type="line"/>
			<point x="287" y="-14" type="line"/>
			<point x="832" y="1477" type="line"/>
			<point x="558" y="1477" type="line"/>
		</contour>
	</outline>
	<note>
		slash
	</note>
</glyph>
<glyph name="zero" format="2">
  <advance width="1169.0"/>
  <unicode hex="0030"/>
  <outline>
    <contour>
      <point x="584.0" y="-20.0" type="curve" smooth="yes"/>
      <point x="731.0" y="-20.0"/>
      <point x="846.0" y="23.0"/>
      <point x="928.0" y="112.0" type="curve" smooth="yes"/>
      <point x="1040.0" y="231.0"/>
      <point x="1095.0" y="435.0"/>
      <point x="1095.0" y="731.0" type="curve" smooth="yes"/>
      <point x="1095.0" y="1011.0"/>
      <point x="1040.0" y="1213.0"/>
      <point x="931.0" y="1338.0" type="curve" smooth="yes"/>
      <point x="847.0" y="1434.0"/>
      <point x="731.0" y="1484.0"/>
      <point x="584.0" y="1484.0" type="curve" smooth="yes"/>
      <point x="445.0" y="1484.0"/>
      <point x="335.0" y="1445.0"/>
      <point x="254.0" y="1365.0" type="curve" smooth="yes"/>
      <point x="133.0" y="1248.0"/>
      <point x="74.0" y="1039.0"/>
      <point x="74.0" y="731.0" type="curve" smooth="yes"/>
      <point x="74.0" y="475.0"/>
      <point x="120.0" y="284.0"/>
      <point x="210.0" y="159.0" type="curve" smooth="yes"/>
      <point x="295.0" y="40.0"/>
      <point x="420.0" y="-20.0"/>
    </contour>
    <contour>
      <point x="584.0" y="227.0" type="curve" smooth="yes"/>
      <point x="517.0" y="227.0"/>
      <point x="468.0" y="262.0"/>
      <point x="435.0" y="333.0" type="curve" smooth="yes"/>
      <point x="399.0" y="409.0"/>
      <point x="381.0" y="541.0"/>
      <point x="381.0" y="731.0" type="curve" smooth="yes"/>
      <point x="381.0" y="925.0"/>
      <point x="400.0" y="1060.0"/>
      <point x="440.0" y="1136.0" type="curve" smooth="yes"/>
      <point x="471.0" y="1203.0"/>
      <point x="519.0" y="1235.0"/>
      <point x="584.0" y="1235.0" type="curve" smooth="yes"/>
      <point x="645.0" y="1235.0"/>
      <point x="691.0" y="1204.0"/>
      <point x="722.0" y="1141.0" type="curve" smooth="yes"/>
      <point x="766.0" y="1064.0"/>
      <point x="787.0" y="927.0"/>
      <point x="787.0" y="731.0" type="curve" smooth="yes"/>
      <point x="787.0" y="542.0"/>
      <point x="769.0" y="408.0"/>
      <point x="731.0" y="331.0" type="curve" smooth="yes"/>
      <point x="699.0" y="262.0"/>
      <point x="650.0" y="227.0"/>
    </contour>
  </outline>
</glyph>
<glyph name="one" format="2">
  <advance width="1169.0"/>
  <unicode hex="0031"/>
  <outline>
    <contour>
      <point x="556.0" y="0.0" type="line"/>
      <point x="866.0" y="0.0" type="line"/>
      <point x="866.0" y="1462.0" type="line"/>
      <point x="591.0" y="1462.0" type="line"/>
      <point x="121.0" y="1087.0" type="line"/>
      <point x="281.0" y="889.0" type="line"/>
      <point x="378.0" y="967.0"/>
      <point x="448.0" y="1023.0"/>
      <point x="490.0" y="1058.0" type="curve"/>
      <point x="519.0" y="1084.0"/>
      <point x="543.0" y="1108.0"/>
      <point x="564.0" y="1132.0" type="curve"/>
      <point x="559.0" y="1046.0"/>
      <point x="556.0" y="956.0"/>
      <point x="556.0" y="861.0" type="curve" smooth="yes"/>
    </contour>
  </outline>
</glyph>
<glyph name="three" format="2">
  <advance width="1169.0"/>
  <unicode hex="0033"/>
  <outline>
    <contour>
      <point x="500.0" y="-20.0" type="curve" smooth="yes"/>
      <point x="873.0" y="-20.0"/>
      <point x="1089.0" y="143.0"/>
      <point x="1089.0" y="416.0" type="curve" smooth="yes"/>
      <point x="1089.0" y="617.0"/>
      <point x="966.0" y="734.0"/>
      <point x="725.0" y="764.0" type="curve"/>
      <point x="725.0" y="770.0" type="line"/>
      <point x="929.0" y="822.0"/>
      <point x="1046.0" y="956.0"/>
      <point x="1046.0" y="1137.0" type="curve" smooth="yes"/>
      <point x="1046.0" y="1354.0"/>
      <point x="872.0" y="1483.0"/>
      <point x="580.0" y="1483.0" type="curve" smooth="yes"/>
      <point x="384.0" y="1483.0"/>
      <point x="227.0" y="1437.0"/>
      <point x="84.0" y="1333.0" type="curve"/>
      <point x="214.0" y="1128.0" type="line"/>
      <point x="328.0" y="1202.0"/>
      <point x="428.0" y="1235.0"/>
      <point x="537.0" y="1235.0" type="curve" smooth="yes"/>
      <point x="663.0" y="1235.0"/>
      <point x="746.0" y="1177.0"/>
      <point x="746.0" y="1074.0" type="curve" smooth="yes"/>
      <point x="746.0" y="943.0"/>
      <point x="630.0" y="870.0"/>
      <point x="416.0" y="870.0" type="curve" smooth="yes"/>
      <point x="304.0" y="870.0" type="line"/>
      <point x="304.0" y="633.0" type="line"/>
      <point x="414.0" y="633.0" type="line" smooth="yes"/>
      <point x="493.0" y="633.0"/>
      <point x="558.0" y="627.0"/>
      <point x="609.0" y="613.0" type="curve" smooth="yes"/>
      <point x="717.0" y="585.0"/>
      <point x="766.0" y="529.0"/>
      <point x="766.0" y="432.0" type="curve" smooth="yes"/>
      <point x="766.0" y="294.0"/>
      <point x="669.0" y="224.0"/>
      <point x="459.0" y="224.0" type="curve" smooth="yes"/>
      <point x="344.0" y="224.0"/>
      <point x="201.0" y="256.0"/>
      <point x="78.0" y="319.0" type="curve"/>
      <point x="78.0" y="60.0" type="line"/>
      <point x="221.0" y="2.0"/>
      <point x="346.0" y="-20.0"/>
    </contour>
  </outline>
</glyph>
<glyph name="four" format="2">
  <advance width="1169.0"/>
  <unicode hex="0034"/>
  <outline>
    <contour>
      <point x="669.0" y="0.0" type="line"/>
      <point x="970.0" y="0.0" type="line"/>
      <point x="970.0" y="310.0" type="line"/>
      <point x="1159.0" y="310.0" type="line"/>
      <point x="1159.0" y="542.0" type="line"/>
      <point x="970.0" y="542.0" type="line"/>
      <point x="970.0" y="1464.0" type="line"/>
      <point x="679.0" y="1464.0" type="line"/>
      <point x="35.0" y="533.0" type="line"/>
      <point x="35.0" y="310.0" type="line"/>
      <point x="669.0" y="310.0" type="line"/>
    </contour>
    <contour>
      <point x="310.0" y="542.0" type="line"/>
      <point x="579.0" y="932.0" type="line" smooth="yes"/>
      <point x="620.0" y="994.0"/>
      <point x="650.0" y="1046.0"/>
      <point x="670.0" y="1089.0" type="curve"/>
      <point x="680.0" y="1089.0" type="line"/>
      <point x="675.0" y="1045.0"/>
      <point x="669.0" y="892.0"/>
      <point x="669.0" y="787.0" type="curve" smooth="yes"/>
      <point x="669.0" y="542.0" type="line"/>
    </contour>
  </outline>
</glyph>
<glyph name="five" format="2">
  <advance width="1169.0"/>
  <unicode hex="0035"/>
  <outline>
    <contour>
      <point x="504.0" y="-20.0" type="curve" smooth="yes"/>
      <point x="881.0" y="-20.0"/>
      <point x="1077.0" y="158.0"/>
      <point x="1077.0" y="477.0" type="curve" smooth="yes"/>
      <point x="1077.0" y="749.0"/>
      <point x="897.0" y="934.0"/>
      <point x="617.0" y="934.0" type="curve" smooth="yes"/>
      <point x="548.0" y="934.0"/>
      <point x="507.0" y="928.0"/>
      <point x="423.0" y="913.0" type="curve"/>
      <point x="449.0" y="1203.0" type="line"/>
      <point x="981.0" y="1203.0" type="line"/>
      <point x="981.0" y="1462.0" type="line"/>
      <point x="186.0" y="1462.0" type="line"/>
      <point x="130.0" y="721.0" type="line"/>
      <point x="250.0" y="659.0" type="line"/>
      <point x="329.0" y="683.0"/>
      <point x="402.0" y="695.0"/>
      <point x="472.0" y="695.0" type="curve" smooth="yes"/>
      <point x="664.0" y="695.0"/>
      <point x="767.0" y="609.0"/>
      <point x="767.0" y="466.0" type="curve" smooth="yes"/>
      <point x="767.0" y="312.0"/>
      <point x="660.0" y="224.0"/>
      <point x="480.0" y="224.0" type="curve" smooth="yes"/>
      <point x="369.0" y="224.0"/>
      <point x="224.0" y="259.0"/>
      <point x="100.0" y="318.0" type="curve"/>
      <point x="100.0" y="60.0" type="line"/>
      <point x="202.0" y="7.0"/>
      <point x="340.0" y="-20.0"/>
    </contour>
  </outline>
</glyph>
<glyph name="eight" format="2">
  <advance width="1169.0"/>
  <unicode hex="0038"/>
  <outline>
    <contour>
      <point x="581.0" y="-20.0" type="curve" smooth="yes"/>
      <point x="902.0" y="-20.0"/>
      <point x="1096.0" y="131.0"/>
      <point x="1096.0" y="385.0" type="curve" smooth="yes"/>
      <point x="1096.0" y="538.0"/>
      <point x="1013.0" y="655.0"/>
      <point x="785.0" y="772.0" type="curve"/>
      <point x="971.0" y="862.0"/>
      <point x="1051.0" y="975.0"/>
      <point x="1051.0" y="1129.0" type="curve" smooth="yes"/>
      <point x="1051.0" y="1353.0"/>
      <point x="875.0" y="1484.0"/>
      <point x="585.0" y="1484.0" type="curve" smooth="yes"/>
      <point x="301.0" y="1484.0"/>
      <point x="116.0" y="1354.0"/>
      <point x="116.0" y="1131.0" type="curve" smooth="yes"/>
      <point x="116.0" y="984.0"/>
      <point x="187.0" y="870.0"/>
      <point x="360.0" y="767.0" type="curve"/>
      <point x="156.0" y="671.0"/>
      <point x="72.0" y="553.0"/>
      <point x="72.0" y="382.0" type="curve" smooth="yes"/>
      <point x="72.0" y="122.0"/>
      <point x="252.0" y="-20.0"/>
    </contour>
    <contour>
      <point x="579.0" y="206.0" type="curve" smooth="yes"/>
      <point x="439.0" y="206.0"/>
      <point x="356.0" y="275.0"/>
      <point x="356.0" y="389.0" type="curve" smooth="yes"/>
      <point x="356.0" y="490.0"/>
      <point x="417.0" y="565.0"/>
      <point x="574.0" y="637.0" type="curve"/>
      <point x="756.0" y="548.0"/>
      <point x="811.0" y="481.0"/>
      <point x="811.0" y="386.0" type="curve" smooth="yes"/>
      <point x="811.0" y="270.0"/>
      <point x="726.0" y="206.0"/>
    </contour>
    <contour>
      <point x="584.0" y="902.0" type="curve"/>
      <point x="472.0" y="957.0"/>
      <point x="405.0" y="1016.0"/>
      <point x="405.0" y="1106.0" type="curve" smooth="yes"/>
      <point x="405.0" y="1198.0"/>
      <point x="479.0" y="1258.0"/>
      <point x="583.0" y="1258.0" type="curve" smooth="yes"/>
      <point x="687.0" y="1258.0"/>
      <point x="761.0" y="1198.0"/>
      <point x="761.0" y="1106.0" type="curve" smooth="yes"/>
      <point x="761.0" y="1023.0"/>
      <point x="715.0" y="966.0"/>
    </contour>
  </outline>
</glyph>
<glyph name="nine" format="2">
  <advance width="1169.0"/>
  <unicode hex="0039"/>
  <outline>
    <contour>
      <point x="362.0" y="-20.0" type="curve" smooth="yes"/>
      <point x="509.0" y="-20.0"/>
      <point x="633.0" y="3.0"/>
      <point x="736.0" y="49.0" type="curve" smooth="yes"/>
      <point x="984.0" y="157.0"/>
      <point x="1100.0" y="403.0"/>
      <point x="1100.0" y="808.0" type="curve" smooth="yes"/>
      <point x="1100.0" y="951.0"/>
      <point x="1078.0" y="1074.0"/>
      <point x="1035.0" y="1174.0" type="curve" smooth="yes"/>
      <point x="951.0" y="1372.0"/>
      <point x="787.0" y="1479.0"/>
      <point x="563.0" y="1479.0" type="curve" smooth="yes"/>
      <point x="259.0" y="1479.0"/>
      <point x="66.0" y="1283.0"/>
      <point x="66.0" y="968.0" type="curve" smooth="yes"/>
      <point x="66.0" y="678.0"/>
      <point x="220.0" y="506.0"/>
      <point x="478.0" y="506.0" type="curve" smooth="yes"/>
      <point x="632.0" y="506.0"/>
      <point x="731.0" y="556.0"/>
      <point x="809.0" y="684.0" type="curve"/>
      <point x="821.0" y="684.0" type="line"/>
      <point x="805.0" y="371.0"/>
      <point x="638.0" y="220.0"/>
      <point x="341.0" y="220.0" type="curve" smooth="yes"/>
      <point x="289.0" y="220.0"/>
      <point x="219.0" y="226.0"/>
      <point x="162.0" y="240.0" type="curve"/>
      <point x="162.0" y="-5.0" type="line"/>
      <point x="213.0" y="-15.0"/>
      <point x="279.0" y="-20.0"/>
    </contour>
    <contour>
      <point x="565.0" y="742.0" type="curve" smooth="yes"/>
      <point x="433.0" y="742.0"/>
      <point x="365.0" y="828.0"/>
      <point x="365.0" y="974.0" type="curve" smooth="yes"/>
      <point x="365.0" y="1067.0"/>
      <point x="389.0" y="1136.0"/>
      <point x="431.0" y="1178.0" type="curve" smooth="yes"/>
      <point x="467.0" y="1214.0"/>
      <point x="515.0" y="1232.0"/>
      <point x="571.0" y="1232.0" type="curve" smooth="yes"/>
      <point x="615.0" y="1232.0"/>
      <point x="653.0" y="1218.0"/>
      <point x="686.0" y="1193.0" type="curve" smooth="yes"/>
      <point x="752.0" y="1143.0"/>
      <point x="792.0" y="1051.0"/>
      <point x="792.0" y="949.0" type="curve" smooth="yes"/>
      <point x="792.0" y="911.0"/>
      <point x="780.0" y="875.0"/>
      <point x="758.0" y="843.0" type="curve" smooth="yes"/>
      <point x="717.0" y="782.0"/>
      <point x="644.0" y="742.0"/>
    </contour>
  </outline>
</glyph>
<glyph name="colon" format="2">
  <advance width="584.0"/>
  <unicode hex="003A"/>
  <note>
colon
</note>
  <outline>
    <contour>
      <point x="290.0" y="796.0" type="curve" smooth="yes"/>
      <point x="394.0" y="796.0"/>
      <point x="458.0" y="855.0"/>
      <point x="458.0" y="960.0" type="curve" smooth="yes"/>
      <point x="458.0" y="1065.0"/>
      <point x="399.0" y="1124.0"/>
      <point x="290.0" y="1124.0" type="curve" smooth="yes"/>
      <point x="178.0" y="1124.0"/>
      <point x="117.0" y="1065.0"/>
      <point x="117.0" y="960.0" type="curve" smooth="yes"/>
      <point x="117.0" y="855.0"/>
      <point x="181.0" y="796.0"/>
    </contour>
    <contour>
      <point x="290.0" y="-23.0" type="curve" smooth="yes"/>
      <point x="396.0" y="-23.0"/>
      <point x="458.0" y="36.0"/>
      <point x="458.0" y="140.0" type="curve" smooth="yes"/>
      <point x="458.0" y="245.0"/>
      <point x="399.0" y="303.0"/>
      <point x="290.0" y="303.0" type="curve" smooth="yes"/>
      <point x="177.0" y="303.0"/>
      <point x="117.0" y="245.0"/>
      <point x="117.0" y="140.0" type="curve" smooth="yes"/>
      <point x="117.0" y="35.0"/>
      <point x="182.0" y="-23.0"/>
    </contour>
  </outline>
</glyph>
<glyph name="less" format="2">
	<unicode hex="003C"/>
	<advance width="1169"/>
	<outline>
		<contour>
			<point x="1080" y="204" type="line"/>
			<point x="1080" y="440" type="line"/>
			<point x="399" y="723" type="line"/>
			<point x="1080" y="1042" type="line"/>
			<point x="1080" y="1279" type="line"/>
			<point x="88" y="782" type="line"/>
			<point x="88" y="644" type="line"/>
		</contour>
	</outline>
	<note>
		less
	</note>
</glyph>
<glyph name="equal" format="2">
	<unicode hex="003D"/>
	<advance width="1169"/>
	<outline>
		<contour>
			<point x="88" y="516" type="line"/>
			<point x="1083" y="516" type="line"/>
			<point x="1083" y="730" type="line"/>
			<point x="88" y="730" type="line"/>
		</contour>
		<contour>
			<point x="88" y="714" type="line"/>
			<point x="1083" y="714" type="line"/>
			<point x="1083" y="926" type="line"/>
			<point x="88" y="926" type="line"/>
		</contour>
	</outline>
	<note>
		equal
	</note>
</glyph>
<glyph name="greater" format="2">
	<unicode hex="003E"/>
	<advance width="1169"/>
	<outline>
		<contour>
			<point x="88" y="204" type="line"/>
			<point x="1080" y="644" type="line"/>
			<point x="1080" y="782" type="line"/>
			<point x="88" y="1279" type="line"/>
			<point x="88" y="1042" type="line"/>
			<point x="769" y="723" type="line"/>
			<point x="88" y="440" type="line"/>
		</contour>
	</outline>
	<note>
		greater
	</note>
</glyph>
<glyph name="at" format="2">
  <advance width="1837.0"/>
  <unicode hex="0040"/>
  <note>
at
</note>
  <outline>
    <contour>
      <point x="906.0" y="-167.0" type="curve" smooth="yes"/>
      <point x="1077.0" y="-167.0"/>
      <point x="1235.0" y="-136.0"/>
      <point x="1380.0" y="-76.0" type="curve"/>
      <point x="1380.0" y="114.0" type="line"/>
      <point x="1205.0" y="50.0"/>
      <point x="1040.0" y="20.0"/>
      <point x="894.0" y="20.0" type="curve" smooth="yes"/>
      <point x="529.0" y="20.0"/>
      <point x="320.0" y="228.0"/>
      <point x="320.0" y="594.0" type="curve" smooth="yes"/>
      <point x="320.0" y="1014.0"/>
      <point x="569.0" y="1290.0"/>
      <point x="985.0" y="1290.0" type="curve" smooth="yes"/>
      <point x="1332.0" y="1290.0"/>
      <point x="1539.0" y="1089.0"/>
      <point x="1539.0" y="748.0" type="curve" smooth="yes"/>
      <point x="1539.0" y="582.0"/>
      <point x="1488.0" y="407.0"/>
      <point x="1387.0" y="407.0" type="curve" smooth="yes"/>
      <point x="1358.0" y="407.0"/>
      <point x="1337.0" y="418.0"/>
      <point x="1324.0" y="440.0" type="curve" smooth="yes"/>
      <point x="1313.0" y="461.0"/>
      <point x="1307.0" y="491.0"/>
      <point x="1307.0" y="530.0" type="curve" smooth="yes"/>
      <point x="1308.0" y="554.0"/>
      <point x="1308.0" y="580.0"/>
      <point x="1309.0" y="604.0" type="curve"/>
      <point x="1330.0" y="1039.0" type="line"/>
      <point x="1225.0" y="1073.0"/>
      <point x="1097.0" y="1094.0"/>
      <point x="994.0" y="1094.0" type="curve" smooth="yes"/>
      <point x="702.0" y="1094.0"/>
      <point x="505.0" y="912.0"/>
      <point x="505.0" y="624.0" type="curve" smooth="yes"/>
      <point x="505.0" y="375.0"/>
      <point x="634.0" y="229.0"/>
      <point x="864.0" y="229.0" type="curve" smooth="yes"/>
      <point x="978.0" y="229.0"/>
      <point x="1073.0" y="278.0"/>
      <point x="1139.0" y="373.0" type="curve"/>
      <point x="1151.0" y="373.0" type="line"/>
      <point x="1188.0" y="283.0"/>
      <point x="1275.0" y="229.0"/>
      <point x="1384.0" y="229.0" type="curve" smooth="yes"/>
      <point x="1615.0" y="229.0"/>
      <point x="1750.0" y="470.0"/>
      <point x="1750.0" y="747.0" type="curve" smooth="yes"/>
      <point x="1750.0" y="1198.0"/>
      <point x="1440.0" y="1472.0"/>
      <point x="982.0" y="1472.0" type="curve" smooth="yes"/>
      <point x="464.0" y="1472.0"/>
      <point x="102.0" y="1112.0"/>
      <point x="102.0" y="595.0" type="curve" smooth="yes"/>
      <point x="102.0" y="117.0"/>
      <point x="404.0" y="-167.0"/>
    </contour>
    <contour>
      <point x="895.0" y="407.0" type="curve" smooth="yes"/>
      <point x="844.0" y="407.0"/>
      <point x="805.0" y="423.0"/>
      <point x="777.0" y="456.0" type="curve" smooth="yes"/>
      <point x="748.0" y="492.0"/>
      <point x="733.0" y="548.0"/>
      <point x="733.0" y="626.0" type="curve" smooth="yes"/>
      <point x="733.0" y="734.0"/>
      <point x="769.0" y="817.0"/>
      <point x="834.0" y="866.0" type="curve" smooth="yes"/>
      <point x="876.0" y="899.0"/>
      <point x="931.0" y="917.0"/>
      <point x="995.0" y="917.0" type="curve" smooth="yes"/>
      <point x="1031.0" y="917.0"/>
      <point x="1066.0" y="913.0"/>
      <point x="1100.0" y="904.0" type="curve"/>
      <point x="1089.0" y="708.0" type="line" smooth="yes"/>
      <point x="1082.0" y="595.0"/>
      <point x="1061.0" y="516.0"/>
      <point x="1027.0" y="470.0" type="curve" smooth="yes"/>
      <point x="997.0" y="428.0"/>
      <point x="953.0" y="407.0"/>
    </contour>
  </outline>
</glyph>
<glyph name="A" format="2">
	<unicode hex="0041"/>
	<advance width="1413"/>
	<outline>
		<contour>
			<point x="1409.6" y="0" type="line"/>
			<point x="898.7" y="1468" type="line"/>
			<point x="510.3" y="1468" type="line"/>
			<point x="0" y="0" type="line"/>
			<point x="337.7" y="0" type="line"/>
			<point x="450.7" y="346.6" type="line"/>
			<point x="961.4" y="346.6" type="line"/>
			<point x="1072.7" y="0" type="line"/>
		</contour>
		<contour>
			<point x="519.2" y="601" type="line"/>
			<point x="582.3" y="813.8"/>
			<point x="630.3" y="974.1"/>
			<point x="663.3" y="1081.2" type="curve" smooth="yes"/>
			<point x="681.5" y="1151.4"/>
			<point x="695.9" y="1208"/>
			<point x="705.5" y="1251" type="curve"/>
			<point x="721.5" y="1178"/>
			<point x="764.6" y="1014.3"/>
			<point x="790" y="927.1" type="curve" smooth="yes"/>
			<point x="893.8" y="601" type="line"/>
		</contour>
	</outline>
	<anchor name="bottom" x="705.3" y="0"/>
	<anchor name="ogonek" x="1268.4" y="10"/>
	<anchor name="top" x="705.3" y="1462"/>
</glyph>
<glyph name="B" format="2">
  <advance width="1376.0"/>
  <unicode hex="0042"/>
  <anchor x="687.0" y="0.0" name="bottom"/>
  <anchor x="687.0" y="1462.0" name="top"/>
  <outline>
    <contour>
      <point x="184.0" y="0.0" type="line"/>
      <point x="716.0" y="0.0" type="line" smooth="yes"/>
      <point x="1056.0" y="0.0"/>
      <point x="1261.0" y="159.0"/>
      <point x="1261.0" y="426.0" type="curve" smooth="yes"/>
      <point x="1261.0" y="611.0"/>
      <point x="1175.0" y="722.0"/>
      <point x="978.0" y="766.0" type="curve"/>
      <point x="978.0" y="775.0" type="line"/>
      <point x="1133.0" y="807.0"/>
      <point x="1229.0" y="931.0"/>
      <point x="1229.0" y="1096.0" type="curve" smooth="yes"/>
      <point x="1229.0" y="1345.0"/>
      <point x="1047.0" y="1462.0"/>
      <point x="661.0" y="1462.0" type="curve" smooth="yes"/>
      <point x="184.0" y="1462.0" type="line"/>
    </contour>
    <contour>
      <point x="491.0" y="1226.0" type="line"/>
      <point x="657.0" y="1226.0" type="line" smooth="yes"/>
      <point x="828.0" y="1226.0"/>
      <point x="913.0" y="1172.0"/>
      <point x="913.0" y="1056.0" type="curve" smooth="yes"/>
      <point x="913.0" y="933.0"/>
      <point x="832.0" y="874.0"/>
      <point x="671.0" y="874.0" type="curve" smooth="yes"/>
      <point x="491.0" y="874.0" type="line"/>
    </contour>
    <contour>
      <point x="679.0" y="645.0" type="line" smooth="yes"/>
      <point x="852.0" y="645.0"/>
      <point x="943.0" y="577.0"/>
      <point x="943.0" y="449.0" type="curve" smooth="yes"/>
      <point x="943.0" y="310.0"/>
      <point x="859.0" y="240.0"/>
      <point x="691.0" y="240.0" type="curve" smooth="yes"/>
      <point x="491.0" y="240.0" type="line"/>
      <point x="491.0" y="645.0" type="line"/>
    </contour>
  </outline>
</glyph>
<glyph name="C" format="2">
  <advance width="1305.0"/>
  <unicode hex="0043"/>
  <anchor x="759.0" y="0.0" name="bottom"/>
  <anchor x="764.0" y="1462.0" name="top"/>
  <outline>
    <contour>
      <point x="824.0" y="1229.0" type="curve" smooth="yes"/>
      <point x="946.0" y="1229.0"/>
      <point x="1052.0" y="1193.0"/>
      <point x="1160.0" y="1142.0" type="curve"/>
      <point x="1257.0" y="1387.0" type="line"/>
      <point x="1122.0" y="1451.0"/>
      <point x="978.0" y="1483.0"/>
      <point x="825.0" y="1483.0" type="curve" smooth="yes"/>
      <point x="681.0" y="1483.0"/>
      <point x="556.0" y="1453.0"/>
      <point x="450.0" y="1391.0" type="curve" smooth="yes"/>
      <point x="237.0" y="1266.0"/>
      <point x="119.0" y="1031.0"/>
      <point x="119.0" y="729.0" type="curve" smooth="yes"/>
      <point x="119.0" y="248.0"/>
      <point x="365.0" y="-20.0"/>
      <point x="797.0" y="-20.0" type="curve" smooth="yes"/>
      <point x="948.0" y="-20.0"/>
      <point x="1081.0" y="4.0"/>
      <point x="1195.0" y="52.0" type="curve"/>
      <point x="1195.0" y="313.0" type="line"/>
      <point x="1078.0" y="268.0"/>
      <point x="961.0" y="234.0"/>
      <point x="834.0" y="234.0" type="curve" smooth="yes"/>
      <point x="737.0" y="234.0"/>
      <point x="658.0" y="258.0"/>
      <point x="596.0" y="306.0" type="curve" smooth="yes"/>
      <point x="495.0" y="381.0"/>
      <point x="437.0" y="517.0"/>
      <point x="437.0" y="727.0" type="curve" smooth="yes"/>
      <point x="437.0" y="1040.0"/>
      <point x="582.0" y="1229.0"/>
    </contour>
  </outline>
</glyph>
<glyph name="D" format="2">
	<unicode hex="0044"/>
	<advance width="1516"/>
	<outline>
		<contour>
			<point x="1385" y="757" type="curve" smooth="yes"/>
			<point x="1385" y="1214"/>
			<point x="1125" y="1462"/>
			<point x="656" y="1462" type="curve" smooth="yes"/>
			<point x="184" y="1462" type="line"/>
			<point x="184" y="0" type="line"/>
			<point x="620" y="0" type="line" smooth="yes"/>
			<point x="1110" y="0"/>
			<point x="1385" y="268"/>
		</contour>
		<contour>
			<point x="1065" y="746" type="curve" smooth="yes"/>
			<point x="1065" y="415"/>
			<point x="924" y="254"/>
			<point x="625" y="254" type="curve" smooth="yes"/>
			<point x="491" y="254" type="line"/>
			<point x="491" y="1212" type="line"/>
			<point x="652" y="1212" type="line" smooth="yes"/>
			<point x="927" y="1212"/>
			<point x="1065" y="1059"/>
		</contour>
	</outline>
	<anchor name="bottom" x="754" y="0"/>
	<anchor name="center" x="754" y="731"/>
	<anchor name="top" x="754" y="1462"/>
</glyph>
<glyph name="E" format="2">
	<unicode hex="0045"/>
	<advance width="1147"/>
	<outline>
		<contour>
			<point x="1031" y="254" type="line"/>
			<point x="491" y="254" type="line"/>
			<point x="491" y="635" type="line"/>
			<point x="995" y="635" type="line"/>
			<point x="995" y="885" type="line"/>
			<point x="491" y="885" type="line"/>
			<point x="491" y="1212" type="line"/>
			<point x="1031" y="1212" type="line"/>
			<point x="1031" y="1462" type="line"/>
			<point x="184" y="1462" type="line"/>
			<point x="184" y="0" type="line"/>
			<point x="1031" y="0" type="line"/>
		</contour>
	</outline>
	<anchor name="bottom" x="574" y="0"/>
	<anchor name="ogonek" x="1025" y="10"/>
	<anchor name="top" x="574" y="1462"/>
	<anchor name="topleft" x="31" y="1462"/>
</glyph>
<glyph name="F" format="2">
  <advance width="1124.0"/>
  <unicode hex="0046"/>
  <anchor x="552.0" y="0.0" name="bottom"/>
  <anchor x="552.0" y="1462.0" name="top"/>
  <outline>
    <contour>
      <point x="487.0" y="580.0" type="line"/>
      <point x="991.0" y="580.0" type="line"/>
      <point x="991.0" y="831.0" type="line"/>
      <point x="487.0" y="831.0" type="line"/>
      <point x="487.0" y="1212.0" type="line"/>
      <point x="1029.0" y="1212.0" type="line"/>
      <point x="1029.0" y="1462.0" type="line"/>
      <point x="184.0" y="1462.0" type="line"/>
      <point x="184.0" y="0.0" type="line"/>
      <point x="487.0" y="0.0" type="line"/>
    </contour>
  </outline>
</glyph>
<glyph name="G" format="2">
  <advance width="1483.0"/>
  <unicode hex="0047"/>
  <anchor x="761.0" y="0.0" name="bottom"/>
  <anchor x="761.0" y="1462.0" name="top"/>
  <outline>
    <contour>
      <point x="832.0" y="-20.0" type="curve" smooth="yes"/>
      <point x="1023.0" y="-20.0"/>
      <point x="1206.0" y="9.0"/>
      <point x="1368.0" y="69.0" type="curve"/>
      <point x="1368.0" y="820.0" type="line"/>
      <point x="764.0" y="820.0" type="line"/>
      <point x="764.0" y="578.0" type="line"/>
      <point x="1077.0" y="578.0" type="line"/>
      <point x="1077.0" y="263.0" type="line"/>
      <point x="1015.0" y="244.0"/>
      <point x="941.0" y="234.0"/>
      <point x="863.0" y="234.0" type="curve" smooth="yes"/>
      <point x="586.0" y="234.0"/>
      <point x="438.0" y="406.0"/>
      <point x="438.0" y="721.0" type="curve" smooth="yes"/>
      <point x="438.0" y="1048.0"/>
      <point x="603.0" y="1229.0"/>
      <point x="881.0" y="1229.0" type="curve" smooth="yes"/>
      <point x="1009.0" y="1229.0"/>
      <point x="1130.0" y="1202.0"/>
      <point x="1241.0" y="1148.0" type="curve"/>
      <point x="1341.0" y="1393.0" type="line"/>
      <point x="1219.0" y="1447.0"/>
      <point x="1057.0" y="1484.0"/>
      <point x="882.0" y="1484.0" type="curve" smooth="yes"/>
      <point x="728.0" y="1484.0"/>
      <point x="597.0" y="1454.0"/>
      <point x="490.0" y="1402.0" type="curve" smooth="yes"/>
      <point x="257.0" y="1288.0"/>
      <point x="119.0" y="1059.0"/>
      <point x="119.0" y="728.0" type="curve" smooth="yes"/>
      <point x="119.0" y="252.0"/>
      <point x="375.0" y="-20.0"/>
    </contour>
  </outline>
</glyph>
<glyph name="H" format="2">
  <advance width="1567.0"/>
  <unicode hex="0048"/>
  <anchor x="782.0" y="0.0" name="bottom"/>
  <anchor x="782.0" y="731.0" name="center"/>
  <anchor x="782.0" y="1462.0" name="top"/>
  <anchor x="31.0" y="1462.0" name="topleft"/>
  <outline>
    <contour>
      <point x="1379.0" y="1462.0" type="line"/>
      <point x="1070.0" y="1462.0" type="line"/>
      <point x="1070.0" y="888.0" type="line"/>
      <point x="492.0" y="888.0" type="line"/>
      <point x="492.0" y="1462.0" type="line"/>
      <point x="184.0" y="1462.0" type="line"/>
      <point x="184.0" y="0.0" type="line"/>
      <point x="492.0" y="0.0" type="line"/>
      <point x="492.0" y="633.0" type="line"/>
      <point x="1070.0" y="633.0" type="line"/>
      <point x="1070.0" y="0.0" type="line"/>
      <point x="1379.0" y="0.0" type="line"/>
    </contour>
  </outline>
</glyph>
<glyph name="J" format="2">
  <advance width="678.0"/>
  <unicode hex="004A"/>
  <anchor x="346.0" y="0.0" name="bottom"/>
  <anchor x="346.0" y="1462.0" name="top"/>
  <outline>
    <contour>
      <point x="37.0" y="-432.0" type="curve" smooth="yes"/>
      <point x="192.0" y="-432.0"/>
      <point x="308.0" y="-387.0"/>
      <point x="386.0" y="-299.0" type="curve" smooth="yes"/>
      <point x="464.0" y="-210.0"/>
      <point x="504.0" y="-76.0"/>
      <point x="504.0" y="100.0" type="curve" smooth="yes"/>
      <point x="504.0" y="1462.0" type="line"/>
      <point x="195.0" y="1462.0" type="line"/>
      <point x="195.0" y="73.0" type="line" smooth="yes"/>
      <point x="195.0" y="-19.0"/>
      <point x="180.0" y="-85.0"/>
      <point x="148.0" y="-127.0" type="curve" smooth="yes"/>
      <point x="116.0" y="-170.0"/>
      <point x="66.0" y="-189.0"/>
      <point x="-5.0" y="-189.0" type="curve" smooth="yes"/>
      <point x="-48.0" y="-189.0"/>
      <point x="-86.0" y="-182.0"/>
      <point x="-152.0" y="-168.0" type="curve"/>
      <point x="-152.0" y="-409.0" type="line"/>
      <point x="-94.0" y="-424.0"/>
      <point x="-32.0" y="-432.0"/>
    </contour>
  </outline>
</glyph>
<glyph name="K" format="2">
  <advance width="1360.0"/>
  <unicode hex="004B"/>
  <anchor x="682.0" y="0.0" name="bottom"/>
  <anchor x="682.0" y="1462.0" name="top"/>
  <outline>
    <contour>
      <point x="851.0" y="818.0" type="line"/>
      <point x="1354.0" y="1462.0" type="line"/>
      <point x="1012.0" y="1462.0" type="line"/>
      <point x="625.0" y="969.0" type="line" smooth="yes"/>
      <point x="567.0" y="893.0"/>
      <point x="522.0" y="833.0"/>
      <point x="492.0" y="789.0" type="curve"/>
      <point x="492.0" y="1462.0" type="line"/>
      <point x="184.0" y="1462.0" type="line"/>
      <point x="184.0" y="0.0" type="line"/>
      <point x="492.0" y="0.0" type="line"/>
      <point x="492.0" y="522.0" type="line"/>
      <point x="633.0" y="623.0" type="line"/>
      <point x="1003.0" y="0.0" type="line"/>
      <point x="1353.0" y="0.0" type="line"/>
    </contour>
  </outline>
</glyph>
<glyph name="L" format="2">
	<unicode hex="004C"/>
	<advance width="1157"/>
	<outline>
		<contour>
			<point x="1094" y="0" type="line"/>
			<point x="1094" y="252" type="line"/>
			<point x="491" y="252" type="line"/>
			<point x="491" y="1462" type="line"/>
			<point x="184" y="1462" type="line"/>
			<point x="184" y="0" type="line"/>
		</contour>
	</outline>
	<anchor name="bottom" x="586" y="0"/>
	<anchor name="center" x="586" y="731"/>
	<anchor name="top" x="477" y="1462"/>
	<anchor name="topright" x="1059" y="1462"/>
</glyph>
<glyph name="M" format="2">
  <advance width="1931.0"/>
  <unicode hex="004D"/>
  <anchor x="969.0" y="0.0" name="bottom"/>
  <anchor x="969.0" y="1462.0" name="top"/>
  <outline>
    <contour>
      <point x="184.0" y="0.0" type="line"/>
      <point x="458.0" y="0.0" type="line"/>
      <point x="458.0" y="773.0" type="line" smooth="yes"/>
      <point x="458.0" y="869.0"/>
      <point x="452.0" y="992.0"/>
      <point x="441.0" y="1142.0" type="curve"/>
      <point x="450.0" y="1142.0" type="line"/>
      <point x="822.0" y="0.0" type="line"/>
      <point x="1105.0" y="0.0" type="line"/>
      <point x="1476.0" y="1140.0" type="line"/>
      <point x="1484.0" y="1140.0" type="line"/>
      <point x="1477.0" y="1014.0"/>
      <point x="1470.0" y="857.0"/>
      <point x="1470.0" y="781.0" type="curve" smooth="yes"/>
      <point x="1470.0" y="0.0" type="line"/>
      <point x="1755.0" y="0.0" type="line"/>
      <point x="1755.0" y="1462.0" type="line"/>
      <point x="1340.0" y="1462.0" type="line"/>
      <point x="1060.0" y="615.0" type="line"/>
      <point x="1032.0" y="527.0"/>
      <point x="1004.0" y="438.0"/>
      <point x="976.0" y="350.0" type="curve"/>
      <point x="968.0" y="350.0" type="line"/>
      <point x="940.0" y="437.0"/>
      <point x="912.0" y="523.0"/>
      <point x="884.0" y="610.0" type="curve"/>
      <point x="599.0" y="1462.0" type="line"/>
      <point x="184.0" y="1462.0" type="line"/>
    </contour>
  </outline>
</glyph>
<glyph name="N" format="2">
  <advance width="1665.0"/>
  <unicode hex="004E"/>
  <anchor x="830.0" y="0.0" name="bottom"/>
  <anchor x="830.0" y="1462.0" name="top"/>
  <outline>
    <contour>
      <point x="184.0" y="0.0" type="line"/>
      <point x="458.0" y="0.0" type="line"/>
      <point x="458.0" y="746.0" type="line" smooth="yes"/>
      <point x="458.0" y="829.0"/>
      <point x="453.0" y="951.0"/>
      <point x="441.0" y="1110.0" type="curve"/>
      <point x="450.0" y="1110.0" type="line"/>
      <point x="1084.0" y="0.0" type="line"/>
      <point x="1477.0" y="0.0" type="line"/>
      <point x="1477.0" y="1462.0" type="line"/>
      <point x="1201.0" y="1462.0" type="line"/>
      <point x="1201.0" y="713.0" type="line" smooth="yes"/>
      <point x="1201.0" y="618.0"/>
      <point x="1205.0" y="501.0"/>
      <point x="1213.0" y="362.0" type="curve"/>
      <point x="1207.0" y="362.0" type="line"/>
      <point x="575.0" y="1462.0" type="line"/>
      <point x="184.0" y="1462.0" type="line"/>
    </contour>
  </outline>
</glyph>
<glyph name="O" format="2">
  <advance width="1630.0"/>
  <unicode hex="004F"/>
  <anchor x="814.0" y="0.0" name="bottom"/>
  <anchor x="814.0" y="731.0" name="center"/>
  <anchor x="1459.0" y="10.0" name="ogonek"/>
  <anchor x="814.0" y="1462.0" name="top"/>
  <anchor x="182.0" y="1462.0" name="topleft"/>
  <anchor x="1600.0" y="1462.0" name="topright"/>
  <outline>
    <contour>
      <point x="1507.0" y="733.0" type="curve" smooth="yes"/>
      <point x="1507.0" y="1218.0"/>
      <point x="1263.0" y="1485.0"/>
      <point x="815.0" y="1485.0" type="curve" smooth="yes"/>
      <point x="369.0" y="1485.0"/>
      <point x="119.0" y="1215.0"/>
      <point x="119.0" y="735.0" type="curve" smooth="yes"/>
      <point x="119.0" y="250.0"/>
      <point x="370.0" y="-20.0"/>
      <point x="813.0" y="-20.0" type="curve" smooth="yes"/>
      <point x="1261.0" y="-20.0"/>
      <point x="1507.0" y="249.0"/>
    </contour>
    <contour>
      <point x="444.0" y="733.0" type="curve" smooth="yes"/>
      <point x="444.0" y="1058.0"/>
      <point x="572.0" y="1229.0"/>
      <point x="815.0" y="1229.0" type="curve" smooth="yes"/>
      <point x="1056.0" y="1229.0"/>
      <point x="1182.0" y="1064.0"/>
      <point x="1182.0" y="733.0" type="curve" smooth="yes"/>
      <point x="1182.0" y="402.0"/>
      <point x="1059.0" y="239.0"/>
      <point x="813.0" y="239.0" type="curve" smooth="yes"/>
      <point x="570.0" y="239.0"/>
      <point x="444.0" y="409.0"/>
    </contour>
  </outline>
</glyph>
<glyph name="P" format="2">
  <advance width="1286.0"/>
  <unicode hex="0050"/>
  <anchor x="644.0" y="0.0" name="bottom"/>
  <anchor x="644.0" y="1462.0" name="top"/>
  <outline>
    <contour>
      <point x="184.0" y="0.0" type="line"/>
      <point x="491.0" y="0.0" type="line"/>
      <point x="491.0" y="521.0" type="line"/>
      <point x="636.0" y="521.0" type="line" smooth="yes"/>
      <point x="990.0" y="521.0"/>
      <point x="1190.0" y="697.0"/>
      <point x="1190.0" y="1010.0" type="curve" smooth="yes"/>
      <point x="1190.0" y="1302.0"/>
      <point x="1008.0" y="1462.0"/>
      <point x="645.0" y="1462.0" type="curve" smooth="yes"/>
      <point x="184.0" y="1462.0" type="line"/>
    </contour>
    <contour>
      <point x="491.0" y="772.0" type="line"/>
      <point x="491.0" y="1211.0" type="line"/>
      <point x="635.0" y="1211.0" type="line" smooth="yes"/>
      <point x="798.0" y="1211.0"/>
      <point x="877.0" y="1145.0"/>
      <point x="877.0" y="1008.0" type="curve" smooth="yes"/>
      <point x="877.0" y="853.0"/>
      <point x="783.0" y="772.0"/>
      <point x="601.0" y="772.0" type="curve" smooth="yes"/>
    </contour>
  </outline>
</glyph>
<glyph name="Q" format="2">
	<unicode hex="0051"/>
	<advance width="1630"/>
	<outline>
		<contour>
			<point x="1099" y="-348" type="line"/>
			<point x="1493" y="-348" type="line"/>
			<point x="1143" y="44" type="line"/>
			<point x="1380" y="146"/>
			<point x="1507" y="384"/>
			<point x="1507" y="733" type="curve" smooth="yes"/>
			<point x="1507" y="1218"/>
			<point x="1263" y="1485"/>
			<point x="815" y="1485" type="curve" smooth="yes"/>
			<point x="369" y="1485"/>
			<point x="119" y="1215"/>
			<point x="119" y="735" type="curve" smooth="yes"/>
			<point x="119" y="251"/>
			<point x="369" y="-18"/>
			<point x="810" y="-20" type="curve" smooth="yes"/>
			<point x="817" y="-20"/>
			<point x="826" y="-20"/>
			<point x="832" y="-19" type="curve"/>
		</contour>
		<contour>
			<point x="813" y="239" type="curve" smooth="yes"/>
			<point x="570" y="239"/>
			<point x="444" y="409"/>
			<point x="444" y="733" type="curve" smooth="yes"/>
			<point x="444" y="1058"/>
			<point x="572" y="1229"/>
			<point x="815" y="1229" type="curve" smooth="yes"/>
			<point x="1056" y="1229"/>
			<point x="1182" y="1064"/>
			<point x="1182" y="733" type="curve" smooth="yes"/>
			<point x="1182" y="402"/>
			<point x="1059" y="239"/>
		</contour>
	</outline>
	<anchor name="bottom" x="814" y="0"/>
	<anchor name="top" x="814" y="1462"/>
</glyph>
<glyph name="R" format="2">
  <advance width="1352.0"/>
  <unicode hex="0052"/>
  <anchor x="679.0" y="0.0" name="bottom"/>
  <anchor x="679.0" y="1462.0" name="top"/>
  <outline>
    <contour>
      <point x="184.0" y="0.0" type="line"/>
      <point x="491.0" y="0.0" type="line"/>
      <point x="491.0" y="564.0" type="line"/>
      <point x="670.0" y="564.0" type="line"/>
      <point x="1000.0" y="0.0" type="line"/>
      <point x="1350.0" y="0.0" type="line"/>
      <point x="933.0" y="646.0" type="line"/>
      <point x="1111.0" y="728.0"/>
      <point x="1200.0" y="862.0"/>
      <point x="1200.0" y="1039.0" type="curve" smooth="yes"/>
      <point x="1200.0" y="1321.0"/>
      <point x="1010.0" y="1462.0"/>
      <point x="623.0" y="1462.0" type="curve" smooth="yes"/>
      <point x="184.0" y="1462.0" type="line"/>
    </contour>
    <contour>
      <point x="491.0" y="798.0" type="line"/>
      <point x="491.0" y="1225.0" type="line"/>
      <point x="618.0" y="1225.0" type="line" smooth="yes"/>
      <point x="803.0" y="1225.0"/>
      <point x="888.0" y="1161.0"/>
      <point x="888.0" y="1024.0" type="curve" smooth="yes"/>
      <point x="888.0" y="874.0"/>
      <point x="797.0" y="798.0"/>
      <point x="626.0" y="798.0" type="curve" smooth="yes"/>
    </contour>
  </outline>
</glyph>
<glyph name="T" format="2">
	<unicode hex="0054"/>
	<advance width="1186"/>
	<outline>
		<contour>
			<point x="741" y="1207" type="line"/>
			<point x="1132" y="1207" type="line"/>
			<point x="1132" y="1462" type="line"/>
			<point x="41" y="1462" type="line"/>
			<point x="41" y="1207" type="line"/>
			<point x="433" y="1207" type="line"/>
			<point x="433" y="0" type="line"/>
			<point x="741" y="0" type="line"/>
		</contour>
	</outline>
	<anchor name="bottom" x="563" y="0"/>
	<anchor name="center" x="587" y="731"/>
	<anchor name="top" x="587" y="1462"/>
</glyph>
<glyph name="U" format="2">
	<unicode hex="0055"/>
	<advance width="1548"/>
	<outline>
		<contour>
			<point x="770" y="-20" type="curve" smooth="yes"/>
			<point x="1160" y="-20"/>
			<point x="1377" y="193"/>
			<point x="1377" y="562" type="curve" smooth="yes"/>
			<point x="1377" y="1462" type="line"/>
			<point x="1070" y="1462" type="line"/>
			<point x="1070" y="576" type="line" smooth="yes"/>
			<point x="1070" y="346"/>
			<point x="974" y="237"/>
			<point x="778" y="237" type="curve" smooth="yes"/>
			<point x="586" y="237"/>
			<point x="483" y="348"/>
			<point x="483" y="578" type="curve" smooth="yes"/>
			<point x="483" y="1462" type="line"/>
			<point x="174" y="1462" type="line"/>
			<point x="174" y="557" type="line" smooth="yes"/>
			<point x="174" y="187"/>
			<point x="389" y="-20"/>
		</contour>
	</outline>
	<anchor name="bottom" x="776" y="0"/>
	<anchor name="ogonek" x="938" y="10"/>
	<anchor name="top" x="776" y="1462"/>
	<anchor name="topright" x="1519" y="1462"/>
</glyph>
<glyph name="V" format="2">
  <advance width="1331.0"/>
  <unicode hex="0056"/>
  <anchor x="675.0" y="0.0" name="bottom"/>
  <anchor x="675.0" y="1462.0" name="top"/>
  <outline>
    <contour>
      <point x="497.4" y="0.0" type="line"/>
      <point x="849.9" y="0.0" type="line"/>
      <point x="1349.3" y="1462.0" type="line"/>
      <point x="1006.6" y="1462.0" type="line"/>
      <point x="743.9" y="610.5" type="line" smooth="yes"/>
      <point x="716.8" y="522.7"/>
      <point x="684.9" y="382.7"/>
      <point x="674.7" y="302.6" type="curve"/>
      <point x="666.2" y="370.6"/>
      <point x="640.8" y="485.0"/>
      <point x="593.2" y="644.8" type="curve" smooth="yes"/>
      <point x="343.5" y="1462.0" type="line"/>
      <point x="0.0" y="1462.0" type="line"/>
    </contour>
  </outline>
</glyph>
<glyph name="W" format="2">
  <advance width="1980.0"/>
  <unicode hex="0057"/>
  <anchor x="982.0" y="0.0" name="bottom"/>
  <anchor x="982.0" y="1462.0" name="top"/>
  <outline>
    <contour>
      <point x="374.0" y="0.0" type="line"/>
      <point x="727.0" y="0.0" type="line"/>
      <point x="926.0" y="806.0" type="line" smooth="yes"/>
      <point x="949.0" y="904.0"/>
      <point x="971.0" y="1025.0"/>
      <point x="982.0" y="1103.0" type="curve"/>
      <point x="995.0" y="1011.0"/>
      <point x="1028.0" y="850.0"/>
      <point x="1044.0" y="784.0" type="curve" smooth="yes"/>
      <point x="1238.0" y="0.0" type="line"/>
      <point x="1590.0" y="0.0" type="line"/>
      <point x="1964.0" y="1462.0" type="line"/>
      <point x="1666.0" y="1462.0" type="line"/>
      <point x="1460.0" y="603.0" type="line" smooth="yes"/>
      <point x="1428.0" y="458.0"/>
      <point x="1409.0" y="354.0"/>
      <point x="1400.0" y="287.0" type="curve"/>
      <point x="1385.0" y="389.0"/>
      <point x="1340.0" y="610.0"/>
      <point x="1302.0" y="769.0" type="curve" smooth="yes"/>
      <point x="1127.0" y="1462.0" type="line"/>
      <point x="837.0" y="1462.0" type="line"/>
      <point x="671.0" y="809.0" type="line" smooth="yes"/>
      <point x="631.0" y="645.0"/>
      <point x="581.0" y="410.0"/>
      <point x="564.0" y="288.0" type="curve"/>
      <point x="547.0" y="397.0"/>
      <point x="525.0" y="503.0"/>
      <point x="487.0" y="666.0" type="curve" smooth="yes"/>
      <point x="299.0" y="1462.0" type="line"/>
      <point x="0.0" y="1462.0" type="line"/>
    </contour>
  </outline>
</glyph>
<glyph name="X" format="2">
	<unicode hex="0058"/>
	<advance width="1366"/>
	<outline>
		<contour>
			<point x="864" y="731" type="line"/>
			<point x="1324" y="1462" type="line"/>
			<point x="976" y="1462" type="line"/>
			<point x="678" y="958" type="line"/>
			<point x="375" y="1462" type="line"/>
			<point x="34" y="1462" type="line"/>
			<point x="487" y="752" type="line"/>
			<point x="0" y="0" type="line"/>
			<point x="347" y="0" type="line"/>
			<point x="676" y="525" type="line"/>
			<point x="1005" y="0" type="line"/>
			<point x="1360" y="0" type="line"/>
		</contour>
	</outline>
	<anchor name="bottom" x="681" y="0"/>
	<anchor name="cyrillicbighook" x="1218" y="0"/>
	<anchor name="top" x="681" y="1462"/>
</glyph>
<glyph name="Y" format="2">
  <advance width="1278.0"/>
  <unicode hex="0059"/>
  <anchor x="638.3" y="0.0" name="bottom"/>
  <anchor x="638.3" y="1462.0" name="top"/>
  <anchor x="20.0" y="1462.0" name="topleft"/>
  <outline>
    <contour>
      <point x="336.1" y="1462.0" type="line"/>
      <point x="0.0" y="1462.0" type="line"/>
      <point x="483.4" y="558.4" type="line"/>
      <point x="483.4" y="0.0" type="line"/>
      <point x="793.5" y="0.0" type="line"/>
      <point x="793.5" y="569.2" type="line"/>
      <point x="1276.3" y="1462.0" type="line"/>
      <point x="943.7" y="1462.0" type="line"/>
      <point x="638.9" y="842.6" type="line"/>
    </contour>
  </outline>
</glyph>
<glyph name="Z" format="2">
  <advance width="1186.0"/>
  <unicode hex="005A"/>
  <anchor x="597.0" y="0.0" name="bottom"/>
  <anchor x="597.0" y="1462.0" name="top"/>
  <outline>
    <contour>
      <point x="1151.0" y="252.0" type="line"/>
      <point x="433.0" y="252.0" type="line"/>
      <point x="1133.0" y="1269.0" type="line"/>
      <point x="1133.0" y="1462.0" type="line"/>
      <point x="72.0" y="1462.0" type="line"/>
      <point x="72.0" y="1210.0" type="line"/>
      <point x="749.0" y="1210.0" type="line"/>
      <point x="49.0" y="194.0" type="line"/>
      <point x="49.0" y="0.0" type="line"/>
      <point x="1151.0" y="0.0" type="line"/>
    </contour>
  </outline>
</glyph>
<glyph name="bracketleft" format="2">
  <advance width="678.0"/>
  <unicode hex="005B"/>
  <note>
bracketleft
</note>
  <outline>
    <contour>
      <point x="143.0" y="-338.0" type="line"/>
      <point x="621.0" y="-338.0" type="line"/>
      <point x="621.0" y="-132.0" type="line"/>
      <point x="394.0" y="-132.0" type="line"/>
      <point x="394.0" y="1285.0" type="line"/>
      <point x="621.0" y="1285.0" type="line"/>
      <point x="621.0" y="1491.0" type="line"/>
      <point x="143.0" y="1491.0" type="line"/>
    </contour>
  </outline>
</glyph>
<glyph name="backslash" format="2">
  <advance width="846.0"/>
  <unicode hex="005C"/>
  <note>
backslash
</note>
  <outline>
    <contour>
      <point x="557.0" y="-14.0" type="line"/>
      <point x="830.1" y="-14.0" type="line"/>
      <point x="284.5" y="1476.7" type="line"/>
      <point x="11.7" y="1476.7" type="line"/>
    </contour>
  </outline>
</glyph>
<glyph name="bracketright" format="2">
  <advance width="678.0"/>
  <unicode hex="005D"/>
  <note>
bracketright
</note>
  <outline>
    <contour>
      <point x="51.0" y="-338.0" type="line"/>
      <point x="530.0" y="-338.0" type="line"/>
      <point x="530.0" y="1491.0" type="line"/>
      <point x="51.0" y="1491.0" type="line"/>
      <point x="51.0" y="1285.0" type="line"/>
      <point x="278.0" y="1285.0" type="line"/>
      <point x="278.0" y="-132.0" type="line"/>
      <point x="51.0" y="-132.0" type="line"/>
    </contour>
  </outline>
</glyph>
<glyph name="asciicircum" format="2">
  <advance width="1090.0"/>
  <unicode hex="005E"/>
  <note>
asciicircum
</note>
  <outline>
    <contour>
      <point x="8.0" y="520.0" type="line"/>
      <point x="238.0" y="520.0" type="line"/>
      <point x="531.0" y="1161.0" type="line"/>
      <point x="852.0" y="520.0" type="line"/>
      <point x="1089.0" y="520.0" type="line"/>
      <point x="595.0" y="1469.0" type="line"/>
      <point x="456.0" y="1469.0" type="line"/>
    </contour>
  </outline>
</glyph>
<glyph name="a" format="2">
  <advance width="1237.0"/>
  <unicode hex="0061"/>
  <anchor x="615.0" y="0.0" name="bottom"/>
  <anchor x="1063.0" y="10.0" name="ogonek"/>
  <anchor x="615.0" y="1119.0" name="top"/>
  <outline>
    <contour>
      <point x="1081.0" y="0.0" type="line"/>
      <point x="1081.0" y="737.0" type="line" smooth="yes"/>
      <point x="1081.0" y="997.0"/>
      <point x="930.0" y="1139.0"/>
      <point x="654.0" y="1139.0" type="curve" smooth="yes"/>
      <point x="478.0" y="1139.0"/>
      <point x="326.0" y="1107.0"/>
      <point x="198.0" y="1042.0" type="curve"/>
      <point x="288.0" y="836.0" type="line"/>
      <point x="410.0" y="892.0"/>
      <point x="514.0" y="920.0"/>
      <point x="603.0" y="920.0" type="curve" smooth="yes"/>
      <point x="723.0" y="920.0"/>
      <point x="779.0" y="855.0"/>
      <point x="779.0" y="728.0" type="curve" smooth="yes"/>
      <point x="779.0" y="695.0" type="line"/>
      <point x="585.0" y="689.0" type="line" smooth="yes"/>
      <point x="261.0" y="679.0"/>
      <point x="86.0" y="561.0"/>
      <point x="86.0" y="329.0" type="curve" smooth="yes"/>
      <point x="86.0" y="109.0"/>
      <point x="215.0" y="-20.0"/>
      <point x="428.0" y="-20.0" type="curve" smooth="yes"/>
      <point x="597.0" y="-20.0"/>
      <point x="695.0" y="23.0"/>
      <point x="801.0" y="157.0" type="curve"/>
      <point x="809.0" y="157.0" type="line"/>
      <point x="869.0" y="0.0" type="line"/>
    </contour>
    <contour>
      <point x="546.0" y="200.0" type="curve" smooth="yes"/>
      <point x="449.0" y="200.0"/>
      <point x="397.0" y="248.0"/>
      <point x="397.0" y="337.0" type="curve" smooth="yes"/>
      <point x="397.0" y="452.0"/>
      <point x="477.0" y="507.0"/>
      <point x="659.0" y="515.0" type="curve" smooth="yes"/>
      <point x="779.0" y="520.0" type="line"/>
      <point x="779.0" y="426.0" type="line" smooth="yes"/>
      <point x="779.0" y="288.0"/>
      <point x="682.0" y="200.0"/>
    </contour>
  </outline>
</glyph>
<glyph name="b" format="2">
	<unicode hex="0062"/>
	<advance width="1296"/>
	<outline>
		<contour>
			<point x="773" y="-20" type="curve" smooth="yes"/>
			<point x="1043" y="-20"/>
			<point x="1201" y="196"/>
			<point x="1201" y="562" type="curve" smooth="yes"/>
			<point x="1201" y="928"/>
			<point x="1046" y="1139"/>
			<point x="782" y="1139" type="curve" smooth="yes"/>
			<point x="644" y="1139"/>
			<point x="542" y="1088"/>
			<point x="463" y="966" type="curve"/>
			<point x="452" y="966" type="line"/>
			<point x="459" y="1069"/>
			<point x="463" y="1145"/>
			<point x="463" y="1192" type="curve" smooth="yes"/>
			<point x="463" y="1556" type="line"/>
			<point x="160" y="1556" type="line"/>
			<point x="160" y="0" type="line"/>
			<point x="392" y="0" type="line"/>
			<point x="444" y="127" type="line"/>
			<point x="463" y="127" type="line"/>
			<point x="545" y="27"/>
			<point x="634" y="-20"/>
		</contour>
		<contour>
			<point x="684" y="227" type="curve" smooth="yes"/>
			<point x="530" y="227"/>
			<point x="463" y="319"/>
			<point x="463" y="547" type="curve" smooth="yes"/>
			<point x="463" y="590" type="line" smooth="yes"/>
			<point x="463" y="806"/>
			<point x="528" y="898"/>
			<point x="681" y="898" type="curve" smooth="yes"/>
			<point x="821" y="898"/>
			<point x="891" y="787"/>
			<point x="891" y="565" type="curve" smooth="yes"/>
			<point x="891" y="345"/>
			<point x="819" y="227"/>
		</contour>
	</outline>
	<anchor name="bottom" x="655" y="0"/>
	<anchor name="top" x="655" y="1119"/>
</glyph>
<glyph name="c" format="2">
  <advance width="1053.0"/>
  <unicode hex="0063"/>
  <anchor x="579.0" y="0.0" name="bottom"/>
  <anchor x="529.0" y="1119.0" name="top"/>
  <outline>
    <contour>
      <point x="636.0" y="-20.0" type="curve" smooth="yes"/>
      <point x="769.0" y="-20.0"/>
      <point x="881.0" y="8.0"/>
      <point x="972.0" y="65.0" type="curve"/>
      <point x="972.0" y="311.0" type="line"/>
      <point x="873.0" y="253.0"/>
      <point x="769.0" y="225.0"/>
      <point x="659.0" y="225.0" type="curve" smooth="yes"/>
      <point x="586.0" y="225.0"/>
      <point x="528.0" y="247.0"/>
      <point x="486.0" y="289.0" type="curve" smooth="yes"/>
      <point x="430.0" y="344.0"/>
      <point x="401.0" y="434.0"/>
      <point x="401.0" y="556.0" type="curve" smooth="yes"/>
      <point x="401.0" y="700.0"/>
      <point x="441.0" y="803.0"/>
      <point x="517.0" y="856.0" type="curve" smooth="yes"/>
      <point x="556.0" y="883.0"/>
      <point x="605.0" y="898.0"/>
      <point x="662.0" y="898.0" type="curve" smooth="yes"/>
      <point x="744.0" y="898.0"/>
      <point x="820.0" y="874.0"/>
      <point x="915.0" y="836.0" type="curve"/>
      <point x="1003.0" y="1065.0" type="line"/>
      <point x="896.0" y="1114.0"/>
      <point x="783.0" y="1139.0"/>
      <point x="663.0" y="1139.0" type="curve" smooth="yes"/>
      <point x="301.0" y="1139.0"/>
      <point x="92.0" y="925.0"/>
      <point x="92.0" y="554.0" type="curve" smooth="yes"/>
      <point x="92.0" y="186.0"/>
      <point x="283.0" y="-20.0"/>
    </contour>
  </outline>
</glyph>
<glyph name="d" format="2">
  <advance width="1296.0"/>
  <unicode hex="0064"/>
  <anchor x="640.0" y="0.0" name="bottom"/>
  <anchor x="640.0" y="544.0" name="center"/>
  <anchor x="640.0" y="1087.0" name="top"/>
  <anchor x="1572.0" y="1556.0" name="topright"/>
  <outline>
    <contour>
      <point x="512.0" y="-20.0" type="curve" smooth="yes"/>
      <point x="651.0" y="-20.0"/>
      <point x="757.0" y="36.0"/>
      <point x="829.0" y="150.0" type="curve"/>
      <point x="842.0" y="150.0" type="line"/>
      <point x="908.0" y="0.0" type="line"/>
      <point x="1134.0" y="0.0" type="line"/>
      <point x="1134.0" y="1556.0" type="line"/>
      <point x="829.0" y="1556.0" type="line"/>
      <point x="829.0" y="1227.0" type="line" smooth="yes"/>
      <point x="829.0" y="1140.0"/>
      <point x="834.0" y="1054.0"/>
      <point x="844.0" y="966.0" type="curve"/>
      <point x="837.0" y="966.0" type="line"/>
      <point x="754.0" y="1092.0"/>
      <point x="657.0" y="1139.0"/>
      <point x="521.0" y="1139.0" type="curve" smooth="yes"/>
      <point x="250.0" y="1139.0"/>
      <point x="92.0" y="924.0"/>
      <point x="92.0" y="554.0" type="curve" smooth="yes"/>
      <point x="92.0" y="228.0"/>
      <point x="227.0" y="-20.0"/>
    </contour>
    <contour>
      <point x="624.0" y="223.0" type="curve" smooth="yes"/>
      <point x="477.0" y="223.0"/>
      <point x="400.0" y="335.0"/>
      <point x="400.0" y="550.0" type="curve" smooth="yes"/>
      <point x="400.0" y="771.0"/>
      <point x="477.0" y="892.0"/>
      <point x="620.0" y="892.0" type="curve" smooth="yes"/>
      <point x="782.0" y="892.0"/>
      <point x="852.0" y="797.0"/>
      <point x="852.0" y="556.0" type="curve" smooth="yes"/>
      <point x="852.0" y="529.0" type="line" smooth="yes"/>
      <point x="849.0" y="316.0"/>
      <point x="784.0" y="223.0"/>
    </contour>
  </outline>
</glyph>
<glyph name="e" format="2">
  <advance width="1210.0"/>
  <unicode hex="0065"/>
  <anchor x="608.0" y="0.0" name="bottom"/>
  <anchor x="828.0" y="21.0" name="ogonek"/>
  <anchor x="608.0" y="1119.0" name="top"/>
  <outline>
    <contour>
      <point x="660.0" y="-20.0" type="curve" smooth="yes"/>
      <point x="824.0" y="-20.0"/>
      <point x="936.0" y="-1.0"/>
      <point x="1059.0" y="59.0" type="curve"/>
      <point x="1059.0" y="282.0" type="line"/>
      <point x="921.0" y="221.0"/>
      <point x="826.0" y="202.0"/>
      <point x="693.0" y="202.0" type="curve" smooth="yes"/>
      <point x="510.0" y="202.0"/>
      <point x="404.0" y="303.0"/>
      <point x="400.0" y="482.0" type="curve"/>
      <point x="1124.0" y="482.0" type="line"/>
      <point x="1124.0" y="627.0" type="line" smooth="yes"/>
      <point x="1124.0" y="954.0"/>
      <point x="941.0" y="1139.0"/>
      <point x="625.0" y="1139.0" type="curve" smooth="yes"/>
      <point x="287.0" y="1139.0"/>
      <point x="92.0" y="924.0"/>
      <point x="92.0" y="552.0" type="curve" smooth="yes"/>
      <point x="92.0" y="187.0"/>
      <point x="301.0" y="-20.0"/>
    </contour>
    <contour>
      <point x="407.0" y="680.0" type="line"/>
      <point x="421.0" y="845.0"/>
      <point x="508.0" y="927.0"/>
      <point x="635.0" y="927.0" type="curve" smooth="yes"/>
      <point x="763.0" y="927.0"/>
      <point x="842.0" y="832.0"/>
      <point x="844.0" y="680.0" type="curve"/>
    </contour>
  </outline>
</glyph>
<glyph name="f" format="2">
  <advance width="793.0"/>
  <unicode hex="0066"/>
  <anchor x="389.0" y="0.0" name="bottom"/>
  <anchor x="389.0" y="1119.0" name="top"/>
  <outline>
    <contour>
      <point x="207.0" y="0.0" type="line"/>
      <point x="510.0" y="0.0" type="line"/>
      <point x="510.0" y="888.0" type="line"/>
      <point x="756.0" y="888.0" type="line"/>
      <point x="756.0" y="1119.0" type="line"/>
      <point x="510.0" y="1119.0" type="line"/>
      <point x="510.0" y="1170.0" type="line" smooth="yes"/>
      <point x="510.0" y="1246.0"/>
      <point x="525.0" y="1294.0"/>
      <point x="558.0" y="1319.0" type="curve" smooth="yes"/>
      <point x="577.0" y="1333.0"/>
      <point x="602.0" y="1340.0"/>
      <point x="634.0" y="1340.0" type="curve" smooth="yes"/>
      <point x="682.0" y="1340.0"/>
      <point x="731.0" y="1332.0"/>
      <point x="781.0" y="1318.0" type="curve"/>
      <point x="846.0" y="1521.0" type="line"/>
      <point x="742.0" y="1554.0"/>
      <point x="667.0" y="1567.0"/>
      <point x="576.0" y="1567.0" type="curve" smooth="yes"/>
      <point x="321.0" y="1567.0"/>
      <point x="212.0" y="1446.0"/>
      <point x="212.0" y="1157.0" type="curve" smooth="yes"/>
      <point x="212.0" y="1118.0" type="line"/>
      <point x="41.0" y="1040.0" type="line"/>
      <point x="41.0" y="888.0" type="line"/>
      <point x="207.0" y="888.0" type="line"/>
    </contour>
  </outline>
</glyph>
<glyph name="g" format="2">
	<unicode hex="0067"/>
	<advance width="1157"/>
	<outline>
		<contour>
			<point x="749" y="1119" type="line"/>
			<point x="704" y="1129"/>
			<point x="596" y="1139"/>
			<point x="546" y="1139" type="curve" smooth="yes"/>
			<point x="257" y="1139"/>
			<point x="91" y="997"/>
			<point x="91" y="759" type="curve" smooth="yes"/>
			<point x="91" y="605"/>
			<point x="163" y="490"/>
			<point x="283" y="438" type="curve"/>
			<point x="169" y="369"/>
			<point x="137" y="319"/>
			<point x="137" y="248" type="curve" smooth="yes"/>
			<point x="137" y="183"/>
			<point x="191" y="114"/>
			<point x="259" y="86" type="curve"/>
			<point x="94" y="48"/>
			<point x="6" y="-45"/>
			<point x="6" y="-184" type="curve" smooth="yes"/>
			<point x="6" y="-381"/>
			<point x="179" y="-492"/>
			<point x="486" y="-492" type="curve" smooth="yes"/>
			<point x="887" y="-492"/>
			<point x="1117" y="-340"/>
			<point x="1117" y="-78" type="curve" smooth="yes"/>
			<point x="1117" y="127"/>
			<point x="990" y="231"/>
			<point x="741" y="231" type="curve" smooth="yes"/>
			<point x="553" y="231" type="line" smooth="yes"/>
			<point x="464" y="231"/>
			<point x="382" y="250"/>
			<point x="382" y="303" type="curve" smooth="yes"/>
			<point x="382" y="333"/>
			<point x="398" y="362"/>
			<point x="428" y="386" type="curve"/>
			<point x="452" y="381"/>
			<point x="485" y="379"/>
			<point x="529" y="379" type="curve" smooth="yes"/>
			<point x="838" y="379"/>
			<point x="1003" y="520"/>
			<point x="1003" y="754" type="curve" smooth="yes"/>
			<point x="1003" y="816"/>
			<point x="987" y="872"/>
			<point x="954" y="922" type="curve"/>
			<point x="1130" y="966" type="line"/>
			<point x="1130" y="1119" type="line"/>
		</contour>
		<contour>
			<point x="268" y="-154" type="curve" smooth="yes"/>
			<point x="268" y="-67"/>
			<point x="344" y="-12"/>
			<point x="463" y="-12" type="curve" smooth="yes"/>
			<point x="623" y="-12" type="line" smooth="yes"/>
			<point x="753" y="-12"/>
			<point x="849" y="-36"/>
			<point x="849" y="-125" type="curve" smooth="yes"/>
			<point x="849" y="-245"/>
			<point x="686" y="-296"/>
			<point x="502" y="-296" type="curve" smooth="yes"/>
			<point x="354" y="-296"/>
			<point x="268" y="-243"/>
		</contour>
		<contour>
			<point x="379" y="758" type="curve" smooth="yes"/>
			<point x="379" y="892"/>
			<point x="439" y="964"/>
			<point x="547" y="964" type="curve" smooth="yes"/>
			<point x="656" y="964"/>
			<point x="714" y="895"/>
			<point x="714" y="758" type="curve" smooth="yes"/>
			<point x="714" y="625"/>
			<point x="655" y="557"/>
			<point x="548" y="557" type="curve" smooth="yes"/>
			<point x="440" y="557"/>
			<point x="379" y="626"/>
		</contour>
	</outline>
	<anchor name="bottom" x="574" y="0"/>
	<anchor name="top" x="574" y="1119"/>
</glyph>
<glyph name="h" format="2">
  <advance width="1346.0"/>
  <unicode hex="0068"/>
  <anchor x="672.0" y="0.0" name="bottom"/>
  <anchor x="672.0" y="544.0" name="center"/>
  <anchor x="672.0" y="1483.0" name="top"/>
  <outline>
    <contour>
      <point x="160.0" y="0.0" type="line"/>
      <point x="463.0" y="0.0" type="line"/>
      <point x="463.0" y="529.0" type="line" smooth="yes"/>
      <point x="463.0" y="686.0"/>
      <point x="490.0" y="787.0"/>
      <point x="549.0" y="843.0" type="curve" smooth="yes"/>
      <point x="588.0" y="880.0"/>
      <point x="640.0" y="898.0"/>
      <point x="707.0" y="898.0" type="curve" smooth="yes"/>
      <point x="828.0" y="898.0"/>
      <point x="887.0" y="816.0"/>
      <point x="887.0" y="644.0" type="curve" smooth="yes"/>
      <point x="887.0" y="0.0" type="line"/>
      <point x="1191.0" y="0.0" type="line"/>
      <point x="1191.0" y="729.0" type="line" smooth="yes"/>
      <point x="1191.0" y="993.0"/>
      <point x="1051.0" y="1139.0"/>
      <point x="799.0" y="1139.0" type="curve" smooth="yes"/>
      <point x="649.0" y="1139.0"/>
      <point x="542.0" y="1093.0"/>
      <point x="465.0" y="972.0" type="curve"/>
      <point x="451.0" y="972.0" type="line"/>
      <point x="459.0" y="1075.0"/>
      <point x="463.0" y="1169.0"/>
      <point x="463.0" y="1253.0" type="curve" smooth="yes"/>
      <point x="463.0" y="1556.0" type="line"/>
      <point x="160.0" y="1556.0" type="line"/>
    </contour>
  </outline>
</glyph>
<glyph name="k" format="2">
	<unicode hex="006B"/>
	<advance width="1270"/>
	<outline>
		<contour>
			<point x="160" y="0" type="line"/>
			<point x="465" y="0" type="line"/>
			<point x="465" y="332" type="line"/>
			<point x="607" y="449" type="line"/>
			<point x="905" y="0" type="line"/>
			<point x="1253" y="0" type="line"/>
			<point x="821" y="643" type="line"/>
			<point x="1225" y="1119" type="line"/>
			<point x="883" y="1119" type="line"/>
			<point x="576" y="753" type="line" smooth="yes"/>
			<point x="541" y="710"/>
			<point x="500" y="655"/>
			<point x="454" y="589" type="curve"/>
			<point x="447" y="589" type="line"/>
			<point x="459" y="689"/>
			<point x="465" y="790"/>
			<point x="465" y="894" type="curve" smooth="yes"/>
			<point x="465" y="1556" type="line"/>
			<point x="160" y="1556" type="line"/>
		</contour>
	</outline>
	<anchor name="bottom" x="632" y="0"/>
	<anchor name="top" x="632" y="1119"/>
</glyph>
<glyph name="l" format="2">
	<unicode hex="006C"/>
	<advance width="625"/>
	<outline>
		<contour>
			<point x="463" y="1556" type="line"/>
			<point x="160" y="1556" type="line"/>
			<point x="160" y="0" type="line"/>
			<point x="463" y="0" type="line"/>
		</contour>
	</outline>
	<anchor name="bottom" x="295" y="0"/>
	<anchor name="center" x="313" y="544"/>
	<anchor name="top" x="358" y="1556"/>
	<anchor name="topright" x="902" y="1556"/>
</glyph>
<glyph name="m" format="2">
  <advance width="2011.0"/>
  <unicode hex="006D"/>
  <anchor x="999.0" y="0.0" name="bottom"/>
  <anchor x="999.0" y="1119.0" name="top"/>
  <outline>
    <contour>
      <point x="160.0" y="0.0" type="line"/>
      <point x="463.0" y="0.0" type="line"/>
      <point x="463.0" y="527.0" type="line" smooth="yes"/>
      <point x="463.0" y="657.0"/>
      <point x="479.0" y="750.0"/>
      <point x="515.0" y="809.0" type="curve" smooth="yes"/>
      <point x="551.0" y="870.0"/>
      <point x="607.0" y="898.0"/>
      <point x="685.0" y="898.0" type="curve" smooth="yes"/>
      <point x="798.0" y="898.0"/>
      <point x="849.0" y="816.0"/>
      <point x="849.0" y="654.0" type="curve" smooth="yes"/>
      <point x="849.0" y="0.0" type="line"/>
      <point x="1154.0" y="0.0" type="line"/>
      <point x="1154.0" y="561.0" type="line" smooth="yes"/>
      <point x="1154.0" y="676.0"/>
      <point x="1171.0" y="760.0"/>
      <point x="1206.0" y="815.0" type="curve" smooth="yes"/>
      <point x="1242.0" y="871.0"/>
      <point x="1298.0" y="898.0"/>
      <point x="1374.0" y="898.0" type="curve" smooth="yes"/>
      <point x="1489.0" y="898.0"/>
      <point x="1541.0" y="816.0"/>
      <point x="1541.0" y="645.0" type="curve" smooth="yes"/>
      <point x="1541.0" y="0.0" type="line"/>
      <point x="1844.0" y="0.0" type="line"/>
      <point x="1844.0" y="729.0" type="line" smooth="yes"/>
      <point x="1844.0" y="1008.0"/>
      <point x="1721.0" y="1139.0"/>
      <point x="1462.0" y="1139.0" type="curve" smooth="yes"/>
      <point x="1321.0" y="1139.0"/>
      <point x="1199.0" y="1080.0"/>
      <point x="1133.0" y="977.0" type="curve"/>
      <point x="1110.0" y="977.0" type="line"/>
      <point x="1049.0" y="1085.0"/>
      <point x="936.0" y="1139.0"/>
      <point x="770.0" y="1139.0" type="curve" smooth="yes"/>
      <point x="629.0" y="1139.0"/>
      <point x="510.0" y="1082.0"/>
      <point x="450.0" y="976.0" type="curve"/>
      <point x="432.0" y="976.0" type="line"/>
      <point x="391.0" y="1119.0" type="line"/>
      <point x="160.0" y="1119.0" type="line"/>
    </contour>
  </outline>
</glyph>
<glyph name="n" format="2">
	<unicode hex="006E"/>
	<advance width="1346"/>
	<outline>
		<contour>
			<point x="160" y="0" type="line"/>
			<point x="463" y="0" type="line"/>
			<point x="463" y="527" type="line" smooth="yes"/>
			<point x="463" y="670"/>
			<point x="484" y="766"/>
			<point x="528" y="823" type="curve" smooth="yes"/>
			<point x="567" y="875"/>
			<point x="626" y="898"/>
			<point x="707" y="898" type="curve" smooth="yes"/>
			<point x="832" y="898"/>
			<point x="888" y="815"/>
			<point x="888" y="644" type="curve" smooth="yes"/>
			<point x="888" y="0" type="line"/>
			<point x="1191" y="0" type="line"/>
			<point x="1191" y="729" type="line" smooth="yes"/>
			<point x="1191" y="993"/>
			<point x="1052" y="1139"/>
			<point x="802" y="1139" type="curve" smooth="yes"/>
			<point x="641" y="1139"/>
			<point x="518" y="1085"/>
			<point x="450" y="976" type="curve"/>
			<point x="432" y="976" type="line"/>
			<point x="392" y="1119" type="line"/>
			<point x="160" y="1119" type="line"/>
		</contour>
	</outline>
	<anchor name="bottom" x="672" y="0"/>
	<anchor name="top" x="696" y="1119"/>
</glyph>
<glyph name="o" format="2">
	<unicode hex="006F"/>
	<advance width="1268"/>
	<outline>
		<contour>
			<point x="629" y="-20" type="curve" smooth="yes"/>
			<point x="971" y="-20"/>
			<point x="1172" y="196"/>
			<point x="1172" y="562" type="curve" smooth="yes"/>
			<point x="1172" y="914"/>
			<point x="967" y="1139"/>
			<point x="635" y="1139" type="curve" smooth="yes"/>
			<point x="293" y="1139"/>
			<point x="92" y="927"/>
			<point x="92" y="562" type="curve" smooth="yes"/>
			<point x="92" y="211"/>
			<point x="296" y="-20"/>
		</contour>
		<contour>
			<point x="633" y="210" type="curve" smooth="yes"/>
			<point x="553" y="210"/>
			<point x="494" y="242"/>
			<point x="457" y="305" type="curve" smooth="yes"/>
			<point x="419" y="365"/>
			<point x="401" y="451"/>
			<point x="401" y="562" type="curve" smooth="yes"/>
			<point x="401" y="692"/>
			<point x="426" y="788"/>
			<point x="476" y="845" type="curve" smooth="yes"/>
			<point x="514" y="887"/>
			<point x="565" y="909"/>
			<point x="631" y="909" type="curve" smooth="yes"/>
			<point x="703" y="909"/>
			<point x="758" y="884"/>
			<point x="795" y="836" type="curve" smooth="yes"/>
			<point x="841" y="778"/>
			<point x="862" y="686"/>
			<point x="862" y="562" type="curve" smooth="yes"/>
			<point x="862" y="442"/>
			<point x="843" y="351"/>
			<point x="801" y="292" type="curve" smooth="yes"/>
			<point x="764" y="238"/>
			<point x="707" y="210"/>
		</contour>
	</outline>
	<anchor name="bottom" x="633" y="0"/>
	<anchor name="center" x="633" y="560"/>
	<anchor name="ogonek" x="1142" y="10"/>
	<anchor name="top" x="633" y="1119"/>
	<anchor name="topright" x="1249" y="1119"/>
</glyph>
<glyph name="q" format="2">
  <advance width="1296.0"/>
  <unicode hex="0071"/>
  <anchor x="640.0" y="0.0" name="bottom"/>
  <anchor x="640.0" y="1119.0" name="top"/>
  <outline>
    <contour>
      <point x="831.0" y="-492.0" type="line"/>
      <point x="1134.0" y="-492.0" type="line"/>
      <point x="1134.0" y="1119.0" type="line"/>
      <point x="872.0" y="1119.0" type="line"/>
      <point x="847.0" y="975.0" type="line"/>
      <point x="839.0" y="975.0" type="line"/>
      <point x="768.0" y="1085.0"/>
      <point x="660.0" y="1139.0"/>
      <point x="517.0" y="1139.0" type="curve" smooth="yes"/>
      <point x="251.0" y="1139.0"/>
      <point x="92.0" y="923.0"/>
      <point x="92.0" y="555.0" type="curve" smooth="yes"/>
      <point x="92.0" y="193.0"/>
      <point x="248.0" y="-20.0"/>
      <point x="511.0" y="-20.0" type="curve" smooth="yes"/>
      <point x="656.0" y="-20.0"/>
      <point x="763.0" y="37.0"/>
      <point x="831.0" y="151.0" type="curve"/>
      <point x="841.0" y="151.0" type="line"/>
      <point x="835.0" y="64.0"/>
      <point x="831.0" y="1.0"/>
      <point x="831.0" y="-40.0" type="curve" smooth="yes"/>
    </contour>
    <contour>
      <point x="623.0" y="218.0" type="curve" smooth="yes"/>
      <point x="475.0" y="218.0"/>
      <point x="401.0" y="321.0"/>
      <point x="401.0" y="550.0" type="curve" smooth="yes"/>
      <point x="401.0" y="782.0"/>
      <point x="476.0" y="900.0"/>
      <point x="622.0" y="900.0" type="curve" smooth="yes"/>
      <point x="702.0" y="900.0"/>
      <point x="759.0" y="876.0"/>
      <point x="796.0" y="822.0" type="curve" smooth="yes"/>
      <point x="835.0" y="769.0"/>
      <point x="852.0" y="686.0"/>
      <point x="852.0" y="566.0" type="curve" smooth="yes"/>
      <point x="852.0" y="530.0" type="line" smooth="yes"/>
      <point x="852.0" y="442.0"/>
      <point x="842.0" y="376.0"/>
      <point x="821.0" y="328.0" type="curve" smooth="yes"/>
      <point x="786.0" y="251.0"/>
      <point x="723.0" y="218.0"/>
    </contour>
  </outline>
</glyph>
<glyph name="r" format="2">
  <advance width="930.0"/>
  <unicode hex="0072"/>
  <anchor x="296.0" y="0.0" name="bottom"/>
  <anchor x="488.0" y="1119.0" name="top"/>
  <outline>
    <contour>
      <point x="160.0" y="0.0" type="line"/>
      <point x="463.0" y="0.0" type="line"/>
      <point x="463.0" y="570.0" type="line" smooth="yes"/>
      <point x="463.0" y="639.0"/>
      <point x="478.0" y="698.0"/>
      <point x="506.0" y="744.0" type="curve" smooth="yes"/>
      <point x="549.0" y="814.0"/>
      <point x="625.0" y="854.0"/>
      <point x="729.0" y="854.0" type="curve" smooth="yes"/>
      <point x="784.0" y="854.0"/>
      <point x="829.0" y="849.0"/>
      <point x="865.0" y="840.0" type="curve"/>
      <point x="895.0" y="1127.0" type="line"/>
      <point x="845.0" y="1135.0"/>
      <point x="808.0" y="1139.0"/>
      <point x="767.0" y="1139.0" type="curve" smooth="yes"/>
      <point x="641.0" y="1139.0"/>
      <point x="522.0" y="1066.0"/>
      <point x="450.0" y="934.0" type="curve"/>
      <point x="435.0" y="934.0" type="line"/>
      <point x="389.0" y="1119.0" type="line"/>
      <point x="160.0" y="1119.0" type="line"/>
    </contour>
  </outline>
</glyph>
<glyph name="t" format="2">
  <advance width="889.0"/>
  <unicode hex="0074"/>
  <anchor x="441.0" y="0.0" name="bottom"/>
  <anchor x="435.0" y="560.0" name="center"/>
  <anchor x="435.0" y="1119.0" name="top"/>
  <anchor x="971.0" y="1570.0" name="topright"/>
  <outline>
    <contour>
      <point x="535.0" y="-20.0" type="curve" smooth="yes"/>
      <point x="643.0" y="-20.0"/>
      <point x="719.0" y="-5.0"/>
      <point x="807.0" y="31.0" type="curve"/>
      <point x="807.0" y="255.0" type="line"/>
      <point x="742.0" y="233.0"/>
      <point x="682.0" y="223.0"/>
      <point x="626.0" y="223.0" type="curve" smooth="yes"/>
      <point x="538.0" y="223.0"/>
      <point x="497.0" y="272.0"/>
      <point x="497.0" y="373.0" type="curve" smooth="yes"/>
      <point x="497.0" y="888.0" type="line"/>
      <point x="787.0" y="888.0" type="line"/>
      <point x="787.0" y="1119.0" type="line"/>
      <point x="497.0" y="1119.0" type="line"/>
      <point x="497.0" y="1357.0" type="line"/>
      <point x="302.0" y="1357.0" type="line"/>
      <point x="217.0" y="1117.0" type="line"/>
      <point x="47.0" y="1017.0" type="line"/>
      <point x="47.0" y="888.0" type="line"/>
      <point x="191.0" y="888.0" type="line"/>
      <point x="191.0" y="351.0" type="line" smooth="yes"/>
      <point x="191.0" y="98.0"/>
      <point x="293.0" y="-20.0"/>
    </contour>
  </outline>
</glyph>
<glyph name="u" format="2">
	<unicode hex="0075"/>
	<advance width="1346"/>
	<outline>
		<contour>
			<point x="542" y="-20" type="curve" smooth="yes"/>
			<point x="706" y="-20"/>
			<point x="828" y="37"/>
			<point x="894" y="144" type="curve"/>
			<point x="912" y="144" type="line"/>
			<point x="952" y="0" type="line"/>
			<point x="1184" y="0" type="line"/>
			<point x="1184" y="1119" type="line"/>
			<point x="881" y="1119" type="line"/>
			<point x="881" y="592" type="line" smooth="yes"/>
			<point x="881" y="457"/>
			<point x="863" y="364"/>
			<point x="822" y="306" type="curve" smooth="yes"/>
			<point x="782" y="248"/>
			<point x="721" y="223"/>
			<point x="637" y="223" type="curve" smooth="yes"/>
			<point x="511" y="223"/>
			<point x="457" y="305"/>
			<point x="457" y="475" type="curve" smooth="yes"/>
			<point x="457" y="1119" type="line"/>
			<point x="154" y="1119" type="line"/>
			<point x="154" y="390" type="line" smooth="yes"/>
			<point x="154" y="125"/>
			<point x="294" y="-20"/>
		</contour>
	</outline>
	<anchor name="bottom" x="671" y="0"/>
	<anchor name="ogonek" x="1153" y="10"/>
	<anchor name="top" x="671" y="1119"/>
	<anchor name="topright" x="1313" y="1119"/>
</glyph>
<glyph name="x" format="2">
  <advance width="1184.0"/>
  <unicode hex="0078"/>
  <anchor x="590.0" y="0.0" name="bottom"/>
  <anchor x="1062.0" y="0.0" name="cyrillicbighook"/>
  <anchor x="590.0" y="1119.0" name="top"/>
  <outline>
    <contour>
      <point x="10.0" y="0.0" type="line"/>
      <point x="354.0" y="0.0" type="line"/>
      <point x="590.0" y="386.0" type="line"/>
      <point x="826.0" y="0.0" type="line"/>
      <point x="1171.0" y="0.0" type="line"/>
      <point x="793.0" y="572.0" type="line"/>
      <point x="1154.0" y="1119.0" type="line"/>
      <point x="809.0" y="1119.0" type="line"/>
      <point x="590.0" y="759.0" type="line"/>
      <point x="372.0" y="1119.0" type="line"/>
      <point x="27.0" y="1119.0" type="line"/>
      <point x="383.0" y="572.0" type="line"/>
    </contour>
  </outline>
</glyph>
<glyph name="y" format="2">
  <advance width="1165.0"/>
  <unicode hex="0079"/>
  <anchor x="889.0" y="0.0" name="bottom"/>
  <anchor x="579.0" y="1119.0" name="top"/>
  <outline>
    <contour>
      <point x="225.0" y="-492.0" type="curve" smooth="yes"/>
      <point x="467.0" y="-492.0"/>
      <point x="594.0" y="-379.0"/>
      <point x="698.0" y="-103.0" type="curve" smooth="yes"/>
      <point x="1157.0" y="1119.0" type="line"/>
      <point x="847.0" y="1119.0" type="line"/>
      <point x="641.0" y="482.0" type="line" smooth="yes"/>
      <point x="608.0" y="389.0"/>
      <point x="599.0" y="352.0"/>
      <point x="583.0" y="281.0" type="curve"/>
      <point x="575.0" y="281.0" type="line"/>
      <point x="567.0" y="335.0"/>
      <point x="544.0" y="416.0"/>
      <point x="522.0" y="481.0" type="curve" smooth="yes"/>
      <point x="319.0" y="1119.0" type="line"/>
      <point x="0.0" y="1119.0" type="line"/>
      <point x="437.0" y="11.0" type="line"/>
      <point x="399.0" y="-88.0"/>
      <point x="374.0" y="-137.0"/>
      <point x="355.0" y="-163.0" type="curve" smooth="yes"/>
      <point x="315.0" y="-217.0"/>
      <point x="266.0" y="-246.0"/>
      <point x="193.0" y="-246.0" type="curve" smooth="yes"/>
      <point x="152.0" y="-246.0"/>
      <point x="110.0" y="-242.0"/>
      <point x="74.0" y="-233.0" type="curve"/>
      <point x="74.0" y="-474.0" type="line"/>
      <point x="126.0" y="-486.0"/>
      <point x="176.0" y="-492.0"/>
    </contour>
  </outline>
</glyph>
<glyph name="z" format="2">
  <advance width="999.0"/>
  <unicode hex="007A"/>
  <anchor x="501.0" y="0.0" name="bottom"/>
  <anchor x="501.0" y="1119.0" name="top"/>
  <outline>
    <contour>
      <point x="944.0" y="236.0" type="line"/>
      <point x="419.0" y="236.0" type="line"/>
      <point x="928.0" y="931.0" type="line"/>
      <point x="928.0" y="1119.0" type="line"/>
      <point x="88.0" y="1119.0" type="line"/>
      <point x="88.0" y="883.0" type="line"/>
      <point x="577.0" y="883.0" type="line"/>
      <point x="55.0" y="175.0" type="line"/>
      <point x="55.0" y="0.0" type="line"/>
      <point x="944.0" y="0.0" type="line"/>
    </contour>
  </outline>
</glyph>
<glyph name="braceleft" format="2">
  <advance width="807.0"/>
  <unicode hex="007B"/>
  <note>
braceleft
</note>
  <outline>
    <contour>
      <point x="740.0" y="-338.0" type="curve"/>
      <point x="740.0" y="-116.0" type="line"/>
      <point x="690.0" y="-114.0"/>
      <point x="651.0" y="-109.0"/>
      <point x="626.0" y="-102.0" type="curve" smooth="yes"/>
      <point x="562.0" y="-85.0"/>
      <point x="528.0" y="-47.0"/>
      <point x="528.0" y="21.0" type="curve" smooth="yes"/>
      <point x="528.0" y="310.0" type="line" smooth="yes"/>
      <point x="528.0" y="460.0"/>
      <point x="463.0" y="537.0"/>
      <point x="305.0" y="564.0" type="curve"/>
      <point x="305.0" y="574.0" type="line"/>
      <point x="462.0" y="600.0"/>
      <point x="528.0" y="677.0"/>
      <point x="528.0" y="834.0" type="curve" smooth="yes"/>
      <point x="528.0" y="1116.0" type="line" smooth="yes"/>
      <point x="528.0" y="1181.0"/>
      <point x="559.0" y="1219.0"/>
      <point x="615.0" y="1238.0" type="curve" smooth="yes"/>
      <point x="641.0" y="1247.0"/>
      <point x="682.0" y="1252.0"/>
      <point x="740.0" y="1254.0" type="curve"/>
      <point x="740.0" y="1477.0" type="line"/>
      <point x="616.0" y="1476.0"/>
      <point x="519.0" y="1462.0"/>
      <point x="450.0" y="1435.0" type="curve" smooth="yes"/>
      <point x="325.0" y="1390.0"/>
      <point x="272.0" y="1309.0"/>
      <point x="272.0" y="1147.0" type="curve" smooth="yes"/>
      <point x="272.0" y="864.0" type="line" smooth="yes"/>
      <point x="272.0" y="826.0"/>
      <point x="263.0" y="793.0"/>
      <point x="244.0" y="767.0" type="curve" smooth="yes"/>
      <point x="208.0" y="714.0"/>
      <point x="135.0" y="686.0"/>
      <point x="31.0" y="686.0" type="curve"/>
      <point x="31.0" y="451.0" type="line"/>
      <point x="115.0" y="450.0"/>
      <point x="180.0" y="430.0"/>
      <point x="221.0" y="390.0" type="curve" smooth="yes"/>
      <point x="254.0" y="361.0"/>
      <point x="272.0" y="320.0"/>
      <point x="272.0" y="269.0" type="curve" smooth="yes"/>
      <point x="272.0" y="-5.0" type="line" smooth="yes"/>
      <point x="272.0" y="-96.0"/>
      <point x="288.0" y="-165.0"/>
      <point x="322.0" y="-212.0" type="curve" smooth="yes"/>
      <point x="383.0" y="-299.0"/>
      <point x="509.0" y="-338.0"/>
    </contour>
  </outline>
</glyph>
<glyph name="bar" format="2">
	<unicode hex="007C"/>
	<advance width="1128"/>
	<outline>
		<contour>
			<point x="455" y="-464" type="line"/>
			<point x="670" y="-464" type="line"/>
			<point x="670" y="1558" type="line"/>
			<point x="455" y="1558" type="line"/>
		</contour>
	</outline>
	<note>
		bar
	</note>
</glyph>
<glyph name="braceright" format="2">
  <advance width="807.0"/>
  <unicode hex="007D"/>
  <note>
braceright
</note>
  <outline>
    <contour>
      <point x="82.0" y="-338.0" type="line"/>
      <point x="209.0" y="-338.0"/>
      <point x="306.0" y="-324.0"/>
      <point x="374.0" y="-297.0" type="curve" smooth="yes"/>
      <point x="498.0" y="-252.0"/>
      <point x="550.0" y="-171.0"/>
      <point x="550.0" y="-5.0" type="curve" smooth="yes"/>
      <point x="550.0" y="269.0" type="line" smooth="yes"/>
      <point x="550.0" y="314.0"/>
      <point x="564.0" y="352.0"/>
      <point x="589.0" y="380.0" type="curve" smooth="yes"/>
      <point x="630.0" y="426.0"/>
      <point x="698.0" y="450.0"/>
      <point x="790.0" y="451.0" type="curve"/>
      <point x="790.0" y="686.0" type="line"/>
      <point x="689.0" y="686.0"/>
      <point x="619.0" y="712.0"/>
      <point x="581.0" y="763.0" type="curve" smooth="yes"/>
      <point x="560.0" y="790.0"/>
      <point x="550.0" y="824.0"/>
      <point x="550.0" y="864.0" type="curve" smooth="yes"/>
      <point x="550.0" y="1147.0" type="line" smooth="yes"/>
      <point x="550.0" y="1245.0"/>
      <point x="527.0" y="1317.0"/>
      <point x="483.0" y="1365.0" type="curve" smooth="yes"/>
      <point x="419.0" y="1442.0"/>
      <point x="297.0" y="1477.0"/>
      <point x="82.0" y="1477.0" type="curve"/>
      <point x="82.0" y="1254.0" type="line"/>
      <point x="141.0" y="1252.0"/>
      <point x="182.0" y="1247.0"/>
      <point x="208.0" y="1238.0" type="curve" smooth="yes"/>
      <point x="262.0" y="1219.0"/>
      <point x="293.0" y="1181.0"/>
      <point x="293.0" y="1116.0" type="curve" smooth="yes"/>
      <point x="293.0" y="834.0" type="line" smooth="yes"/>
      <point x="293.0" y="676.0"/>
      <point x="360.0" y="599.0"/>
      <point x="517.0" y="574.0" type="curve"/>
      <point x="517.0" y="564.0" type="line"/>
      <point x="359.0" y="537.0"/>
      <point x="293.0" y="460.0"/>
      <point x="293.0" y="310.0" type="curve" smooth="yes"/>
      <point x="293.0" y="21.0" type="line" smooth="yes"/>
      <point x="293.0" y="-29.0"/>
      <point x="275.0" y="-63.0"/>
      <point x="238.0" y="-85.0" type="curve" smooth="yes"/>
      <point x="207.0" y="-103.0"/>
      <point x="155.0" y="-114.0"/>
      <point x="82.0" y="-116.0" type="curve"/>
    </contour>
  </outline>
</glyph>
<glyph name="asciitilde" format="2">
  <advance width="1169.0"/>
  <unicode hex="007E"/>
  <note>
asciitilde
</note>
  <outline>
    <contour>
      <point x="88.0" y="556.0" type="line"/>
      <point x="168.0" y="636.0"/>
      <point x="247.0" y="676.0"/>
      <point x="318.0" y="676.0" type="curve" smooth="yes"/>
      <point x="386.0" y="676.0"/>
      <point x="463.0" y="658.0"/>
      <point x="549.0" y="621.0" type="curve" smooth="yes"/>
      <point x="659.0" y="575.0"/>
      <point x="737.0" y="554.0"/>
      <point x="826.0" y="554.0" type="curve" smooth="yes"/>
      <point x="929.0" y="554.0"/>
      <point x="1013.0" y="594.0"/>
      <point x="1081.0" y="665.0" type="curve"/>
      <point x="1081.0" y="890.0" type="line"/>
      <point x="1004.0" y="811.0"/>
      <point x="921.0" y="768.0"/>
      <point x="852.0" y="768.0" type="curve" smooth="yes"/>
      <point x="783.0" y="768.0"/>
      <point x="706.0" y="786.0"/>
      <point x="619.0" y="824.0" type="curve" smooth="yes"/>
      <point x="496.0" y="875.0"/>
      <point x="431.0" y="889.0"/>
      <point x="342.0" y="889.0" type="curve" smooth="yes"/>
      <point x="243.0" y="889.0"/>
      <point x="158.0" y="853.0"/>
      <point x="88.0" y="781.0" type="curve"/>
    </contour>
  </outline>
</glyph>
<glyph name="exclamdown" format="2">
  <advance width="586.0"/>
  <unicode hex="00A1"/>
  <note>
exclamdown
</note>
  <outline>
    <contour>
      <point x="117.0" y="-346.0" type="line"/>
      <point x="455.0" y="-346.0" type="line"/>
      <point x="411.0" y="642.0" type="line"/>
      <point x="162.0" y="642.0" type="line"/>
    </contour>
    <contour>
      <point x="287.0" y="812.0" type="curve" smooth="yes"/>
      <point x="398.0" y="812.0"/>
      <point x="459.0" y="871.0"/>
      <point x="459.0" y="977.0" type="curve" smooth="yes"/>
      <point x="459.0" y="1080.0"/>
      <point x="398.0" y="1139.0"/>
      <point x="287.0" y="1139.0" type="curve" smooth="yes"/>
      <point x="179.0" y="1139.0"/>
      <point x="118.0" y="1081.0"/>
      <point x="118.0" y="977.0" type="curve" smooth="yes"/>
      <point x="118.0" y="870.0"/>
      <point x="178.0" y="812.0"/>
    </contour>
  </outline>
</glyph>
<glyph name="cent" format="2">
	<unicode hex="00A2"/>
	<advance width="1169"/>
	<outline>
		<contour>
			<point x="565" y="-20" type="line"/>
			<point x="735" y="-20" type="line"/>
			<point x="735" y="313" type="line"/>
			<point x="626" y="165" type="line"/>
			<point x="678" y="164" type="line"/>
			<point x="807" y="164"/>
			<point x="920" y="192"/>
			<point x="1018" y="253" type="curve"/>
			<point x="1018" y="498" type="line"/>
			<point x="917" y="439"/>
			<point x="813" y="411"/>
			<point x="707" y="411" type="curve" smooth="yes"/>
			<point x="636" y="411"/>
			<point x="579" y="432"/>
			<point x="538" y="474" type="curve" smooth="yes"/>
			<point x="481" y="528"/>
			<point x="452" y="619"/>
			<point x="452" y="743" type="curve" smooth="yes"/>
			<point x="452" y="877"/>
			<point x="486" y="974"/>
			<point x="549" y="1030" type="curve" smooth="yes"/>
			<point x="590" y="1067"/>
			<point x="643" y="1086"/>
			<point x="708" y="1086" type="curve" smooth="yes"/>
			<point x="790" y="1086"/>
			<point x="865" y="1062"/>
			<point x="958" y="1023" type="curve"/>
			<point x="1048" y="1250" type="line"/>
			<point x="938" y="1301"/>
			<point x="824" y="1327"/>
			<point x="706" y="1327" type="curve"/>
			<point x="629" y="1324" type="line"/>
			<point x="735" y="1180" type="line"/>
			<point x="735" y="1483" type="line"/>
			<point x="565" y="1483" type="line"/>
			<point x="565" y="1315" type="line"/>
			<point x="295" y="1263"/>
			<point x="143" y="1058"/>
			<point x="143" y="741" type="curve" smooth="yes"/>
			<point x="143" y="412"/>
			<point x="293" y="214"/>
			<point x="565" y="173" type="curve"/>
		</contour>
	</outline>
	<note>
		cent
	</note>
</glyph>
<glyph name="currency" format="2">
  <advance width="1169.0"/>
  <unicode hex="00A4"/>
  <note>
currency
</note>
  <outline>
    <contour>
      <point x="910.0" y="255.0" type="line"/>
      <point x="1053.0" y="397.0" type="line"/>
      <point x="926.0" y="523.0" type="line"/>
      <point x="963.0" y="583.0"/>
      <point x="982.0" y="649.0"/>
      <point x="982.0" y="723.0" type="curve" smooth="yes"/>
      <point x="982.0" y="800.0"/>
      <point x="963.0" y="867.0"/>
      <point x="926.0" y="925.0" type="curve"/>
      <point x="1057.0" y="1055.0" type="line"/>
      <point x="910.0" y="1195.0" type="line"/>
      <point x="785.0" y="1063.0" type="line"/>
      <point x="724.0" y="1103.0"/>
      <point x="657.0" y="1122.0"/>
      <point x="583.0" y="1122.0" type="curve" smooth="yes"/>
      <point x="510.0" y="1122.0"/>
      <point x="444.0" y="1103.0"/>
      <point x="385.0" y="1066.0" type="curve"/>
      <point x="257.0" y="1195.0" type="line"/>
      <point x="113.0" y="1049.0" type="line"/>
      <point x="242.0" y="924.0" type="line"/>
      <point x="206.0" y="861.0"/>
      <point x="187.0" y="794.0"/>
      <point x="187.0" y="723.0" type="curve" smooth="yes"/>
      <point x="187.0" y="650.0"/>
      <point x="206.0" y="584.0"/>
      <point x="242.0" y="524.0" type="curve"/>
      <point x="115.0" y="399.0" type="line"/>
      <point x="257.0" y="256.0" type="line"/>
      <point x="382.0" y="379.0" type="line"/>
      <point x="439.0" y="343.0"/>
      <point x="505.0" y="325.0"/>
      <point x="583.0" y="325.0" type="curve" smooth="yes"/>
      <point x="654.0" y="325.0"/>
      <point x="722.0" y="344.0"/>
      <point x="785.0" y="381.0" type="curve"/>
    </contour>
    <contour>
      <point x="583.0" y="530.0" type="curve" smooth="yes"/>
      <point x="478.0" y="530.0"/>
      <point x="391.0" y="616.0"/>
      <point x="391.0" y="723.0" type="curve" smooth="yes"/>
      <point x="391.0" y="830.0"/>
      <point x="477.0" y="918.0"/>
      <point x="583.0" y="918.0" type="curve" smooth="yes"/>
      <point x="690.0" y="918.0"/>
      <point x="779.0" y="831.0"/>
      <point x="779.0" y="723.0" type="curve" smooth="yes"/>
      <point x="779.0" y="614.0"/>
      <point x="691.0" y="530.0"/>
    </contour>
  </outline>
</glyph>
<glyph name="yen" format="2">
  <advance width="1169.0"/>
  <unicode hex="00A5"/>
  <note>
yen
</note>
  <outline>
    <contour>
      <point x="439.0" y="0.0" type="line"/>
      <point x="725.0" y="0.0" type="line"/>
      <point x="725.0" y="241.0" type="line"/>
      <point x="996.0" y="241.0" type="line"/>
      <point x="996.0" y="411.0" type="line"/>
      <point x="725.0" y="411.0" type="line"/>
      <point x="725.0" y="555.0" type="line"/>
      <point x="996.0" y="555.0" type="line"/>
      <point x="996.0" y="727.0" type="line"/>
      <point x="775.0" y="727.0" type="line"/>
      <point x="1159.0" y="1462.0" type="line"/>
      <point x="846.0" y="1462.0" type="line"/>
      <point x="583.0" y="870.0" type="line"/>
      <point x="321.0" y="1462.0" type="line"/>
      <point x="6.0" y="1462.0" type="line"/>
      <point x="382.0" y="727.0" type="line"/>
      <point x="166.0" y="727.0" type="line"/>
      <point x="166.0" y="555.0" type="line"/>
      <point x="439.0" y="555.0" type="line"/>
      <point x="439.0" y="411.0" type="line"/>
      <point x="166.0" y="411.0" type="line"/>
      <point x="166.0" y="241.0" type="line"/>
      <point x="439.0" y="241.0" type="line"/>
    </contour>
  </outline>
</glyph>
<glyph name="brokenbar" format="2">
  <advance width="1128.0"/>
  <unicode hex="00A6"/>
  <note>
brokenbar
</note>
  <outline>
    <contour>
      <point x="455.0" y="741.0" type="line"/>
      <point x="670.0" y="741.0" type="line"/>
      <point x="670.0" y="1558.0" type="line"/>
      <point x="455.0" y="1558.0" type="line"/>
    </contour>
    <contour>
      <point x="455.0" y="-464.0" type="line"/>
      <point x="670.0" y="-464.0" type="line"/>
      <point x="670.0" y="353.0" type="line"/>
      <point x="455.0" y="353.0" type="line"/>
    </contour>
  </outline>
</glyph>
<glyph name="copyright" format="2">
  <advance width="1704.0"/>
  <unicode hex="00A9"/>
  <note>
copyright
</note>
  <outline>
    <contour>
      <point x="885.0" y="267.0" type="curve" smooth="yes"/>
      <point x="974.0" y="267.0"/>
      <point x="1059.0" y="286.0"/>
      <point x="1138.0" y="325.0" type="curve"/>
      <point x="1138.0" y="514.0" type="line"/>
      <point x="1059.0" y="473.0"/>
      <point x="979.0" y="453.0"/>
      <point x="898.0" y="453.0" type="curve" smooth="yes"/>
      <point x="755.0" y="453.0"/>
      <point x="685.0" y="537.0"/>
      <point x="685.0" y="732.0" type="curve" smooth="yes"/>
      <point x="685.0" y="910.0"/>
      <point x="764.0" y="1007.0"/>
      <point x="896.0" y="1007.0" type="curve" smooth="yes"/>
      <point x="963.0" y="1007.0"/>
      <point x="1032.0" y="989.0"/>
      <point x="1101.0" y="955.0" type="curve"/>
      <point x="1176.0" y="1123.0" type="line"/>
      <point x="1082.0" y="1170.0"/>
      <point x="984.0" y="1193.0"/>
      <point x="883.0" y="1193.0" type="curve" smooth="yes"/>
      <point x="614.0" y="1193.0"/>
      <point x="457.0" y="1017.0"/>
      <point x="457.0" y="732.0" type="curve" smooth="yes"/>
      <point x="457.0" y="436.0"/>
      <point x="612.0" y="267.0"/>
    </contour>
    <contour>
      <point x="852.0" y="-20.0" type="curve" smooth="yes"/>
      <point x="990.0" y="-20.0"/>
      <point x="1116.0" y="14.0"/>
      <point x="1232.0" y="82.0" type="curve" smooth="yes"/>
      <point x="1463.0" y="218.0"/>
      <point x="1604.0" y="462.0"/>
      <point x="1604.0" y="731.0" type="curve" smooth="yes"/>
      <point x="1604.0" y="869.0"/>
      <point x="1569.0" y="995.0"/>
      <point x="1501.0" y="1112.0" type="curve" smooth="yes"/>
      <point x="1363.0" y="1345.0"/>
      <point x="1117.0" y="1483.0"/>
      <point x="852.0" y="1483.0" type="curve" smooth="yes"/>
      <point x="717.0" y="1483.0"/>
      <point x="592.0" y="1449.0"/>
      <point x="475.0" y="1382.0" type="curve" smooth="yes"/>
      <point x="242.0" y="1247.0"/>
      <point x="100.0" y="998.0"/>
      <point x="100.0" y="731.0" type="curve" smooth="yes"/>
      <point x="100.0" y="599.0"/>
      <point x="133.0" y="475.0"/>
      <point x="198.0" y="360.0" type="curve" smooth="yes"/>
      <point x="328.0" y="129.0"/>
      <point x="576.0" y="-20.0"/>
    </contour>
    <contour>
      <point x="852.0" y="122.0" type="curve" smooth="yes"/>
      <point x="743.0" y="122.0"/>
      <point x="642.0" y="149.0"/>
      <point x="548.0" y="203.0" type="curve" smooth="yes"/>
      <point x="361.0" y="311.0"/>
      <point x="243.0" y="512.0"/>
      <point x="243.0" y="731.0" type="curve" smooth="yes"/>
      <point x="243.0" y="840.0"/>
      <point x="270.0" y="942.0"/>
      <point x="325.0" y="1036.0" type="curve" smooth="yes"/>
      <point x="434.0" y="1225.0"/>
      <point x="634.0" y="1341.0"/>
      <point x="852.0" y="1341.0" type="curve" smooth="yes"/>
      <point x="964.0" y="1341.0"/>
      <point x="1066.0" y="1313.0"/>
      <point x="1161.0" y="1258.0" type="curve" smooth="yes"/>
      <point x="1349.0" y="1147.0"/>
      <point x="1462.0" y="947.0"/>
      <point x="1462.0" y="731.0" type="curve" smooth="yes"/>
      <point x="1462.0" y="622.0"/>
      <point x="1435.0" y="520.0"/>
      <point x="1380.0" y="426.0" type="curve" smooth="yes"/>
      <point x="1270.0" y="238.0"/>
      <point x="1071.0" y="122.0"/>
    </contour>
  </outline>
</glyph>
<glyph name="guillemetleft" format="2">
	<unicode hex="00AB"/>
	<advance width="1260"/>
	<outline>
		<contour>
			<point x="957" y="94" type="line"/>
			<point x="1173" y="209" type="line"/>
			<point x="904" y="561" type="line"/>
			<point x="1173" y="913" type="line"/>
			<point x="957" y="1031" type="line"/>
			<point x="593" y="575" type="line"/>
			<point x="593" y="548" type="line"/>
		</contour>
		<contour>
			<point x="447" y="94" type="line"/>
			<point x="662" y="209" type="line"/>
			<point x="395" y="561" type="line"/>
			<point x="662" y="913" type="line"/>
			<point x="447" y="1031" type="line"/>
			<point x="82" y="575" type="line"/>
			<point x="82" y="548" type="line"/>
		</contour>
	</outline>
	<note>
		guillemotleft
	</note>
</glyph>
<glyph name="logicalnot" format="2">
	<unicode hex="00AC"/>
	<advance width="1169"/>
	<outline>
		<contour>
			<point x="861" y="248" type="line"/>
			<point x="1075" y="248" type="line"/>
			<point x="1075" y="828" type="line"/>
			<point x="88" y="828" type="line"/>
			<point x="88" y="616" type="line"/>
			<point x="861" y="616" type="line"/>
		</contour>
	</outline>
	<note>
		logicalnot
	</note>
</glyph>
<glyph name="registered" format="2">
  <advance width="1704.0"/>
  <unicode hex="00AE"/>
  <note>
registered
</note>
  <outline>
    <contour>
      <point x="852.0" y="-20.0" type="curve" smooth="yes"/>
      <point x="990.0" y="-20.0"/>
      <point x="1116.0" y="14.0"/>
      <point x="1232.0" y="82.0" type="curve" smooth="yes"/>
      <point x="1463.0" y="218.0"/>
      <point x="1604.0" y="462.0"/>
      <point x="1604.0" y="731.0" type="curve" smooth="yes"/>
      <point x="1604.0" y="869.0"/>
      <point x="1569.0" y="995.0"/>
      <point x="1501.0" y="1112.0" type="curve" smooth="yes"/>
      <point x="1363.0" y="1345.0"/>
      <point x="1117.0" y="1483.0"/>
      <point x="852.0" y="1483.0" type="curve" smooth="yes"/>
      <point x="717.0" y="1483.0"/>
      <point x="592.0" y="1449.0"/>
      <point x="475.0" y="1382.0" type="curve" smooth="yes"/>
      <point x="242.0" y="1247.0"/>
      <point x="100.0" y="998.0"/>
      <point x="100.0" y="731.0" type="curve" smooth="yes"/>
      <point x="100.0" y="599.0"/>
      <point x="133.0" y="475.0"/>
      <point x="198.0" y="360.0" type="curve" smooth="yes"/>
      <point x="328.0" y="129.0"/>
      <point x="576.0" y="-20.0"/>
    </contour>
    <contour>
      <point x="852.0" y="122.0" type="curve" smooth="yes"/>
      <point x="743.0" y="122.0"/>
      <point x="642.0" y="149.0"/>
      <point x="548.0" y="203.0" type="curve" smooth="yes"/>
      <point x="361.0" y="311.0"/>
      <point x="243.0" y="512.0"/>
      <point x="243.0" y="731.0" type="curve" smooth="yes"/>
      <point x="243.0" y="840.0"/>
      <point x="270.0" y="942.0"/>
      <point x="325.0" y="1036.0" type="curve" smooth="yes"/>
      <point x="434.0" y="1225.0"/>
      <point x="634.0" y="1341.0"/>
      <point x="852.0" y="1341.0" type="curve" smooth="yes"/>
      <point x="964.0" y="1341.0"/>
      <point x="1066.0" y="1313.0"/>
      <point x="1161.0" y="1258.0" type="curve" smooth="yes"/>
      <point x="1349.0" y="1147.0"/>
      <point x="1462.0" y="947.0"/>
      <point x="1462.0" y="731.0" type="curve" smooth="yes"/>
      <point x="1462.0" y="622.0"/>
      <point x="1435.0" y="520.0"/>
      <point x="1380.0" y="426.0" type="curve" smooth="yes"/>
      <point x="1270.0" y="238.0"/>
      <point x="1071.0" y="122.0"/>
    </contour>
    <contour>
      <point x="543.0" y="306.0" type="line"/>
      <point x="769.0" y="306.0" type="line"/>
      <point x="769.0" y="638.0" type="line"/>
      <point x="844.0" y="638.0" type="line"/>
      <point x="1009.0" y="306.0" type="line"/>
      <point x="1248.0" y="306.0" type="line"/>
      <point x="1041.0" y="678.0" type="line"/>
      <point x="1140.0" y="726.0"/>
      <point x="1185.0" y="805.0"/>
      <point x="1185.0" y="918.0" type="curve" smooth="yes"/>
      <point x="1185.0" y="1096.0"/>
      <point x="1057.0" y="1183.0"/>
      <point x="810.0" y="1183.0" type="curve" smooth="yes"/>
      <point x="543.0" y="1183.0" type="line"/>
    </contour>
    <contour>
      <point x="769.0" y="786.0" type="line"/>
      <point x="769.0" y="1021.0" type="line"/>
      <point x="811.0" y="1021.0" type="line" smooth="yes"/>
      <point x="914.0" y="1021.0"/>
      <point x="956.0" y="987.0"/>
      <point x="956.0" y="909.0" type="curve" smooth="yes"/>
      <point x="956.0" y="822.0"/>
      <point x="900.0" y="786.0"/>
      <point x="810.0" y="786.0" type="curve" smooth="yes"/>
    </contour>
  </outline>
</glyph>
<glyph name="degree" format="2">
  <advance width="877.0"/>
  <unicode hex="00B0"/>
  <note>
degree
</note>
  <outline>
    <contour>
      <point x="440.0" y="791.0" type="curve" smooth="yes"/>
      <point x="632.0" y="791.0"/>
      <point x="788.0" y="941.0"/>
      <point x="788.0" y="1135.0" type="curve" smooth="yes"/>
      <point x="788.0" y="1330.0"/>
      <point x="632.0" y="1483.0"/>
      <point x="440.0" y="1483.0" type="curve" smooth="yes"/>
      <point x="247.0" y="1483.0"/>
      <point x="92.0" y="1329.0"/>
      <point x="92.0" y="1135.0" type="curve" smooth="yes"/>
      <point x="92.0" y="940.0"/>
      <point x="246.0" y="791.0"/>
    </contour>
    <contour>
      <point x="440.0" y="981.0" type="curve" smooth="yes"/>
      <point x="355.0" y="981.0"/>
      <point x="285.0" y="1052.0"/>
      <point x="285.0" y="1135.0" type="curve" smooth="yes"/>
      <point x="285.0" y="1219.0"/>
      <point x="351.0" y="1293.0"/>
      <point x="440.0" y="1293.0" type="curve" smooth="yes"/>
      <point x="528.0" y="1293.0"/>
      <point x="594.0" y="1220.0"/>
      <point x="594.0" y="1135.0" type="curve" smooth="yes"/>
      <point x="594.0" y="1052.0"/>
      <point x="525.0" y="981.0"/>
    </contour>
  </outline>
</glyph>
<glyph name="plusminus" format="2">
	<unicode hex="00B1"/>
	<advance width="1169"/>
	<outline>
		<contour>
			<point x="478" y="302" type="line"/>
			<point x="691" y="302" type="line"/>
			<point x="691" y="683" type="line"/>
			<point x="1081" y="683" type="line"/>
			<point x="1081" y="896" type="line"/>
			<point x="691" y="896" type="line"/>
			<point x="691" y="1283" type="line"/>
			<point x="478" y="1283" type="line"/>
			<point x="478" y="896" type="line"/>
			<point x="88" y="896" type="line"/>
			<point x="88" y="683" type="line"/>
			<point x="478" y="683" type="line"/>
		</contour>
		<contour>
			<point x="88" y="0" type="line"/>
			<point x="1081" y="0" type="line"/>
			<point x="1081" y="212" type="line"/>
			<point x="88" y="212" type="line"/>
		</contour>
	</outline>
	<note>
		plusminus
	</note>
</glyph>
<glyph name="twosuperior" format="2">
  <advance width="776.0"/>
  <unicode hex="00B2"/>
  <note>
twosuperior
</note>
  <outline>
    <contour>
      <point x="50.0" y="586.0" type="line"/>
      <point x="695.0" y="586.0" type="line"/>
      <point x="695.0" y="770.0" type="line"/>
      <point x="318.0" y="770.0" type="line"/>
      <point x="442.0" y="881.0"/>
      <point x="519.0" y="952.0"/>
      <point x="549.0" y="984.0" type="curve" smooth="yes"/>
      <point x="579.0" y="1015.0"/>
      <point x="603.0" y="1046.0"/>
      <point x="622.0" y="1075.0" type="curve" smooth="yes"/>
      <point x="658.0" y="1133.0"/>
      <point x="675.0" y="1185.0"/>
      <point x="675.0" y="1246.0" type="curve" smooth="yes"/>
      <point x="675.0" y="1395.0"/>
      <point x="570.0" y="1484.0"/>
      <point x="388.0" y="1484.0" type="curve" smooth="yes"/>
      <point x="249.0" y="1484.0"/>
      <point x="146.0" y="1448.0"/>
      <point x="47.0" y="1359.0" type="curve"/>
      <point x="161.0" y="1223.0" type="line"/>
      <point x="226.0" y="1281.0"/>
      <point x="287.0" y="1309.0"/>
      <point x="347.0" y="1309.0" type="curve" smooth="yes"/>
      <point x="408.0" y="1309.0"/>
      <point x="443.0" y="1278.0"/>
      <point x="443.0" y="1223.0" type="curve" smooth="yes"/>
      <point x="443.0" y="1193.0"/>
      <point x="433.0" y="1163.0"/>
      <point x="411.0" y="1129.0" type="curve" smooth="yes"/>
      <point x="386.0" y="1091.0"/>
      <point x="341.0" y="1041.0"/>
      <point x="273.0" y="974.0" type="curve" smooth="yes"/>
      <point x="50.0" y="754.0" type="line"/>
    </contour>
  </outline>
</glyph>
<glyph name="threesuperior" format="2">
	<unicode hex="00B3"/>
	<advance width="776"/>
	<outline>
		<contour>
			<point x="356.8" y="569" type="curve" smooth="yes"/>
			<point x="587.7" y="569"/>
			<point x="720.1" y="664.8"/>
			<point x="720.1" y="828.7" type="curve" smooth="yes"/>
			<point x="720.1" y="943.2"/>
			<point x="658.1" y="1011.1"/>
			<point x="530.6" y="1042.2" type="curve"/>
			<point x="530.6" y="1049.1" type="line"/>
			<point x="641.6" y="1087.6"/>
			<point x="692.3" y="1160.2"/>
			<point x="692.3" y="1264.2" type="curve" smooth="yes"/>
			<point x="692.3" y="1398.4"/>
			<point x="574.6" y="1481.6"/>
			<point x="387.4" y="1481.6" type="curve" smooth="yes"/>
			<point x="264.4" y="1481.6"/>
			<point x="154.8" y="1445.7"/>
			<point x="59.4" y="1372.9" type="curve"/>
			<point x="155.4" y="1232.9" type="line"/>
			<point x="228.8" y="1285.6"/>
			<point x="290.5" y="1308.1"/>
			<point x="362.9" y="1308.1" type="curve" smooth="yes"/>
			<point x="441.9" y="1308.1"/>
			<point x="479.5" y="1265.9"/>
			<point x="479.5" y="1216.1" type="curve" smooth="yes"/>
			<point x="479.5" y="1146.7"/>
			<point x="427.4" y="1112.3"/>
			<point x="318.9" y="1112.3" type="curve" smooth="yes"/>
			<point x="222.4" y="1112.3" type="line"/>
			<point x="222.4" y="951.3" type="line"/>
			<point x="334.5" y="951.3" type="line" smooth="yes"/>
			<point x="447.3" y="951.3"/>
			<point x="500.4" y="924.4"/>
			<point x="500.4" y="852.6" type="curve" smooth="yes"/>
			<point x="500.4" y="786.3"/>
			<point x="448.8" y="750.2"/>
			<point x="349" y="750.2" type="curve" smooth="yes"/>
			<point x="238.9" y="750.2"/>
			<point x="143.2" y="775.4"/>
			<point x="61.3" y="825.5" type="curve"/>
			<point x="61.3" y="636" type="line"/>
			<point x="143.4" y="591.1"/>
			<point x="241.9" y="569"/>
		</contour>
	</outline>
	<note>
		threesuperior
	</note>
</glyph>
<glyph name="paragraph" format="2">
  <advance width="1341.0"/>
  <unicode hex="00B6"/>
  <note>
paragraph
</note>
  <outline>
    <contour>
      <point x="664.0" y="-260.0" type="line"/>
      <point x="828.0" y="-260.0" type="line"/>
      <point x="828.0" y="1367.0" type="line"/>
      <point x="1006.0" y="1367.0" type="line"/>
      <point x="1006.0" y="-260.0" type="line"/>
      <point x="1170.0" y="-260.0" type="line"/>
      <point x="1170.0" y="1556.0" type="line"/>
      <point x="564.0" y="1556.0" type="line" smooth="yes"/>
      <point x="251.0" y="1556.0"/>
      <point x="113.0" y="1385.0"/>
      <point x="113.0" y="1042.0" type="curve" smooth="yes"/>
      <point x="113.0" y="707.0"/>
      <point x="245.0" y="541.0"/>
      <point x="533.0" y="541.0" type="curve" smooth="yes"/>
      <point x="582.0" y="541.0"/>
      <point x="626.0" y="547.0"/>
      <point x="664.0" y="559.0" type="curve"/>
    </contour>
  </outline>
</glyph>
<glyph name="onesuperior" format="2">
  <advance width="776.0"/>
  <unicode hex="00B9"/>
  <note>
onesuperior
</note>
  <outline>
    <contour>
      <point x="366.0" y="586.0" type="line"/>
      <point x="593.0" y="586.0" type="line"/>
      <point x="593.0" y="1462.0" type="line"/>
      <point x="412.0" y="1462.0" type="line"/>
      <point x="92.0" y="1221.0" type="line"/>
      <point x="208.0" y="1079.0" type="line"/>
      <point x="273.0" y="1128.0"/>
      <point x="317.0" y="1162.0"/>
      <point x="340.0" y="1181.0" type="curve" smooth="yes"/>
      <point x="358.0" y="1197.0"/>
      <point x="370.0" y="1210.0"/>
      <point x="377.0" y="1221.0" type="curve"/>
      <point x="371.0" y="1180.0"/>
      <point x="366.0" y="1052.0"/>
      <point x="366.0" y="999.0" type="curve" smooth="yes"/>
    </contour>
  </outline>
</glyph>
<glyph name="ordmasculine" format="2">
  <advance width="795.0"/>
  <unicode hex="00BA"/>
  <note>
ordmasculine
</note>
  <outline>
    <contour>
      <point x="732.0" y="1115.0" type="curve" smooth="yes"/>
      <point x="732.0" y="1338.0"/>
      <point x="598.0" y="1479.0"/>
      <point x="395.0" y="1479.0" type="curve" smooth="yes"/>
      <point x="183.0" y="1479.0"/>
      <point x="57.0" y="1345.0"/>
      <point x="57.0" y="1115.0" type="curve" smooth="yes"/>
      <point x="57.0" y="889.0"/>
      <point x="186.0" y="751.0"/>
      <point x="391.0" y="751.0" type="curve" smooth="yes"/>
      <point x="603.0" y="751.0"/>
      <point x="732.0" y="888.0"/>
    </contour>
    <contour>
      <point x="261.0" y="1115.0" type="curve" smooth="yes"/>
      <point x="261.0" y="1249.0"/>
      <point x="303.0" y="1314.0"/>
      <point x="393.0" y="1314.0" type="curve" smooth="yes"/>
      <point x="483.0" y="1314.0"/>
      <point x="525.0" y="1249.0"/>
      <point x="525.0" y="1115.0" type="curve" smooth="yes"/>
      <point x="525.0" y="982.0"/>
      <point x="481.0" y="915.0"/>
      <point x="393.0" y="915.0" type="curve" smooth="yes"/>
      <point x="303.0" y="915.0"/>
      <point x="261.0" y="981.0"/>
    </contour>
  </outline>
</glyph>
<glyph name="guillemetright" format="2">
  <advance width="1260.0"/>
  <unicode hex="00BB"/>
  <note>
guillemotright
</note>
  <outline>
    <contour>
      <point x="809.0" y="94.0" type="line"/>
      <point x="1173.0" y="548.0" type="line"/>
      <point x="1173.0" y="575.0" type="line"/>
      <point x="809.0" y="1031.0" type="line"/>
      <point x="591.0" y="913.0" type="line"/>
      <point x="860.0" y="561.0" type="line"/>
      <point x="591.0" y="209.0" type="line"/>
    </contour>
    <contour>
      <point x="297.0" y="94.0" type="line"/>
      <point x="661.0" y="548.0" type="line"/>
      <point x="661.0" y="575.0" type="line"/>
      <point x="297.0" y="1031.0" type="line"/>
      <point x="82.0" y="913.0" type="line"/>
      <point x="348.0" y="561.0" type="line"/>
      <point x="82.0" y="209.0" type="line"/>
    </contour>
  </outline>
</glyph>
<glyph name="AE" format="2">
	<unicode hex="00C6"/>
	<advance width="1950"/>
	<outline>
		<contour>
			<point x="1754" y="254" type="line"/>
			<point x="1238" y="254" type="line"/>
			<point x="1238" y="635" type="line"/>
			<point x="1717" y="635" type="line"/>
			<point x="1717" y="885" type="line"/>
			<point x="1238" y="885" type="line"/>
			<point x="1238" y="1212" type="line"/>
			<point x="1754" y="1212" type="line"/>
			<point x="1754" y="1462" type="line"/>
			<point x="636" y="1462" type="line"/>
			<point x="0" y="0" type="line"/>
			<point x="343" y="0" type="line"/>
			<point x="481" y="347" type="line"/>
			<point x="930" y="347" type="line"/>
			<point x="930" y="0" type="line"/>
			<point x="1754" y="0" type="line"/>
		</contour>
		<contour>
			<point x="930" y="1200" type="line"/>
			<point x="930" y="604" type="line"/>
			<point x="578" y="604" type="line"/>
			<point x="822" y="1200" type="line"/>
		</contour>
	</outline>
	<anchor name="bottom" x="934" y="0"/>
	<anchor name="top" x="1098" y="1462"/>
	<note>
		AE
	</note>
</glyph>
<glyph name="Eth" format="2">
	<unicode hex="00D0"/>
	<advance width="1516"/>
	<outline>
		<contour>
			<point x="184" y="0" type="line"/>
			<point x="620" y="0" type="line" smooth="yes"/>
			<point x="1110" y="0"/>
			<point x="1385" y="268"/>
			<point x="1385" y="757" type="curve" smooth="yes"/>
			<point x="1385" y="1214"/>
			<point x="1125" y="1462"/>
			<point x="656" y="1462" type="curve" smooth="yes"/>
			<point x="184" y="1462" type="line"/>
			<point x="184" y="850" type="line"/>
			<point x="47" y="850" type="line"/>
			<point x="47" y="598" type="line"/>
			<point x="184" y="598" type="line"/>
		</contour>
		<contour>
			<point x="491" y="254" type="line"/>
			<point x="491" y="598" type="line"/>
			<point x="760" y="598" type="line"/>
			<point x="760" y="850" type="line"/>
			<point x="491" y="850" type="line"/>
			<point x="491" y="1212" type="line"/>
			<point x="652" y="1212" type="line" smooth="yes"/>
			<point x="927" y="1212"/>
			<point x="1065" y="1059"/>
			<point x="1065" y="746" type="curve" smooth="yes"/>
			<point x="1065" y="415"/>
			<point x="924" y="254"/>
			<point x="625" y="254" type="curve" smooth="yes"/>
		</contour>
	</outline>
	<note>
		Eth
	</note>
</glyph>
<glyph name="multiply" format="2">
  <advance width="1169.0"/>
  <unicode hex="00D7"/>
  <note>
multiply
</note>
  <outline>
    <contour>
      <point x="654.0" y="264.0" type="line"/>
      <point x="905.0" y="516.0" type="line"/>
      <point x="838.0" y="583.0" type="line"/>
      <point x="1047.0" y="792.0" type="line"/>
      <point x="794.0" y="1043.0" type="line"/>
      <point x="723.0" y="978.0" type="line"/>
      <point x="517.0" y="1182.0" type="line"/>
      <point x="267.0" y="928.0" type="line"/>
      <point x="331.0" y="863.0" type="line"/>
      <point x="129.0" y="658.0" type="line"/>
      <point x="377.0" y="405.0" type="line"/>
      <point x="444.0" y="470.0" type="line"/>
    </contour>
  </outline>
</glyph>
<glyph name="Oslash" format="2">
  <advance width="1630.0"/>
  <unicode hex="00D8"/>
  <note>
Oslash
</note>
  <anchor x="814.0" y="0.0" name="bottom"/>
  <anchor x="814.0" y="1462.0" name="top"/>
  <outline>
    <contour>
      <point x="395.0" y="-82.0" type="line"/>
      <point x="480.0" y="46.0" type="line"/>
      <point x="572.0" y="2.0"/>
      <point x="683.0" y="-20.0"/>
      <point x="813.0" y="-20.0" type="curve" smooth="yes"/>
      <point x="1261.0" y="-20.0"/>
      <point x="1507.0" y="249.0"/>
      <point x="1507.0" y="733.0" type="curve" smooth="yes"/>
      <point x="1507.0" y="986.0"/>
      <point x="1442.0" y="1178.0"/>
      <point x="1313.0" y="1307.0" type="curve"/>
      <point x="1404.0" y="1441.0" type="line"/>
      <point x="1249.0" y="1538.0" type="line"/>
      <point x="1164.0" y="1410.0" type="line"/>
      <point x="1067.0" y="1460.0"/>
      <point x="950.0" y="1485.0"/>
      <point x="815.0" y="1485.0" type="curve" smooth="yes"/>
      <point x="369.0" y="1485.0"/>
      <point x="119.0" y="1215.0"/>
      <point x="119.0" y="735.0" type="curve" smooth="yes"/>
      <point x="119.0" y="474.0"/>
      <point x="187.0" y="279.0"/>
      <point x="324.0" y="148.0" type="curve"/>
      <point x="238.0" y="23.0" type="line"/>
    </contour>
    <contour>
      <point x="506.0" y="421.0" type="line"/>
      <point x="465.0" y="494.0"/>
      <point x="444.0" y="598.0"/>
      <point x="444.0" y="733.0" type="curve" smooth="yes"/>
      <point x="444.0" y="1058.0"/>
      <point x="572.0" y="1229.0"/>
      <point x="815.0" y="1229.0" type="curve" smooth="yes"/>
      <point x="887.0" y="1229.0"/>
      <point x="952.0" y="1212.0"/>
      <point x="1010.0" y="1178.0" type="curve"/>
    </contour>
    <contour>
      <point x="813.0" y="239.0" type="curve" smooth="yes"/>
      <point x="743.0" y="239.0"/>
      <point x="682.0" y="253.0"/>
      <point x="630.0" y="281.0" type="curve"/>
      <point x="1128.0" y="1027.0" type="line"/>
      <point x="1165.0" y="952.0"/>
      <point x="1182.0" y="854.0"/>
      <point x="1182.0" y="733.0" type="curve" smooth="yes"/>
      <point x="1182.0" y="402.0"/>
      <point x="1059.0" y="239.0"/>
    </contour>
  </outline>
</glyph>
<glyph name="Thorn" format="2">
  <advance width="1286.0"/>
  <unicode hex="00DE"/>
  <note>
Thorn
</note>
  <anchor x="640.0" y="0.0" name="bottom"/>
  <anchor x="640.0" y="1462.0" name="top"/>
  <outline>
    <contour>
      <point x="184.0" y="0.0" type="line"/>
      <point x="491.0" y="0.0" type="line"/>
      <point x="491.0" y="292.0" type="line"/>
      <point x="636.0" y="292.0" type="line" smooth="yes"/>
      <point x="990.0" y="292.0"/>
      <point x="1190.0" y="468.0"/>
      <point x="1190.0" y="782.0" type="curve" smooth="yes"/>
      <point x="1190.0" y="1074.0"/>
      <point x="1008.0" y="1234.0"/>
      <point x="645.0" y="1234.0" type="curve" smooth="yes"/>
      <point x="491.0" y="1234.0" type="line"/>
      <point x="491.0" y="1462.0" type="line"/>
      <point x="184.0" y="1462.0" type="line"/>
    </contour>
    <contour>
      <point x="491.0" y="544.0" type="line"/>
      <point x="491.0" y="983.0" type="line"/>
      <point x="635.0" y="983.0" type="line" smooth="yes"/>
      <point x="798.0" y="983.0"/>
      <point x="877.0" y="916.0"/>
      <point x="877.0" y="780.0" type="curve" smooth="yes"/>
      <point x="877.0" y="624.0"/>
      <point x="783.0" y="544.0"/>
      <point x="601.0" y="544.0" type="curve" smooth="yes"/>
    </contour>
  </outline>
</glyph>
<glyph name="ae" format="2">
  <advance width="1878.0"/>
  <unicode hex="00E6"/>
  <note>
ae
</note>
  <anchor x="935.0" y="0.0" name="bottom"/>
  <anchor x="935.0" y="1119.0" name="top"/>
  <outline>
    <contour>
      <point x="460.0" y="-20.0" type="curve" smooth="yes"/>
      <point x="659.0" y="-20.0"/>
      <point x="772.0" y="35.0"/>
      <point x="896.0" y="190.0" type="curve"/>
      <point x="998.0" y="38.0"/>
      <point x="1127.0" y="-20.0"/>
      <point x="1339.0" y="-20.0" type="curve" smooth="yes"/>
      <point x="1466.0" y="-20.0"/>
      <point x="1589.0" y="0.0"/>
      <point x="1706.0" y="59.0" type="curve"/>
      <point x="1706.0" y="282.0" type="line"/>
      <point x="1588.0" y="226.0"/>
      <point x="1469.0" y="202.0"/>
      <point x="1371.0" y="202.0" type="curve" smooth="yes"/>
      <point x="1165.0" y="202.0"/>
      <point x="1072.0" y="304.0"/>
      <point x="1067.0" y="482.0" type="curve"/>
      <point x="1769.0" y="482.0" type="line"/>
      <point x="1769.0" y="626.0" type="line" smooth="yes"/>
      <point x="1769.0" y="948.0"/>
      <point x="1599.0" y="1139.0"/>
      <point x="1295.0" y="1139.0" type="curve" smooth="yes"/>
      <point x="1165.0" y="1139.0"/>
      <point x="1044.0" y="1100.0"/>
      <point x="956.0" y="1010.0" type="curve"/>
      <point x="875.0" y="1098.0"/>
      <point x="770.0" y="1139.0"/>
      <point x="615.0" y="1139.0" type="curve" smooth="yes"/>
      <point x="474.0" y="1139.0"/>
      <point x="326.0" y="1109.0"/>
      <point x="201.0" y="1044.0" type="curve"/>
      <point x="289.0" y="839.0" type="line"/>
      <point x="403.0" y="893.0"/>
      <point x="511.0" y="920.0"/>
      <point x="594.0" y="920.0" type="curve" smooth="yes"/>
      <point x="719.0" y="920.0"/>
      <point x="773.0" y="859.0"/>
      <point x="773.0" y="729.0" type="curve" smooth="yes"/>
      <point x="773.0" y="695.0" type="line"/>
      <point x="585.0" y="689.0" type="line" smooth="yes"/>
      <point x="255.0" y="678.0"/>
      <point x="86.0" y="561.0"/>
      <point x="86.0" y="325.0" type="curve" smooth="yes"/>
      <point x="86.0" y="118.0"/>
      <point x="216.0" y="-20.0"/>
    </contour>
    <contour>
      <point x="545.0" y="200.0" type="curve" smooth="yes"/>
      <point x="447.0" y="200.0"/>
      <point x="397.0" y="247.0"/>
      <point x="397.0" y="339.0" type="curve" smooth="yes"/>
      <point x="397.0" y="453.0"/>
      <point x="474.0" y="507.0"/>
      <point x="658.0" y="515.0" type="curve" smooth="yes"/>
      <point x="773.0" y="520.0" type="line"/>
      <point x="773.0" y="426.0" type="line" smooth="yes"/>
      <point x="773.0" y="288.0"/>
      <point x="678.0" y="200.0"/>
    </contour>
    <contour>
      <point x="1073.0" y="680.0" type="line"/>
      <point x="1085.0" y="845.0"/>
      <point x="1163.0" y="927.0"/>
      <point x="1285.0" y="927.0" type="curve" smooth="yes"/>
      <point x="1415.0" y="927.0"/>
      <point x="1490.0" y="831.0"/>
      <point x="1492.0" y="680.0" type="curve"/>
    </contour>
  </outline>
</glyph>
<glyph name="eth" format="2">
  <advance width="1268.0"/>
  <unicode hex="00F0"/>
  <note>
eth
</note>
  <outline>
    <contour>
      <point x="624.0" y="-20.0" type="curve" smooth="yes"/>
      <point x="960.0" y="-20.0"/>
      <point x="1163.0" y="206.0"/>
      <point x="1163.0" y="574.0" type="curve" smooth="yes"/>
      <point x="1163.0" y="869.0"/>
      <point x="1076.0" y="1104.0"/>
      <point x="866.0" y="1310.0" type="curve"/>
      <point x="1028.0" y="1414.0" type="line"/>
      <point x="933.0" y="1567.0" type="line"/>
      <point x="719.0" y="1430.0" type="line"/>
      <point x="656.0" y="1474.0"/>
      <point x="569.0" y="1520.0"/>
      <point x="459.0" y="1568.0" type="curve"/>
      <point x="370.0" y="1416.0" type="line"/>
      <point x="427.0" y="1383.0"/>
      <point x="482.0" y="1349.0"/>
      <point x="534.0" y="1315.0" type="curve"/>
      <point x="360.0" y="1207.0" type="line"/>
      <point x="457.0" y="1055.0" type="line"/>
      <point x="665.0" y="1186.0" type="line"/>
      <point x="742.0" y="1112.0"/>
      <point x="802.0" y="1018.0"/>
      <point x="846.0" y="903.0" type="curve"/>
      <point x="839.0" y="900.0" type="line"/>
      <point x="787.0" y="964.0"/>
      <point x="700.0" y="997.0"/>
      <point x="568.0" y="997.0" type="curve" smooth="yes"/>
      <point x="278.0" y="997.0"/>
      <point x="92.0" y="804.0"/>
      <point x="92.0" y="490.0" type="curve" smooth="yes"/>
      <point x="92.0" y="173.0"/>
      <point x="297.0" y="-20.0"/>
    </contour>
    <contour>
      <point x="627.0" y="202.0" type="curve" smooth="yes"/>
      <point x="481.0" y="202.0"/>
      <point x="404.0" y="302.0"/>
      <point x="404.0" y="489.0" type="curve" smooth="yes"/>
      <point x="404.0" y="683.0"/>
      <point x="468.0" y="774.0"/>
      <point x="628.0" y="774.0" type="curve" smooth="yes"/>
      <point x="765.0" y="774.0"/>
      <point x="852.0" y="686.0"/>
      <point x="852.0" y="549.0" type="curve" smooth="yes"/>
      <point x="852.0" y="317.0"/>
      <point x="784.0" y="202.0"/>
    </contour>
  </outline>
</glyph>
<glyph name="divide" format="2">
	<unicode hex="00F7"/>
	<advance width="1169"/>
	<outline>
		<contour>
			<point x="88" y="616" type="line"/>
			<point x="1081" y="616" type="line"/>
			<point x="1081" y="828" type="line"/>
			<point x="88" y="828" type="line"/>
		</contour>
		<contour>
			<point x="584" y="195" type="curve" smooth="yes"/>
			<point x="663" y="195"/>
			<point x="718" y="248"/>
			<point x="718" y="344" type="curve" smooth="yes"/>
			<point x="718" y="441"/>
			<point x="670" y="492"/>
			<point x="584" y="492" type="curve" smooth="yes"/>
			<point x="496" y="492"/>
			<point x="451" y="439"/>
			<point x="451" y="344" type="curve" smooth="yes"/>
			<point x="451" y="246"/>
			<point x="504" y="195"/>
		</contour>
		<contour>
			<point x="584" y="952" type="curve" smooth="yes"/>
			<point x="663" y="952"/>
			<point x="718" y="1005"/>
			<point x="718" y="1101" type="curve" smooth="yes"/>
			<point x="718" y="1198"/>
			<point x="670" y="1250"/>
			<point x="584" y="1250" type="curve" smooth="yes"/>
			<point x="496" y="1250"/>
			<point x="451" y="1197"/>
			<point x="451" y="1101" type="curve" smooth="yes"/>
			<point x="451" y="1004"/>
			<point x="504" y="952"/>
		</contour>
	</outline>
	<note>
		divide
	</note>
</glyph>
<glyph name="oslash" format="2">
  <advance width="1268.0"/>
  <unicode hex="00F8"/>
  <note>
oslash
</note>
  <anchor x="653.0" y="1119.0" name="top"/>
  <outline>
    <contour>
      <point x="317.0" y="-92.0" type="line"/>
      <point x="402.0" y="33.0" type="line"/>
      <point x="474.0" y="-2.0"/>
      <point x="557.0" y="-20.0"/>
      <point x="649.0" y="-20.0" type="curve" smooth="yes"/>
      <point x="1004.0" y="-20.0"/>
      <point x="1212.0" y="194.0"/>
      <point x="1212.0" y="562.0" type="curve" smooth="yes"/>
      <point x="1212.0" y="746.0"/>
      <point x="1158.0" y="889.0"/>
      <point x="1050.0" y="992.0" type="curve"/>
      <point x="1128.0" y="1106.0" type="line"/>
      <point x="988.0" y="1196.0" type="line"/>
      <point x="910.0" y="1081.0" type="line"/>
      <point x="834.0" y="1120.0"/>
      <point x="749.0" y="1139.0"/>
      <point x="655.0" y="1139.0" type="curve" smooth="yes"/>
      <point x="300.0" y="1139.0"/>
      <point x="92.0" y="927.0"/>
      <point x="92.0" y="562.0" type="curve" smooth="yes"/>
      <point x="92.0" y="373.0"/>
      <point x="148.0" y="226.0"/>
      <point x="260.0" y="122.0" type="curve"/>
      <point x="177.0" y="0.0" type="line"/>
    </contour>
    <contour>
      <point x="653.0" y="196.0" type="curve" smooth="yes"/>
      <point x="601.0" y="196.0"/>
      <point x="560.0" y="206.0"/>
      <point x="529.0" y="226.0" type="curve"/>
      <point x="890.0" y="746.0" type="line"/>
      <point x="909.0" y="701.0"/>
      <point x="918.0" y="640.0"/>
      <point x="918.0" y="562.0" type="curve" smooth="yes"/>
      <point x="918.0" y="310.0"/>
      <point x="832.0" y="196.0"/>
    </contour>
    <contour>
      <point x="417.0" y="362.0" type="line"/>
      <point x="396.0" y="409.0"/>
      <point x="386.0" y="476.0"/>
      <point x="386.0" y="562.0" type="curve" smooth="yes"/>
      <point x="386.0" y="807.0"/>
      <point x="473.0" y="924.0"/>
      <point x="651.0" y="924.0" type="curve" smooth="yes"/>
      <point x="703.0" y="924.0"/>
      <point x="746.0" y="912.0"/>
      <point x="783.0" y="887.0" type="curve"/>
    </contour>
  </outline>
</glyph>
<glyph name="thorn" format="2">
  <advance width="1296.0"/>
  <unicode hex="00FE"/>
  <note>
thorn
</note>
  <anchor x="655.0" y="0.0" name="bottom"/>
  <anchor x="655.0" y="1119.0" name="top"/>
  <outline>
    <contour>
      <point x="160.0" y="-492.0" type="line"/>
      <point x="463.0" y="-492.0" type="line"/>
      <point x="463.0" y="-54.0" type="line" smooth="yes"/>
      <point x="463.0" y="-14.0"/>
      <point x="459.0" y="45.0"/>
      <point x="452.0" y="127.0" type="curve"/>
      <point x="463.0" y="127.0" type="line"/>
      <point x="540.0" y="29.0"/>
      <point x="644.0" y="-20.0"/>
      <point x="774.0" y="-20.0" type="curve" smooth="yes"/>
      <point x="1038.0" y="-20.0"/>
      <point x="1201.0" y="201.0"/>
      <point x="1201.0" y="561.0" type="curve" smooth="yes"/>
      <point x="1201.0" y="929.0"/>
      <point x="1045.0" y="1139.0"/>
      <point x="785.0" y="1139.0" type="curve" smooth="yes"/>
      <point x="641.0" y="1139.0"/>
      <point x="526.0" y="1077.0"/>
      <point x="463.0" y="966.0" type="curve"/>
      <point x="449.0" y="966.0" type="line"/>
      <point x="458.0" y="1046.0"/>
      <point x="463.0" y="1124.0"/>
      <point x="463.0" y="1198.0" type="curve" smooth="yes"/>
      <point x="463.0" y="1556.0" type="line"/>
      <point x="160.0" y="1556.0" type="line"/>
    </contour>
    <contour>
      <point x="686.0" y="227.0" type="curve" smooth="yes"/>
      <point x="531.0" y="227.0"/>
      <point x="463.0" y="323.0"/>
      <point x="463.0" y="562.0" type="curve" smooth="yes"/>
      <point x="463.0" y="588.0" type="line" smooth="yes"/>
      <point x="463.0" y="802.0"/>
      <point x="526.0" y="898.0"/>
      <point x="683.0" y="898.0" type="curve" smooth="yes"/>
      <point x="830.0" y="898.0"/>
      <point x="891.0" y="784.0"/>
      <point x="891.0" y="563.0" type="curve" smooth="yes"/>
      <point x="891.0" y="346.0"/>
      <point x="828.0" y="227.0"/>
    </contour>
  </outline>
</glyph>
<glyph name="Hbar" format="2">
  <advance width="1567.0"/>
  <unicode hex="0126"/>
  <note>
Hbar
</note>
  <outline>
    <contour>
      <point x="0.0" y="1267.6" type="line"/>
      <point x="0.0" y="1076.3" type="line"/>
      <point x="183.9" y="1076.3" type="line"/>
      <point x="183.9" y="0.0" type="line"/>
      <point x="491.0" y="0.0" type="line"/>
      <point x="491.0" y="632.9" type="line"/>
      <point x="1069.9" y="632.9" type="line"/>
      <point x="1069.9" y="0.0" type="line"/>
      <point x="1378.7" y="0.0" type="line"/>
      <point x="1378.7" y="1076.3" type="line"/>
      <point x="1563.3" y="1076.3" type="line"/>
      <point x="1563.3" y="1267.6" type="line"/>
      <point x="1378.7" y="1267.6" type="line"/>
      <point x="1378.7" y="1462.0" type="line"/>
      <point x="1069.9" y="1462.0" type="line"/>
      <point x="1069.9" y="1267.6" type="line"/>
      <point x="491.0" y="1267.6" type="line"/>
      <point x="491.0" y="1462.0" type="line"/>
      <point x="183.9" y="1462.0" type="line"/>
      <point x="183.9" y="1267.6" type="line"/>
    </contour>
    <contour>
      <point x="491.0" y="887.9" type="line"/>
      <point x="491.0" y="1076.3" type="line"/>
      <point x="1069.9" y="1076.3" type="line"/>
      <point x="1069.9" y="887.9" type="line"/>
    </contour>
  </outline>
</glyph>
<glyph name="hbar" format="2">
  <advance width="1346.0"/>
  <unicode hex="0127"/>
  <note>
hbar
</note>
  <outline>
    <contour>
      <point x="160.0" y="0.0" type="line"/>
      <point x="463.0" y="0.0" type="line"/>
      <point x="463.0" y="447.0" type="line" smooth="yes"/>
      <point x="463.0" y="607.0"/>
      <point x="490.0" y="710.0"/>
      <point x="550.0" y="766.0" type="curve" smooth="yes"/>
      <point x="588.0" y="802.0"/>
      <point x="639.0" y="818.0"/>
      <point x="706.0" y="818.0" type="curve" smooth="yes"/>
      <point x="827.0" y="818.0"/>
      <point x="886.0" y="736.0"/>
      <point x="886.0" y="565.0" type="curve" smooth="yes"/>
      <point x="886.0" y="0.0" type="line"/>
      <point x="1191.0" y="0.0" type="line"/>
      <point x="1191.0" y="651.0" type="line" smooth="yes"/>
      <point x="1191.0" y="914.0"/>
      <point x="1050.0" y="1060.0"/>
      <point x="800.0" y="1060.0" type="curve" smooth="yes"/>
      <point x="649.0" y="1060.0"/>
      <point x="543.0" y="1012.0"/>
      <point x="468.0" y="892.0" type="curve"/>
      <point x="450.0" y="892.0" type="line"/>
      <point x="456.0" y="945.0"/>
      <point x="462.0" y="1049.0"/>
      <point x="462.0" y="1097.0" type="curve" smooth="yes"/>
      <point x="462.0" y="1199.0" type="line"/>
      <point x="768.0" y="1199.0" type="line"/>
      <point x="768.0" y="1392.0" type="line"/>
      <point x="463.0" y="1392.0" type="line"/>
      <point x="463.0" y="1556.0" type="line"/>
      <point x="160.0" y="1556.0" type="line"/>
      <point x="160.0" y="1392.0" type="line"/>
      <point x="4.0" y="1392.0" type="line"/>
      <point x="4.0" y="1199.0" type="line"/>
      <point x="160.0" y="1199.0" type="line"/>
    </contour>
  </outline>
</glyph>
<glyph name="kgreenlandic" format="2">
	<unicode hex="0138"/>
	<advance width="1270"/>
	<outline>
		<contour>
			<point x="160" y="0" type="line"/>
			<point x="465" y="0" type="line"/>
			<point x="465" y="327" type="line"/>
			<point x="609" y="444" type="line"/>
			<point x="909" y="0" type="line"/>
			<point x="1253" y="0" type="line"/>
			<point x="817" y="633" type="line"/>
			<point x="1229" y="1119" type="line"/>
			<point x="886" y="1119" type="line"/>
			<point x="590" y="762" type="line" smooth="yes"/>
			<point x="540" y="700"/>
			<point x="499" y="643"/>
			<point x="463" y="593" type="curve"/>
			<point x="456" y="593" type="line"/>
			<point x="462" y="683"/>
			<point x="465" y="769"/>
			<point x="465" y="854" type="curve" smooth="yes"/>
			<point x="465" y="1119" type="line"/>
			<point x="160" y="1119" type="line"/>
		</contour>
	</outline>
	<anchor name="bottom" x="632" y="0"/>
	<anchor name="top" x="632" y="1119"/>
	<note>
		kgreenlandic
	</note>
</glyph>
<glyph name="Ldot" format="2">
  <advance width="1157.0"/>
  <unicode hex="013F"/>
  <note>
Ldot
</note>
  <outline>
    <contour>
      <point x="1094.0" y="0.0" type="line"/>
      <point x="1094.0" y="252.0" type="line"/>
      <point x="491.0" y="252.0" type="line"/>
      <point x="491.0" y="1462.0" type="line"/>
      <point x="184.0" y="1462.0" type="line"/>
      <point x="184.0" y="0.0" type="line"/>
    </contour>
    <contour>
      <point x="733.0" y="753.0" type="curve" smooth="yes"/>
      <point x="733.0" y="653.0"/>
      <point x="788.0" y="603.0"/>
      <point x="897.0" y="603.0" type="curve" smooth="yes"/>
      <point x="1007.0" y="603.0"/>
      <point x="1063.0" y="654.0"/>
      <point x="1063.0" y="753.0" type="curve" smooth="yes"/>
      <point x="1063.0" y="851.0"/>
      <point x="1011.0" y="903.0"/>
      <point x="897.0" y="903.0" type="curve" smooth="yes"/>
      <point x="783.0" y="903.0"/>
      <point x="733.0" y="854.0"/>
    </contour>
  </outline>
</glyph>
<glyph name="ldot" format="2">
  <advance width="877.0"/>
  <unicode hex="0140"/>
  <note>
ldot
</note>
  <outline>
    <contour>
      <point x="463.0" y="1556.0" type="line"/>
      <point x="160.0" y="1556.0" type="line"/>
      <point x="160.0" y="0.0" type="line"/>
      <point x="463.0" y="0.0" type="line"/>
    </contour>
    <contour>
      <point x="587.0" y="695.0" type="curve" smooth="yes"/>
      <point x="587.0" y="595.0"/>
      <point x="641.0" y="546.0"/>
      <point x="751.0" y="546.0" type="curve" smooth="yes"/>
      <point x="860.0" y="546.0"/>
      <point x="917.0" y="597.0"/>
      <point x="917.0" y="695.0" type="curve" smooth="yes"/>
      <point x="917.0" y="794.0"/>
      <point x="865.0" y="846.0"/>
      <point x="751.0" y="846.0" type="curve" smooth="yes"/>
      <point x="636.0" y="846.0"/>
      <point x="587.0" y="796.0"/>
    </contour>
  </outline>
</glyph>
<glyph name="Lslash" format="2">
  <advance width="1157.0"/>
  <unicode hex="0141"/>
  <note>
Lslash
</note>
  <outline>
    <contour>
      <point x="1137.0" y="0.0" type="line"/>
      <point x="1137.0" y="252.0" type="line"/>
      <point x="533.0" y="252.0" type="line"/>
      <point x="533.0" y="692.0" type="line"/>
      <point x="896.0" y="917.0" type="line"/>
      <point x="778.0" y="1110.0" type="line"/>
      <point x="533.0" y="957.0" type="line"/>
      <point x="533.0" y="1462.0" type="line"/>
      <point x="226.0" y="1462.0" type="line"/>
      <point x="226.0" y="767.0" type="line"/>
      <point x="2.0" y="632.0" type="line"/>
      <point x="114.0" y="436.0" type="line"/>
      <point x="226.0" y="502.0" type="line"/>
      <point x="226.0" y="0.0" type="line"/>
    </contour>
  </outline>
</glyph>
<glyph name="lslash" format="2">
  <advance width="676.0"/>
  <unicode hex="0142"/>
  <note>
lslash
</note>
  <outline>
    <contour>
      <point x="541.0" y="1556.0" type="line"/>
      <point x="237.0" y="1556.0" type="line"/>
      <point x="237.0" y="741.0" type="line"/>
      <point x="0.0" y="600.0" type="line"/>
      <point x="111.0" y="405.0" type="line"/>
      <point x="237.0" y="478.0" type="line"/>
      <point x="237.0" y="0.0" type="line"/>
      <point x="541.0" y="0.0" type="line"/>
      <point x="541.0" y="663.0" type="line"/>
      <point x="782.0" y="810.0" type="line"/>
      <point x="666.0" y="1004.0" type="line"/>
      <point x="541.0" y="925.0" type="line"/>
    </contour>
  </outline>
</glyph>
<glyph name="Eng" format="2">
  <advance width="1665.0"/>
  <unicode hex="014A"/>
  <note>
Eng
</note>
  <outline>
    <contour>
      <point x="1009.0" y="-453.0" type="curve" smooth="yes"/>
      <point x="1304.0" y="-453.0"/>
      <point x="1477.0" y="-289.0"/>
      <point x="1477.0" y="-6.0" type="curve" smooth="yes"/>
      <point x="1477.0" y="1462.0" type="line"/>
      <point x="1201.0" y="1462.0" type="line"/>
      <point x="1201.0" y="905.0" type="line" smooth="yes"/>
      <point x="1201.0" y="784.0"/>
      <point x="1205.0" y="651.0"/>
      <point x="1215.0" y="507.0" type="curve"/>
      <point x="1207.0" y="507.0" type="line"/>
      <point x="547.0" y="1462.0" type="line"/>
      <point x="184.0" y="1462.0" type="line"/>
      <point x="184.0" y="0.0" type="line"/>
      <point x="458.0" y="0.0" type="line"/>
      <point x="458.0" y="714.0" type="line" smooth="yes"/>
      <point x="458.0" y="844.0"/>
      <point x="453.0" y="975.0"/>
      <point x="441.0" y="1110.0" type="curve"/>
      <point x="450.0" y="1110.0" type="line"/>
      <point x="1294.0" y="-114.0" type="line"/>
      <point x="1207.0" y="117.0" type="line"/>
      <point x="1238.0" y="-100.0"/>
      <point x="1177.0" y="-210.0"/>
      <point x="973.0" y="-210.0" type="curve" smooth="yes"/>
      <point x="918.0" y="-210.0"/>
      <point x="882.0" y="-205.0"/>
      <point x="807.0" y="-190.0" type="curve"/>
      <point x="807.0" y="-431.0" type="line"/>
      <point x="863.0" y="-445.0"/>
      <point x="931.0" y="-453.0"/>
    </contour>
  </outline>
</glyph>
<glyph name="eng" format="2">
  <advance width="1346.0"/>
  <unicode hex="014B"/>
  <note>
eng
</note>
  <outline>
    <contour>
      <point x="830.0" y="-492.0" type="curve" smooth="yes"/>
      <point x="1060.0" y="-492.0"/>
      <point x="1191.0" y="-357.0"/>
      <point x="1191.0" y="-128.0" type="curve" smooth="yes"/>
      <point x="1191.0" y="729.0" type="line" smooth="yes"/>
      <point x="1191.0" y="991.0"/>
      <point x="1050.0" y="1139.0"/>
      <point x="796.0" y="1139.0" type="curve" smooth="yes"/>
      <point x="646.0" y="1139.0"/>
      <point x="520.0" y="1085.0"/>
      <point x="451.0" y="976.0" type="curve"/>
      <point x="432.0" y="976.0" type="line"/>
      <point x="392.0" y="1119.0" type="line"/>
      <point x="160.0" y="1119.0" type="line"/>
      <point x="160.0" y="0.0" type="line"/>
      <point x="463.0" y="0.0" type="line"/>
      <point x="463.0" y="527.0" type="line" smooth="yes"/>
      <point x="463.0" y="666.0"/>
      <point x="482.0" y="760.0"/>
      <point x="524.0" y="819.0" type="curve" smooth="yes"/>
      <point x="563.0" y="874.0"/>
      <point x="622.0" y="898.0"/>
      <point x="703.0" y="898.0" type="curve" smooth="yes"/>
      <point x="825.0" y="898.0"/>
      <point x="887.0" y="823.0"/>
      <point x="887.0" y="670.0" type="curve" smooth="yes"/>
      <point x="887.0" y="-75.0" type="line" smooth="yes"/>
      <point x="887.0" y="-189.0"/>
      <point x="845.0" y="-246.0"/>
      <point x="762.0" y="-246.0" type="curve" smooth="yes"/>
      <point x="727.0" y="-246.0"/>
      <point x="687.0" y="-240.0"/>
      <point x="641.0" y="-228.0" type="curve"/>
      <point x="641.0" y="-467.0" type="line"/>
      <point x="694.0" y="-481.0"/>
      <point x="772.0" y="-492.0"/>
    </contour>
  </outline>
</glyph>
<glyph name="OE" format="2">
  <advance width="1993.0"/>
  <unicode hex="0152"/>
  <note>
OE
</note>
  <anchor x="970.0" y="0.0" name="bottom"/>
  <anchor x="970.0" y="1462.0" name="top"/>
  <outline>
    <contour>
      <point x="784.0" y="-19.0" type="curve" smooth="yes"/>
      <point x="858.0" y="-19.0"/>
      <point x="961.0" y="-11.0"/>
      <point x="1008.0" y="0.0" type="curve"/>
      <point x="1826.0" y="0.0" type="line"/>
      <point x="1826.0" y="254.0" type="line"/>
      <point x="1298.0" y="254.0" type="line"/>
      <point x="1298.0" y="635.0" type="line"/>
      <point x="1788.0" y="635.0" type="line"/>
      <point x="1788.0" y="885.0" type="line"/>
      <point x="1298.0" y="885.0" type="line"/>
      <point x="1298.0" y="1212.0" type="line"/>
      <point x="1826.0" y="1212.0" type="line"/>
      <point x="1826.0" y="1462.0" type="line"/>
      <point x="1016.0" y="1462.0" type="line"/>
      <point x="967.0" y="1474.0"/>
      <point x="864.0" y="1483.0"/>
      <point x="786.0" y="1483.0" type="curve" smooth="yes"/>
      <point x="364.0" y="1483.0"/>
      <point x="119.0" y="1209.0"/>
      <point x="119.0" y="735.0" type="curve" smooth="yes"/>
      <point x="119.0" y="263.0"/>
      <point x="365.0" y="-19.0"/>
    </contour>
    <contour>
      <point x="786.0" y="240.0" type="curve" smooth="yes"/>
      <point x="563.0" y="240.0"/>
      <point x="444.0" y="416.0"/>
      <point x="444.0" y="733.0" type="curve" smooth="yes"/>
      <point x="444.0" y="1053.0"/>
      <point x="566.0" y="1227.0"/>
      <point x="788.0" y="1227.0" type="curve" smooth="yes"/>
      <point x="868.0" y="1227.0"/>
      <point x="946.0" y="1213.0"/>
      <point x="990.0" y="1188.0" type="curve"/>
      <point x="990.0" y="276.0" type="line"/>
      <point x="941.0" y="252.0"/>
      <point x="874.0" y="240.0"/>
    </contour>
  </outline>
</glyph>
<glyph name="oe" format="2">
  <advance width="2003.0"/>
  <unicode hex="0153"/>
  <note>
oe
</note>
  <anchor x="990.0" y="0.0" name="bottom"/>
  <anchor x="990.0" y="1119.0" name="top"/>
  <outline>
    <contour>
      <point x="629.0" y="-20.0" type="curve" smooth="yes"/>
      <point x="807.0" y="-20.0"/>
      <point x="939.0" y="41.0"/>
      <point x="1034.0" y="156.0" type="curve"/>
      <point x="1123.0" y="40.0"/>
      <point x="1257.0" y="-20.0"/>
      <point x="1431.0" y="-20.0" type="curve" smooth="yes"/>
      <point x="1593.0" y="-20.0"/>
      <point x="1701.0" y="-1.0"/>
      <point x="1824.0" y="59.0" type="curve"/>
      <point x="1824.0" y="282.0" type="line"/>
      <point x="1702.0" y="225.0"/>
      <point x="1594.0" y="202.0"/>
      <point x="1467.0" y="202.0" type="curve" smooth="yes"/>
      <point x="1287.0" y="202.0"/>
      <point x="1176.0" y="306.0"/>
      <point x="1172.0" y="482.0" type="curve"/>
      <point x="1888.0" y="482.0" type="line"/>
      <point x="1888.0" y="626.0" type="line" smooth="yes"/>
      <point x="1888.0" y="950.0"/>
      <point x="1709.0" y="1139.0"/>
      <point x="1420.0" y="1139.0" type="curve" smooth="yes"/>
      <point x="1248.0" y="1139.0"/>
      <point x="1114.0" y="1082.0"/>
      <point x="1020.0" y="967.0" type="curve"/>
      <point x="928.0" y="1082.0"/>
      <point x="801.0" y="1139.0"/>
      <point x="635.0" y="1139.0" type="curve" smooth="yes"/>
      <point x="293.0" y="1139.0"/>
      <point x="92.0" y="927.0"/>
      <point x="92.0" y="562.0" type="curve" smooth="yes"/>
      <point x="92.0" y="211.0"/>
      <point x="296.0" y="-20.0"/>
    </contour>
    <contour>
      <point x="633.0" y="210.0" type="curve" smooth="yes"/>
      <point x="563.0" y="210.0"/>
      <point x="510.0" y="235.0"/>
      <point x="473.0" y="279.0" type="curve" smooth="yes"/>
      <point x="423.0" y="341.0"/>
      <point x="402.0" y="443.0"/>
      <point x="402.0" y="562.0" type="curve" smooth="yes"/>
      <point x="402.0" y="688.0"/>
      <point x="426.0" y="783.0"/>
      <point x="472.0" y="840.0" type="curve" smooth="yes"/>
      <point x="509.0" y="886.0"/>
      <point x="563.0" y="909.0"/>
      <point x="631.0" y="909.0" type="curve" smooth="yes"/>
      <point x="700.0" y="909.0"/>
      <point x="753.0" y="884.0"/>
      <point x="788.0" y="837.0" type="curve" smooth="yes"/>
      <point x="835.0" y="781.0"/>
      <point x="856.0" y="688.0"/>
      <point x="856.0" y="562.0" type="curve" smooth="yes"/>
      <point x="856.0" y="449.0"/>
      <point x="841.0" y="362.0"/>
      <point x="804.0" y="303.0" type="curve" smooth="yes"/>
      <point x="767.0" y="242.0"/>
      <point x="711.0" y="210.0"/>
    </contour>
    <contour>
      <point x="1177.0" y="680.0" type="line"/>
      <point x="1189.0" y="842.0"/>
      <point x="1266.0" y="927.0"/>
      <point x="1404.0" y="927.0" type="curve" smooth="yes"/>
      <point x="1527.0" y="927.0"/>
      <point x="1609.0" y="832.0"/>
      <point x="1611.0" y="680.0" type="curve"/>
    </contour>
  </outline>
</glyph>
<glyph name="Tbar" format="2">
  <advance width="1186.0"/>
  <unicode hex="0166"/>
  <note>
Tbar
</note>
  <outline>
    <contour>
      <point x="181.0" y="848.0" type="line"/>
      <point x="181.0" y="592.0" type="line"/>
      <point x="433.0" y="592.0" type="line"/>
      <point x="433.0" y="0.0" type="line"/>
      <point x="741.0" y="0.0" type="line"/>
      <point x="741.0" y="592.0" type="line"/>
      <point x="994.0" y="592.0" type="line"/>
      <point x="994.0" y="848.0" type="line"/>
      <point x="741.0" y="848.0" type="line"/>
      <point x="741.0" y="1207.0" type="line"/>
      <point x="1132.0" y="1207.0" type="line"/>
      <point x="1132.0" y="1462.0" type="line"/>
      <point x="41.0" y="1462.0" type="line"/>
      <point x="41.0" y="1207.0" type="line"/>
      <point x="433.0" y="1207.0" type="line"/>
      <point x="433.0" y="848.0" type="line"/>
    </contour>
  </outline>
</glyph>
<glyph name="tbar" format="2">
	<unicode hex="0167"/>
	<advance width="889"/>
	<outline>
		<contour>
			<point x="535" y="-20" type="curve" smooth="yes"/>
			<point x="648" y="-20"/>
			<point x="746" y="-3"/>
			<point x="828" y="31" type="curve"/>
			<point x="828" y="259" type="line"/>
			<point x="752" y="236"/>
			<point x="698" y="223"/>
			<point x="626" y="223" type="curve" smooth="yes"/>
			<point x="541" y="223"/>
			<point x="497" y="264"/>
			<point x="497" y="373" type="curve" smooth="yes"/>
			<point x="497" y="491" type="line"/>
			<point x="774" y="491" type="line"/>
			<point x="774" y="688" type="line"/>
			<point x="497" y="688" type="line"/>
			<point x="497" y="888" type="line"/>
			<point x="809" y="888" type="line"/>
			<point x="809" y="1119" type="line"/>
			<point x="497" y="1119" type="line"/>
			<point x="497" y="1357" type="line"/>
			<point x="302" y="1357" type="line"/>
			<point x="217" y="1117" type="line"/>
			<point x="47" y="1017" type="line"/>
			<point x="47" y="888" type="line"/>
			<point x="191" y="888" type="line"/>
			<point x="191" y="688" type="line"/>
			<point x="66" y="688" type="line"/>
			<point x="66" y="491" type="line"/>
			<point x="191" y="491" type="line"/>
			<point x="191" y="351" type="line" smooth="yes"/>
			<point x="191" y="98"/>
			<point x="293" y="-20"/>
		</contour>
	</outline>
	<note>
		tbar
	</note>
</glyph>
<glyph name="longs" format="2">
  <advance width="784.0"/>
  <unicode hex="017F"/>
  <note>
longs
</note>
  <anchor x="394.0" y="0.0" name="bottom"/>
  <anchor x="394.0" y="1119.0" name="top"/>
  <outline>
    <contour>
      <point x="160.0" y="0.0" type="line"/>
      <point x="463.0" y="0.0" type="line"/>
      <point x="463.0" y="1152.0" type="line" smooth="yes"/>
      <point x="463.0" y="1212.0"/>
      <point x="471.0" y="1254.0"/>
      <point x="485.0" y="1285.0" type="curve" smooth="yes"/>
      <point x="507.0" y="1327.0"/>
      <point x="545.0" y="1344.0"/>
      <point x="604.0" y="1344.0" type="curve" smooth="yes"/>
      <point x="661.0" y="1344.0"/>
      <point x="687.0" y="1335.0"/>
      <point x="761.0" y="1313.0" type="curve"/>
      <point x="820.0" y="1521.0" type="line"/>
      <point x="743.0" y="1552.0"/>
      <point x="651.0" y="1567.0"/>
      <point x="546.0" y="1567.0" type="curve" smooth="yes"/>
      <point x="269.0" y="1567.0"/>
      <point x="160.0" y="1455.0"/>
      <point x="160.0" y="1155.0" type="curve" smooth="yes"/>
    </contour>
  </outline>
</glyph>
<glyph name="ohorn" format="2">
  <advance width="1391.0"/>
  <unicode hex="01A1"/>
  <note>
ohorn
</note>
  <anchor x="694.0" y="0.0" name="bottom"/>
  <anchor x="694.0" y="1119.0" name="top"/>
  <outline>
    <contour>
      <point x="629.0" y="-20.0" type="curve" smooth="yes"/>
      <point x="971.0" y="-20.0"/>
      <point x="1172.0" y="196.0"/>
      <point x="1172.0" y="562.0" type="curve" smooth="yes"/>
      <point x="1172.0" y="667.0"/>
      <point x="1156.0" y="760.0"/>
      <point x="1122.0" y="841.0" type="curve"/>
      <point x="1325.0" y="898.0"/>
      <point x="1408.0" y="1029.0"/>
      <point x="1445.0" y="1266.0" type="curve"/>
      <point x="1431.0" y="1286.0" type="line"/>
      <point x="1138.0" y="1286.0" type="line"/>
      <point x="1136.0" y="1129.0"/>
      <point x="1095.0" y="1032.0"/>
      <point x="1021.0" y="1001.0" type="curve"/>
      <point x="925.0" y="1094.0"/>
      <point x="787.0" y="1139.0"/>
      <point x="635.0" y="1139.0" type="curve" smooth="yes"/>
      <point x="293.0" y="1139.0"/>
      <point x="92.0" y="927.0"/>
      <point x="92.0" y="562.0" type="curve" smooth="yes"/>
      <point x="92.0" y="211.0"/>
      <point x="296.0" y="-20.0"/>
    </contour>
    <contour>
      <point x="633.0" y="225.0" type="curve" smooth="yes"/>
      <point x="557.0" y="225.0"/>
      <point x="500.0" y="252.0"/>
      <point x="462.0" y="307.0" type="curve" smooth="yes"/>
      <point x="423.0" y="363.0"/>
      <point x="402.0" y="450.0"/>
      <point x="402.0" y="562.0" type="curve" smooth="yes"/>
      <point x="402.0" y="696.0"/>
      <point x="429.0" y="790.0"/>
      <point x="484.0" y="843.0" type="curve" smooth="yes"/>
      <point x="520.0" y="878.0"/>
      <point x="570.0" y="895.0"/>
      <point x="631.0" y="895.0" type="curve" smooth="yes"/>
      <point x="697.0" y="895.0"/>
      <point x="749.0" y="875.0"/>
      <point x="786.0" y="835.0" type="curve" smooth="yes"/>
      <point x="838.0" y="781.0"/>
      <point x="862.0" y="689.0"/>
      <point x="862.0" y="562.0" type="curve" smooth="yes"/>
      <point x="862.0" y="454.0"/>
      <point x="844.0" y="371.0"/>
      <point x="807.0" y="314.0" type="curve" smooth="yes"/>
      <point x="769.0" y="255.0"/>
      <point x="712.0" y="225.0"/>
    </contour>
  </outline>
</glyph>
<glyph name="Uhorn" format="2">
  <advance width="1812.0"/>
  <unicode hex="01AF"/>
  <note>
Uhorn
</note>
  <anchor x="767.0" y="0.0" name="bottom"/>
  <anchor x="777.0" y="1462.0" name="top"/>
  <outline>
    <contour>
      <point x="763.0" y="-20.0" type="curve" smooth="yes"/>
      <point x="1125.0" y="-20.0"/>
      <point x="1377.0" y="173.0"/>
      <point x="1377.0" y="516.0" type="curve" smooth="yes"/>
      <point x="1377.0" y="1077.0" type="line"/>
      <point x="1476.0" y="1091.0"/>
      <point x="1556.0" y="1119.0"/>
      <point x="1619.0" y="1161.0" type="curve" smooth="yes"/>
      <point x="1731.0" y="1232.0"/>
      <point x="1792.0" y="1333.0"/>
      <point x="1831.0" y="1535.0" type="curve"/>
      <point x="1817.0" y="1556.0" type="line"/>
      <point x="1522.0" y="1556.0" type="line"/>
      <point x="1522.0" y="1401.0"/>
      <point x="1474.0" y="1297.0"/>
      <point x="1377.0" y="1258.0" type="curve"/>
      <point x="1377.0" y="1462.0" type="line"/>
      <point x="1070.0" y="1462.0" type="line"/>
      <point x="1070.0" y="549.0" type="line" smooth="yes"/>
      <point x="1070.0" y="339.0"/>
      <point x="974.0" y="237.0"/>
      <point x="775.0" y="237.0" type="curve" smooth="yes"/>
      <point x="572.0" y="237.0"/>
      <point x="483.0" y="336.0"/>
      <point x="483.0" y="550.0" type="curve" smooth="yes"/>
      <point x="483.0" y="1462.0" type="line"/>
      <point x="174.0" y="1462.0" type="line"/>
      <point x="174.0" y="520.0" type="line" smooth="yes"/>
      <point x="174.0" y="183.0"/>
      <point x="390.0" y="-20.0"/>
    </contour>
  </outline>
</glyph>
<glyph name="uhorn" format="2">
  <advance width="1556.0"/>
  <unicode hex="01B0"/>
  <note>
uhorn
</note>
  <anchor x="780.0" y="0.0" name="bottom"/>
  <anchor x="780.0" y="1119.0" name="top"/>
  <outline>
    <contour>
      <point x="549.0" y="-20.0" type="curve" smooth="yes"/>
      <point x="702.0" y="-20.0"/>
      <point x="825.0" y="38.0"/>
      <point x="892.0" y="144.0" type="curve"/>
      <point x="912.0" y="144.0" type="line"/>
      <point x="952.0" y="0.0" type="line"/>
      <point x="1184.0" y="0.0" type="line"/>
      <point x="1184.0" y="806.0" type="line"/>
      <point x="1315.0" y="828.0"/>
      <point x="1402.0" y="870.0"/>
      <point x="1466.0" y="929.0" type="curve" smooth="yes"/>
      <point x="1544.0" y="999.0"/>
      <point x="1589.0" y="1091.0"/>
      <point x="1618.0" y="1267.0" type="curve"/>
      <point x="1603.0" y="1288.0" type="line"/>
      <point x="1309.0" y="1288.0" type="line"/>
      <point x="1309.0" y="1221.0"/>
      <point x="1302.0" y="1163.0"/>
      <point x="1289.0" y="1117.0" type="curve" smooth="yes"/>
      <point x="1270.0" y="1052.0"/>
      <point x="1235.0" y="1007.0"/>
      <point x="1184.0" y="989.0" type="curve"/>
      <point x="1184.0" y="1119.0" type="line"/>
      <point x="879.0" y="1119.0" type="line"/>
      <point x="879.0" y="592.0" type="line" smooth="yes"/>
      <point x="879.0" y="328.0"/>
      <point x="808.0" y="223.0"/>
      <point x="647.0" y="223.0" type="curve" smooth="yes"/>
      <point x="513.0" y="223.0"/>
      <point x="457.0" y="300.0"/>
      <point x="457.0" y="475.0" type="curve" smooth="yes"/>
      <point x="457.0" y="1119.0" type="line"/>
      <point x="154.0" y="1119.0" type="line"/>
      <point x="154.0" y="390.0" type="line" smooth="yes"/>
      <point x="154.0" y="125.0"/>
      <point x="294.0" y="-20.0"/>
    </contour>
  </outline>
</glyph>
<glyph name="jdotless" format="2">
  <advance width="625.0"/>
  <unicode hex="0237"/>
  <note>
uni0237
</note>
  <anchor x="273.0" y="0.0" name="bottom"/>
  <anchor x="273.0" y="1119.0" name="top"/>
  <outline>
    <contour>
      <point x="56.0" y="-492.0" type="curve" smooth="yes"/>
      <point x="291.0" y="-492.0"/>
      <point x="424.0" y="-356.0"/>
      <point x="424.0" y="-128.0" type="curve" smooth="yes"/>
      <point x="424.0" y="1119.0" type="line"/>
      <point x="120.0" y="1119.0" type="line"/>
      <point x="120.0" y="-75.0" type="line" smooth="yes"/>
      <point x="120.0" y="-141.0"/>
      <point x="106.0" y="-188.0"/>
      <point x="77.0" y="-216.0" type="curve" smooth="yes"/>
      <point x="56.0" y="-236.0"/>
      <point x="28.0" y="-246.0"/>
      <point x="-8.0" y="-246.0" type="curve" smooth="yes"/>
      <point x="-46.0" y="-246.0"/>
      <point x="-87.0" y="-240.0"/>
      <point x="-131.0" y="-228.0" type="curve"/>
      <point x="-131.0" y="-467.0" type="line"/>
      <point x="-86.0" y="-481.0"/>
      <point x="-4.0" y="-492.0"/>
    </contour>
  </outline>
</glyph>
<glyph name="apostrophemod" format="2">
	<unicode hex="02BC"/>
	<advance width="444"/>
	<outline>
		<contour>
			<point x="27" y="902" type="curve"/>
			<point x="241" y="902" type="line"/>
			<point x="301" y="1036"/>
			<point x="360" y="1215"/>
			<point x="418" y="1439" type="curve"/>
			<point x="403" y="1461" type="line"/>
			<point x="129" y="1461" type="line"/>
			<point x="108" y="1291"/>
			<point x="71" y="1088"/>
		</contour>
	</outline>
	<note>
		afii57929
	</note>
</glyph>
<glyph name="lowringmod" format="2">
  <advance width="682.0"/>
  <unicode hex="02F3"/>
  <note>
uni02F3
</note>
  <anchor x="340.0" y="1.0" name="_bottom"/>
  <outline>
    <contour>
      <point x="339.0" y="-585.0" type="curve" smooth="yes"/>
      <point x="489.0" y="-585.0"/>
      <point x="593.0" y="-489.0"/>
      <point x="593.0" y="-344.0" type="curve" smooth="yes"/>
      <point x="593.0" y="-203.0"/>
      <point x="486.0" y="-105.0"/>
      <point x="339.0" y="-105.0" type="curve" smooth="yes"/>
      <point x="187.0" y="-105.0"/>
      <point x="88.0" y="-201.0"/>
      <point x="88.0" y="-345.0" type="curve" smooth="yes"/>
      <point x="88.0" y="-492.0"/>
      <point x="188.0" y="-585.0"/>
    </contour>
    <contour>
      <point x="340.0" y="-446.0" type="curve" smooth="yes"/>
      <point x="276.0" y="-446.0"/>
      <point x="241.0" y="-406.0"/>
      <point x="241.0" y="-345.0" type="curve" smooth="yes"/>
      <point x="241.0" y="-286.0"/>
      <point x="282.0" y="-244.0"/>
      <point x="340.0" y="-244.0" type="curve" smooth="yes"/>
      <point x="398.0" y="-244.0"/>
      <point x="440.0" y="-285.0"/>
      <point x="440.0" y="-345.0" type="curve" smooth="yes"/>
      <point x="440.0" y="-406.0"/>
      <point x="398.0" y="-446.0"/>
    </contour>
  </outline>
</glyph>
<glyph name="gravecomb" format="2">
  <unicode hex="0300"/>
  <note>
gravecomb
</note>
  <anchor x="115.0" y="1124.0" name="_top"/>
  <anchor x="0.0" y="1569.0" name="top"/>
  <outline>
    <contour>
      <point x="97.0" y="1241.0" type="curve"/>
      <point x="300.0" y="1241.0" type="line"/>
      <point x="300.0" y="1266.0" type="line"/>
      <point x="163.0" y="1415.0"/>
      <point x="79.0" y="1516.0"/>
      <point x="44.0" y="1569.0" type="curve"/>
      <point x="-300.0" y="1569.0" type="line"/>
      <point x="-300.0" y="1549.0" type="line"/>
      <point x="-199.0" y="1461.0"/>
      <point x="-6.0" y="1314.0"/>
    </contour>
  </outline>
</glyph>
<glyph name="acutecomb" format="2">
  <unicode hex="0301"/>
  <note>
acutecomb
</note>
  <anchor x="-122.0" y="1131.0" name="_top"/>
  <anchor x="-1.0" y="1569.0" name="top"/>
  <outline>
    <contour>
      <point x="-300.0" y="1241.0" type="line"/>
      <point x="-97.0" y="1241.0" type="line"/>
      <point x="13.0" y="1318.0"/>
      <point x="211.0" y="1469.0"/>
      <point x="300.0" y="1549.0" type="curve"/>
      <point x="300.0" y="1569.0" type="line"/>
      <point x="-43.0" y="1569.0" type="line"/>
      <point x="-93.0" y="1494.0"/>
      <point x="-189.0" y="1384.0"/>
      <point x="-300.0" y="1266.0" type="curve"/>
    </contour>
  </outline>
</glyph>
<glyph name="circumflexcomb" format="2">
	<unicode hex="0302"/>
	<outline>
		<contour>
			<point x="30" y="1241" type="line"/>
			<point x="231" y="1241" type="line"/>
			<point x="260" y="1261"/>
			<point x="293" y="1287"/>
			<point x="329" y="1317" type="curve" smooth="yes"/>
			<point x="361" y="1344"/>
			<point x="396" y="1374"/>
			<point x="434" y="1408" type="curve"/>
			<point x="471" y="1373"/>
			<point x="507" y="1342"/>
			<point x="542" y="1314" type="curve" smooth="yes"/>
			<point x="576" y="1287"/>
			<point x="609" y="1262"/>
			<point x="640" y="1241" type="curve"/>
			<point x="839" y="1241" type="line"/>
			<point x="839" y="1266" type="line"/>
			<point x="729" y="1380"/>
			<point x="645" y="1481"/>
			<point x="587" y="1569" type="curve"/>
			<point x="283" y="1569" type="line"/>
			<point x="231" y="1488"/>
			<point x="119" y="1354"/>
			<point x="30" y="1266" type="curve"/>
		</contour>
	</outline>
	<anchor name="_top" x="435" y="1131"/>
	<anchor name="top" x="435" y="1569"/>
	<note>
		circumflex
	</note>
</glyph>
<glyph name="tildecomb" format="2">
  <unicode hex="0303"/>
  <note>
tildecomb
</note>
  <anchor x="-6.0" y="1131.0" name="_top"/>
  <anchor x="1.0" y="1551.0" name="top"/>
  <outline>
    <contour>
      <point x="-400.0" y="1239.0" type="curve"/>
      <point x="-252.0" y="1239.0" type="line"/>
      <point x="-236.0" y="1319.0"/>
      <point x="-208.0" y="1354.0"/>
      <point x="-165.0" y="1354.0" type="curve" smooth="yes"/>
      <point x="-117.0" y="1354.0"/>
      <point x="-66.0" y="1328.0"/>
      <point x="-12.0" y="1301.0" type="curve" smooth="yes"/>
      <point x="55.0" y="1263.0"/>
      <point x="111.0" y="1240.0"/>
      <point x="168.0" y="1240.0" type="curve" smooth="yes"/>
      <point x="301.0" y="1240.0"/>
      <point x="383.0" y="1348.0"/>
      <point x="400.0" y="1551.0" type="curve"/>
      <point x="250.0" y="1551.0" type="line"/>
      <point x="235.0" y="1473.0"/>
      <point x="208.0" y="1436.0"/>
      <point x="162.0" y="1436.0" type="curve" smooth="yes"/>
      <point x="114.0" y="1436.0"/>
      <point x="61.0" y="1463.0"/>
      <point x="6.0" y="1491.0" type="curve" smooth="yes"/>
      <point x="-53.0" y="1521.0"/>
      <point x="-108.0" y="1550.0"/>
      <point x="-163.0" y="1550.0" type="curve" smooth="yes"/>
      <point x="-308.0" y="1550.0"/>
      <point x="-385.0" y="1446.0"/>
    </contour>
  </outline>
</glyph>
<glyph name="macroncomb" format="2">
  <unicode hex="0304"/>
  <anchor x="299.0" y="1131.0" name="_top"/>
  <anchor x="300.0" y="1434.0" name="top"/>
  <outline>
    <contour>
      <point x="-38.0" y="1244.0" type="line"/>
      <point x="638.0" y="1244.0" type="line"/>
      <point x="638.0" y="1434.0" type="line"/>
      <point x="-38.0" y="1434.0" type="line"/>
    </contour>
  </outline>
</glyph>
<glyph name="brevecomb" format="2">
  <unicode hex="0306"/>
  <note>
breve
</note>
  <anchor x="622.0" y="1131.0" name="_top"/>
  <anchor x="622.0" y="1574.0" name="top"/>
  <outline>
    <contour>
      <point x="619.0" y="1241.0" type="curve" smooth="yes"/>
      <point x="838.0" y="1241.0"/>
      <point x="972.0" y="1366.0"/>
      <point x="988.0" y="1574.0" type="curve"/>
      <point x="810.0" y="1574.0" type="line"/>
      <point x="787.0" y="1476.0"/>
      <point x="730.0" y="1434.0"/>
      <point x="619.0" y="1434.0" type="curve" smooth="yes"/>
      <point x="495.0" y="1434.0"/>
      <point x="452.0" y="1467.0"/>
      <point x="428.0" y="1574.0" type="curve"/>
      <point x="255.0" y="1574.0" type="line"/>
      <point x="268.0" y="1357.0"/>
      <point x="394.0" y="1241.0"/>
    </contour>
  </outline>
</glyph>
<glyph name="dotaccentcomb" format="2">
  <unicode hex="0307"/>
  <note>
dotaccent
</note>
  <anchor x="313.0" y="1119.0" name="_top"/>
  <anchor x="313.0" y="1558.0" name="top"/>
  <outline>
    <contour>
      <point x="312.0" y="1258.0" type="curve" smooth="yes"/>
      <point x="422.0" y="1258.0"/>
      <point x="478.0" y="1309.0"/>
      <point x="478.0" y="1407.0" type="curve" smooth="yes"/>
      <point x="478.0" y="1506.0"/>
      <point x="426.0" y="1558.0"/>
      <point x="312.0" y="1558.0" type="curve" smooth="yes"/>
      <point x="198.0" y="1558.0"/>
      <point x="148.0" y="1508.0"/>
      <point x="148.0" y="1407.0" type="curve" smooth="yes"/>
      <point x="148.0" y="1307.0"/>
      <point x="203.0" y="1258.0"/>
    </contour>
  </outline>
</glyph>
<glyph name="dieresiscomb" format="2">
  <unicode hex="0308"/>
  <note>
dieresis
</note>
  <anchor x="622.0" y="1131.0" name="_top"/>
  <anchor x="622.0" y="1542.0" name="top"/>
  <outline>
    <contour>
      <point x="846.0" y="1271.0" type="curve" smooth="yes"/>
      <point x="934.0" y="1271.0"/>
      <point x="986.0" y="1322.0"/>
      <point x="986.0" y="1406.0" type="curve" smooth="yes"/>
      <point x="986.0" y="1490.0"/>
      <point x="934.0" y="1542.0"/>
      <point x="846.0" y="1542.0" type="curve" smooth="yes"/>
      <point x="758.0" y="1542.0"/>
      <point x="707.0" y="1494.0"/>
      <point x="707.0" y="1406.0" type="curve" smooth="yes"/>
      <point x="707.0" y="1321.0"/>
      <point x="758.0" y="1271.0"/>
    </contour>
    <contour>
      <point x="395.0" y="1271.0" type="curve" smooth="yes"/>
      <point x="481.0" y="1271.0"/>
      <point x="534.0" y="1322.0"/>
      <point x="534.0" y="1406.0" type="curve" smooth="yes"/>
      <point x="534.0" y="1491.0"/>
      <point x="481.0" y="1542.0"/>
      <point x="395.0" y="1542.0" type="curve" smooth="yes"/>
      <point x="309.0" y="1542.0"/>
      <point x="257.0" y="1494.0"/>
      <point x="257.0" y="1406.0" type="curve" smooth="yes"/>
      <point x="257.0" y="1319.0"/>
      <point x="309.0" y="1271.0"/>
    </contour>
  </outline>
</glyph>
<glyph name="ringcomb" format="2">
  <unicode hex="030A"/>
  <note>
ring
</note>
  <anchor x="592.0" y="1119.0" name="_top"/>
  <anchor x="592.0" y="1720.0" name="top"/>
  <outline>
    <contour>
      <point x="589.0" y="1239.0" type="curve" smooth="yes"/>
      <point x="739.0" y="1239.0"/>
      <point x="844.0" y="1336.0"/>
      <point x="844.0" y="1481.0" type="curve" smooth="yes"/>
      <point x="844.0" y="1622.0"/>
      <point x="737.0" y="1720.0"/>
      <point x="589.0" y="1720.0" type="curve" smooth="yes"/>
      <point x="437.0" y="1720.0"/>
      <point x="339.0" y="1625.0"/>
      <point x="339.0" y="1479.0" type="curve" smooth="yes"/>
      <point x="339.0" y="1333.0"/>
      <point x="437.0" y="1239.0"/>
    </contour>
    <contour>
      <point x="589.0" y="1378.0" type="curve" smooth="yes"/>
      <point x="525.0" y="1378.0"/>
      <point x="489.0" y="1418.0"/>
      <point x="489.0" y="1479.0" type="curve" smooth="yes"/>
      <point x="489.0" y="1540.0"/>
      <point x="531.0" y="1580.0"/>
      <point x="589.0" y="1580.0" type="curve" smooth="yes"/>
      <point x="645.0" y="1580.0"/>
      <point x="689.0" y="1540.0"/>
      <point x="689.0" y="1479.0" type="curve" smooth="yes"/>
      <point x="689.0" y="1418.0"/>
      <point x="647.0" y="1378.0"/>
    </contour>
  </outline>
</glyph>
<glyph name="hungarumlautcomb" format="2">
  <unicode hex="030B"/>
  <note>
hungarumlaut
</note>
  <anchor x="581.0" y="1119.0" name="_top"/>
  <anchor x="602.0" y="1569.0" name="top"/>
  <outline>
    <contour>
      <point x="563.0" y="1241.0" type="line"/>
      <point x="726.0" y="1241.0" type="line"/>
      <point x="863.0" y="1339.0"/>
      <point x="1014.0" y="1469.0"/>
      <point x="1066.0" y="1549.0" type="curve"/>
      <point x="1066.0" y="1569.0" type="line"/>
      <point x="764.0" y="1569.0" type="line"/>
      <point x="724.0" y="1492.0"/>
      <point x="663.0" y="1397.0"/>
      <point x="563.0" y="1266.0" type="curve"/>
    </contour>
    <contour>
      <point x="138.0" y="1241.0" type="line"/>
      <point x="301.0" y="1241.0" type="line"/>
      <point x="458.0" y="1355.0"/>
      <point x="589.0" y="1472.0"/>
      <point x="639.0" y="1549.0" type="curve"/>
      <point x="639.0" y="1569.0" type="line"/>
      <point x="339.0" y="1569.0" type="line"/>
      <point x="298.0" y="1493.0"/>
      <point x="237.0" y="1397.0"/>
      <point x="138.0" y="1266.0" type="curve"/>
    </contour>
  </outline>
</glyph>
<glyph name="caroncomb" format="2">
  <unicode hex="030C"/>
  <note>
caron
</note>
  <anchor x="622.0" y="1119.0" name="_top"/>
  <anchor x="622.0" y="1569.0" name="top"/>
  <outline>
    <contour>
      <point x="470.0" y="1241.0" type="curve"/>
      <point x="774.0" y="1241.0" type="line"/>
      <point x="791.0" y="1268.0"/>
      <point x="813.0" y="1297.0"/>
      <point x="838.0" y="1328.0" type="curve" smooth="yes"/>
      <point x="893.0" y="1398.0"/>
      <point x="961.0" y="1476.0"/>
      <point x="1026.0" y="1544.0" type="curve"/>
      <point x="1026.0" y="1569.0" type="line"/>
      <point x="827.0" y="1569.0" type="line"/>
      <point x="766.0" y="1528.0"/>
      <point x="697.0" y="1472.0"/>
      <point x="621.0" y="1402.0" type="curve"/>
      <point x="541.0" y="1474.0"/>
      <point x="473.0" y="1530.0"/>
      <point x="418.0" y="1569.0" type="curve"/>
      <point x="217.0" y="1569.0" type="line"/>
      <point x="217.0" y="1544.0" type="line"/>
      <point x="284.0" y="1475.0"/>
      <point x="349.0" y="1402.0"/>
      <point x="401.0" y="1337.0" type="curve" smooth="yes"/>
      <point x="428.0" y="1302.0"/>
      <point x="452.0" y="1270.0"/>
    </contour>
  </outline>
</glyph>
<glyph name="dblgravecomb" format="2">
	<unicode hex="030F"/>
	<outline>
		<contour>
			<point x="266" y="1241" type="curve"/>
			<point x="428" y="1241" type="line"/>
			<point x="428" y="1266" type="line"/>
			<point x="371" y="1340"/>
			<point x="301" y="1461"/>
			<point x="250" y="1569" type="curve"/>
			<point x="-31" y="1569" type="line"/>
			<point x="-31" y="1549" type="line"/>
			<point x="17" y="1474"/>
			<point x="165" y="1322"/>
		</contour>
		<contour>
			<point x="-133" y="1241" type="curve"/>
			<point x="30" y="1241" type="line"/>
			<point x="30" y="1266" type="line"/>
			<point x="-24" y="1334"/>
			<point x="-98" y="1466"/>
			<point x="-148" y="1569" type="curve"/>
			<point x="-428" y="1569" type="line"/>
			<point x="-428" y="1549" type="line"/>
			<point x="-383" y="1477"/>
			<point x="-234" y="1322"/>
		</contour>
	</outline>
	<anchor name="_top" x="1" y="1119"/>
	<anchor name="top" x="1" y="1569"/>
	<note>
		uni030F
	</note>
</glyph>
<glyph name="commaturnedabovecomb" format="2">
  <unicode hex="0312"/>
  <anchor x="283.0" y="1119.0" name="_top"/>
  <anchor x="301.0" y="1569.0" name="top"/>
  <outline>
    <contour>
      <point x="130.0" y="1241.0" type="line"/>
      <point x="414.0" y="1241.0" type="line"/>
      <point x="421.0" y="1315.0"/>
      <point x="444.0" y="1434.0"/>
      <point x="471.0" y="1544.0" type="curve"/>
      <point x="471.0" y="1569.0" type="line"/>
      <point x="293.0" y="1569.0" type="line"/>
      <point x="222.0" y="1473.0"/>
      <point x="171.0" y="1364.0"/>
      <point x="130.0" y="1261.0" type="curve"/>
    </contour>
  </outline>
</glyph>
<glyph name="dotbelowcomb" format="2">
  <unicode hex="0323"/>
  <note>
dotbelowcomb
</note>
  <anchor x="0.0" y="0.0" name="_bottom"/>
  <anchor x="0.0" y="-432.0" name="bottom"/>
  <outline>
    <contour>
      <point x="-2.0" y="-432.0" type="curve" smooth="yes"/>
      <point x="108.0" y="-432.0"/>
      <point x="165.0" y="-381.0"/>
      <point x="165.0" y="-282.0" type="curve" smooth="yes"/>
      <point x="165.0" y="-183.0"/>
      <point x="112.0" y="-131.0"/>
      <point x="-2.0" y="-131.0" type="curve" smooth="yes"/>
      <point x="-115.0" y="-131.0"/>
      <point x="-165.0" y="-180.0"/>
      <point x="-165.0" y="-282.0" type="curve" smooth="yes"/>
      <point x="-165.0" y="-383.0"/>
      <point x="-112.0" y="-432.0"/>
    </contour>
  </outline>
</glyph>
<glyph name="commaaccentcomb" format="2">
  <unicode hex="0326"/>
  <anchor x="310.0" y="0.0" name="_bottom"/>
  <anchor x="301.0" y="-453.0" name="bottom"/>
  <outline>
    <contour>
      <point x="130.0" y="-453.0" type="line"/>
      <point x="310.0" y="-453.0" type="line"/>
      <point x="372.0" y="-363.0"/>
      <point x="429.0" y="-254.0"/>
      <point x="471.0" y="-145.0" type="curve"/>
      <point x="471.0" y="-125.0" type="line"/>
      <point x="189.0" y="-125.0" type="line"/>
      <point x="182.0" y="-214.0"/>
      <point x="154.0" y="-354.0"/>
      <point x="130.0" y="-428.0" type="curve"/>
    </contour>
  </outline>
</glyph>
<glyph name="cedillacomb" format="2">
  <unicode hex="0327"/>
  <note>
cedilla
</note>
  <anchor x="211.0" y="0.0" name="_bottom"/>
  <anchor x="211.0" y="-492.0" name="bottom"/>
  <outline>
    <contour>
      <point x="165.0" y="-492.0" type="curve" smooth="yes"/>
      <point x="329.0" y="-492.0"/>
      <point x="433.0" y="-405.0"/>
      <point x="433.0" y="-264.0" type="curve" smooth="yes"/>
      <point x="433.0" y="-164.0"/>
      <point x="387.0" y="-99.0"/>
      <point x="264.0" y="-55.0" type="curve"/>
      <point x="290.0" y="0.0" type="line"/>
      <point x="119.0" y="0.0" type="line"/>
      <point x="41.0" y="-150.0" type="line"/>
      <point x="141.0" y="-169.0"/>
      <point x="202.0" y="-205.0"/>
      <point x="202.0" y="-255.0" type="curve" smooth="yes"/>
      <point x="202.0" y="-298.0"/>
      <point x="174.0" y="-320.0"/>
      <point x="118.0" y="-320.0" type="curve" smooth="yes"/>
      <point x="76.0" y="-320.0"/>
      <point x="32.0" y="-313.0"/>
      <point x="-13.0" y="-299.0" type="curve"/>
      <point x="-13.0" y="-468.0" type="line"/>
      <point x="28.0" y="-484.0"/>
      <point x="88.0" y="-492.0"/>
    </contour>
  </outline>
</glyph>
<glyph name="ogonekcomb" format="2">
	<unicode hex="0328"/>
	<outline>
		<contour>
			<point x="259" y="-478" type="curve" smooth="yes"/>
			<point x="314" y="-478"/>
			<point x="365" y="-470"/>
			<point x="412" y="-455" type="curve"/>
			<point x="412" y="-275" type="line"/>
			<point x="383" y="-288"/>
			<point x="347" y="-294"/>
			<point x="305" y="-294" type="curve" smooth="yes"/>
			<point x="247" y="-294"/>
			<point x="218" y="-267"/>
			<point x="218" y="-214" type="curve" smooth="yes"/>
			<point x="218" y="-137"/>
			<point x="275" y="-71"/>
			<point x="354" y="0" type="curve"/>
			<point x="178" y="0" type="line"/>
			<point x="62" y="-84"/>
			<point x="11" y="-169"/>
			<point x="11" y="-261" type="curve" smooth="yes"/>
			<point x="11" y="-392"/>
			<point x="111" y="-478"/>
		</contour>
	</outline>
	<anchor name="_ogonek" x="373" y="10"/>
	<note>
		ogonek
	</note>
</glyph>
<glyph name="tonos" format="2">
  <advance width="1182.0"/>
  <unicode hex="0384"/>
  <note>
tonos
</note>
  <anchor x="592.0" y="1112.0" name="_top"/>
  <anchor x="772.0" y="1556.0" name="_topleft"/>
  <outline>
    <contour>
      <point x="412.0" y="1241.0" type="line"/>
      <point x="587.0" y="1241.0" type="line"/>
      <point x="661.0" y="1361.0"/>
      <point x="725.0" y="1497.0"/>
      <point x="771.0" y="1612.0" type="curve"/>
      <point x="771.0" y="1635.0" type="line"/>
      <point x="495.0" y="1635.0" type="line"/>
      <point x="481.0" y="1536.0"/>
      <point x="443.0" y="1363.0"/>
      <point x="412.0" y="1269.0" type="curve"/>
    </contour>
  </outline>
</glyph>
<glyph name="anoteleia" format="2">
  <advance width="584.0"/>
  <unicode hex="0387"/>
  <note>
anoteleia
</note>
  <outline>
    <contour>
      <point x="290.0" y="558.0" type="curve" smooth="yes"/>
      <point x="396.0" y="558.0"/>
      <point x="458.0" y="619.0"/>
      <point x="458.0" y="722.0" type="curve" smooth="yes"/>
      <point x="458.0" y="828.0"/>
      <point x="399.0" y="886.0"/>
      <point x="290.0" y="886.0" type="curve" smooth="yes"/>
      <point x="177.0" y="886.0"/>
      <point x="117.0" y="828.0"/>
      <point x="117.0" y="722.0" type="curve" smooth="yes"/>
      <point x="117.0" y="618.0"/>
      <point x="181.0" y="558.0"/>
    </contour>
  </outline>
</glyph>
<glyph name="Theta" format="2">
  <advance width="1630.0"/>
  <unicode hex="0398"/>
  <note>
Theta
</note>
  <outline>
    <contour>
      <point x="813.0" y="-20.0" type="curve" smooth="yes"/>
      <point x="1261.0" y="-20.0"/>
      <point x="1507.0" y="249.0"/>
      <point x="1507.0" y="733.0" type="curve" smooth="yes"/>
      <point x="1507.0" y="1218.0"/>
      <point x="1263.0" y="1485.0"/>
      <point x="815.0" y="1485.0" type="curve" smooth="yes"/>
      <point x="369.0" y="1485.0"/>
      <point x="119.0" y="1215.0"/>
      <point x="119.0" y="735.0" type="curve" smooth="yes"/>
      <point x="119.0" y="250.0"/>
      <point x="370.0" y="-20.0"/>
    </contour>
    <contour>
      <point x="813.0" y="231.0" type="curve" smooth="yes"/>
      <point x="560.0" y="231.0"/>
      <point x="427.0" y="400.0"/>
      <point x="427.0" y="733.0" type="curve" smooth="yes"/>
      <point x="427.0" y="1065.0"/>
      <point x="559.0" y="1238.0"/>
      <point x="815.0" y="1238.0" type="curve" smooth="yes"/>
      <point x="1071.0" y="1238.0"/>
      <point x="1200.0" y="1069.0"/>
      <point x="1200.0" y="733.0" type="curve" smooth="yes"/>
      <point x="1200.0" y="397.0"/>
      <point x="1071.0" y="231.0"/>
    </contour>
    <contour>
      <point x="570.0" y="625.0" type="line"/>
      <point x="1058.0" y="625.0" type="line"/>
      <point x="1058.0" y="863.0" type="line"/>
      <point x="570.0" y="863.0" type="line"/>
    </contour>
  </outline>
</glyph>
<glyph name="Xi" format="2">
	<unicode hex="039E"/>
	<advance width="1169"/>
	<outline>
		<contour>
			<point x="82" y="0" type="line"/>
			<point x="1095" y="0" type="line"/>
			<point x="1095" y="254" type="line"/>
			<point x="82" y="254" type="line"/>
		</contour>
		<contour>
			<point x="205" y="635" type="line"/>
			<point x="972" y="635" type="line"/>
			<point x="972" y="885" type="line"/>
			<point x="205" y="885" type="line"/>
		</contour>
		<contour>
			<point x="123" y="1212" type="line"/>
			<point x="1054" y="1212" type="line"/>
			<point x="1054" y="1462" type="line"/>
			<point x="123" y="1462" type="line"/>
		</contour>
	</outline>
	<note>
		Xi
	</note>
</glyph>
<glyph name="Pi" format="2">
  <advance width="1526.0"/>
  <unicode hex="03A0"/>
  <note>
Pi
</note>
  <outline>
    <contour>
      <point x="184.0" y="0.0" type="line"/>
      <point x="492.0" y="0.0" type="line"/>
      <point x="492.0" y="1207.0" type="line"/>
      <point x="1027.0" y="1207.0" type="line"/>
      <point x="1027.0" y="0.0" type="line"/>
      <point x="1337.0" y="0.0" type="line"/>
      <point x="1337.0" y="1462.0" type="line"/>
      <point x="184.0" y="1462.0" type="line"/>
    </contour>
  </outline>
</glyph>
<glyph name="Sigma" format="2">
  <advance width="1214.0"/>
  <unicode hex="03A3"/>
  <note>
Sigma
</note>
  <outline>
    <contour>
      <point x="78.0" y="0.0" type="line"/>
      <point x="1147.0" y="0.0" type="line"/>
      <point x="1147.0" y="254.0" type="line"/>
      <point x="647.0" y="254.0" type="line" smooth="yes"/>
      <point x="578.0" y="254.0"/>
      <point x="503.0" y="251.0"/>
      <point x="419.0" y="244.0" type="curve"/>
      <point x="889.0" y="769.0" type="line"/>
      <point x="439.0" y="1219.0" type="line"/>
      <point x="494.0" y="1214.0"/>
      <point x="567.0" y="1212.0"/>
      <point x="659.0" y="1212.0" type="curve" smooth="yes"/>
      <point x="1088.0" y="1212.0" type="line"/>
      <point x="1088.0" y="1462.0" type="line"/>
      <point x="90.0" y="1462.0" type="line"/>
      <point x="90.0" y="1229.0" type="line"/>
      <point x="549.0" y="766.0" type="line"/>
      <point x="78.0" y="240.0" type="line"/>
    </contour>
  </outline>
</glyph>
<glyph name="Upsilon" format="2">
  <advance width="1278.0"/>
  <unicode hex="03A5"/>
  <note>
Upsilon
</note>
  <anchor x="638.3" y="1462.0" name="top"/>
  <anchor x="20.0" y="1462.0" name="topleft"/>
  <outline>
    <contour>
      <point x="483.4" y="0.0" type="line"/>
      <point x="793.5" y="0.0" type="line"/>
      <point x="793.5" y="569.2" type="line"/>
      <point x="1276.3" y="1462.0" type="line"/>
      <point x="943.7" y="1462.0" type="line"/>
      <point x="638.9" y="842.6" type="line"/>
      <point x="336.1" y="1462.0" type="line"/>
      <point x="0.0" y="1462.0" type="line"/>
      <point x="483.4" y="558.4" type="line"/>
    </contour>
  </outline>
</glyph>
<glyph name="Phi" format="2">
  <advance width="1761.0"/>
  <unicode hex="03A6"/>
  <note>
Phi
</note>
  <outline>
    <contour>
      <point x="731.0" y="-20.0" type="line"/>
      <point x="1029.0" y="-20.0" type="line"/>
      <point x="1029.0" y="205.0" type="line"/>
      <point x="1040.0" y="205.0" type="line" smooth="yes"/>
      <point x="1174.0" y="205.0"/>
      <point x="1289.0" y="228.0"/>
      <point x="1382.0" y="273.0" type="curve" smooth="yes"/>
      <point x="1571.0" y="364.0"/>
      <point x="1668.0" y="536.0"/>
      <point x="1668.0" y="760.0" type="curve" smooth="yes"/>
      <point x="1668.0" y="883.0"/>
      <point x="1636.0" y="988.0"/>
      <point x="1574.0" y="1074.0" type="curve" smooth="yes"/>
      <point x="1474.0" y="1220.0"/>
      <point x="1294.0" y="1303.0"/>
      <point x="1062.0" y="1303.0" type="curve" smooth="yes"/>
      <point x="1029.0" y="1303.0" type="line"/>
      <point x="1029.0" y="1483.0" type="line"/>
      <point x="731.0" y="1483.0" type="line"/>
      <point x="731.0" y="1303.0" type="line"/>
      <point x="694.0" y="1303.0" type="line" smooth="yes"/>
      <point x="572.0" y="1303.0"/>
      <point x="466.0" y="1281.0"/>
      <point x="376.0" y="1238.0" type="curve" smooth="yes"/>
      <point x="195.0" y="1150.0"/>
      <point x="92.0" y="972.0"/>
      <point x="92.0" y="758.0" type="curve" smooth="yes"/>
      <point x="92.0" y="643.0"/>
      <point x="115.0" y="545.0"/>
      <point x="163.0" y="463.0" type="curve" smooth="yes"/>
      <point x="257.0" y="298.0"/>
      <point x="446.0" y="205.0"/>
      <point x="712.0" y="205.0" type="curve" smooth="yes"/>
      <point x="731.0" y="205.0" type="line"/>
    </contour>
    <contour>
      <point x="712.0" y="439.0" type="line" smooth="yes"/>
      <point x="504.0" y="439.0"/>
      <point x="394.0" y="543.0"/>
      <point x="394.0" y="760.0" type="curve" smooth="yes"/>
      <point x="394.0" y="955.0"/>
      <point x="506.0" y="1066.0"/>
      <point x="703.0" y="1066.0" type="curve" smooth="yes"/>
      <point x="731.0" y="1066.0" type="line"/>
      <point x="731.0" y="439.0" type="line"/>
    </contour>
    <contour>
      <point x="1029.0" y="439.0" type="line"/>
      <point x="1029.0" y="1066.0" type="line"/>
      <point x="1053.0" y="1066.0" type="line" smooth="yes"/>
      <point x="1253.0" y="1066.0"/>
      <point x="1366.0" y="954.0"/>
      <point x="1366.0" y="760.0" type="curve" smooth="yes"/>
      <point x="1366.0" y="548.0"/>
      <point x="1254.0" y="439.0"/>
      <point x="1041.0" y="439.0" type="curve" smooth="yes"/>
    </contour>
  </outline>
</glyph>
<glyph name="Psi" format="2">
  <advance width="1794.0"/>
  <unicode hex="03A8"/>
  <note>
Psi
</note>
  <outline>
    <contour>
      <point x="743.0" y="0.0" type="line"/>
      <point x="1040.0" y="0.0" type="line"/>
      <point x="1040.0" y="414.0" type="line"/>
      <point x="1075.0" y="414.0" type="line" smooth="yes"/>
      <point x="1486.0" y="414.0"/>
      <point x="1674.0" y="592.0"/>
      <point x="1674.0" y="983.0" type="curve" smooth="yes"/>
      <point x="1674.0" y="1462.0" type="line"/>
      <point x="1371.0" y="1462.0" type="line"/>
      <point x="1371.0" y="965.0" type="line" smooth="yes"/>
      <point x="1371.0" y="863.0"/>
      <point x="1341.0" y="787.0"/>
      <point x="1284.0" y="737.0" type="curve" smooth="yes"/>
      <point x="1232.0" y="692.0"/>
      <point x="1157.0" y="669.0"/>
      <point x="1061.0" y="669.0" type="curve" smooth="yes"/>
      <point x="1040.0" y="669.0" type="line"/>
      <point x="1040.0" y="1462.0" type="line"/>
      <point x="743.0" y="1462.0" type="line"/>
      <point x="743.0" y="669.0" type="line"/>
      <point x="724.0" y="669.0" type="line" smooth="yes"/>
      <point x="612.0" y="669.0"/>
      <point x="532.0" y="693.0"/>
      <point x="482.0" y="746.0" type="curve" smooth="yes"/>
      <point x="434.0" y="795.0"/>
      <point x="412.0" y="869.0"/>
      <point x="412.0" y="969.0" type="curve" smooth="yes"/>
      <point x="412.0" y="1462.0" type="line"/>
      <point x="109.0" y="1462.0" type="line"/>
      <point x="109.0" y="964.0" type="line" smooth="yes"/>
      <point x="109.0" y="581.0"/>
      <point x="292.0" y="414.0"/>
      <point x="709.0" y="414.0" type="curve" smooth="yes"/>
      <point x="743.0" y="414.0" type="line"/>
    </contour>
  </outline>
</glyph>
<glyph name="beta" format="2">
	<unicode hex="03B2"/>
	<advance width="1352"/>
	<outline>
		<contour>
			<point x="160" y="-492" type="line"/>
			<point x="463" y="-492" type="line"/>
			<point x="463" y="54" type="line"/>
			<point x="550" y="9"/>
			<point x="669" y="-18"/>
			<point x="795" y="-18" type="curve" smooth="yes"/>
			<point x="1090" y="-18"/>
			<point x="1279" y="156"/>
			<point x="1279" y="435" type="curve" smooth="yes"/>
			<point x="1279" y="664"/>
			<point x="1165" y="791"/>
			<point x="915" y="824" type="curve"/>
			<point x="915" y="831" type="line"/>
			<point x="1097" y="862"/>
			<point x="1198" y="980"/>
			<point x="1198" y="1174" type="curve" smooth="yes"/>
			<point x="1198" y="1420"/>
			<point x="1010" y="1567"/>
			<point x="697" y="1567" type="curve" smooth="yes"/>
			<point x="357" y="1567"/>
			<point x="160" y="1394"/>
			<point x="160" y="1095" type="curve" smooth="yes"/>
		</contour>
		<contour>
			<point x="708" y="221" type="curve" smooth="yes"/>
			<point x="629" y="221"/>
			<point x="535" y="246"/>
			<point x="463" y="289" type="curve"/>
			<point x="463" y="1072" type="line" smooth="yes"/>
			<point x="463" y="1248"/>
			<point x="536" y="1337"/>
			<point x="688" y="1337" type="curve" smooth="yes"/>
			<point x="815" y="1337"/>
			<point x="894" y="1263"/>
			<point x="894" y="1135" type="curve" smooth="yes"/>
			<point x="894" y="1000"/>
			<point x="824" y="920"/>
			<point x="694" y="920" type="curve" smooth="yes"/>
			<point x="636" y="920" type="line"/>
			<point x="636" y="690" type="line"/>
			<point x="711" y="690" type="line" smooth="yes"/>
			<point x="880" y="690"/>
			<point x="972" y="607"/>
			<point x="972" y="460" type="curve" smooth="yes"/>
			<point x="972" y="304"/>
			<point x="873" y="221"/>
		</contour>
	</outline>
	<note>
		beta
	</note>
</glyph>
<glyph name="epsilon" format="2">
  <advance width="1137.0"/>
  <unicode hex="03B5"/>
  <note>
epsilon
</note>
  <anchor x="543.0" y="1119.0" name="top"/>
  <outline>
    <contour>
      <point x="585.0" y="-20.0" type="curve" smooth="yes"/>
      <point x="748.0" y="-20.0"/>
      <point x="875.0" y="0.0"/>
      <point x="1003.0" y="58.0" type="curve"/>
      <point x="1003.0" y="296.0" type="line"/>
      <point x="870.0" y="234.0"/>
      <point x="756.0" y="210.0"/>
      <point x="628.0" y="210.0" type="curve" smooth="yes"/>
      <point x="469.0" y="210.0"/>
      <point x="384.0" y="258.0"/>
      <point x="384.0" y="345.0" type="curve" smooth="yes"/>
      <point x="384.0" y="411.0"/>
      <point x="419.0" y="447.0"/>
      <point x="494.0" y="467.0" type="curve" smooth="yes"/>
      <point x="533.0" y="477.0"/>
      <point x="586.0" y="482.0"/>
      <point x="651.0" y="482.0" type="curve" smooth="yes"/>
      <point x="797.0" y="482.0" type="line"/>
      <point x="797.0" y="686.0" type="line"/>
      <point x="676.0" y="686.0" type="line" smooth="yes"/>
      <point x="595.0" y="686.0"/>
      <point x="535.0" y="694.0"/>
      <point x="495.0" y="710.0" type="curve" smooth="yes"/>
      <point x="449.0" y="729.0"/>
      <point x="425.0" y="760.0"/>
      <point x="425.0" y="804.0" type="curve" smooth="yes"/>
      <point x="425.0" y="878.0"/>
      <point x="488.0" y="918.0"/>
      <point x="614.0" y="918.0" type="curve" smooth="yes"/>
      <point x="713.0" y="918.0"/>
      <point x="814.0" y="895.0"/>
      <point x="917.0" y="849.0" type="curve"/>
      <point x="1006.0" y="1059.0" type="line"/>
      <point x="855.0" y="1121.0"/>
      <point x="745.0" y="1139.0"/>
      <point x="603.0" y="1139.0" type="curve" smooth="yes"/>
      <point x="304.0" y="1139.0"/>
      <point x="136.0" y="1029.0"/>
      <point x="136.0" y="838.0" type="curve" smooth="yes"/>
      <point x="136.0" y="718.0"/>
      <point x="213.0" y="628.0"/>
      <point x="344.0" y="593.0" type="curve"/>
      <point x="344.0" y="583.0" type="line"/>
      <point x="177.0" y="556.0"/>
      <point x="78.0" y="453.0"/>
      <point x="78.0" y="311.0" type="curve" smooth="yes"/>
      <point x="78.0" y="89.0"/>
      <point x="246.0" y="-20.0"/>
    </contour>
  </outline>
</glyph>
<glyph name="theta" format="2">
  <advance width="1266.0"/>
  <unicode hex="03B8"/>
  <note>
theta
</note>
  <outline>
    <contour>
      <point x="628.0" y="-20.0" type="curve" smooth="yes"/>
      <point x="991.0" y="-20.0"/>
      <point x="1171.0" y="242.0"/>
      <point x="1171.0" y="781.0" type="curve" smooth="yes"/>
      <point x="1171.0" y="1302.0"/>
      <point x="986.0" y="1579.0"/>
      <point x="630.0" y="1579.0" type="curve" smooth="yes"/>
      <point x="271.0" y="1579.0"/>
      <point x="92.0" y="1318.0"/>
      <point x="92.0" y="780.0" type="curve" smooth="yes"/>
      <point x="92.0" y="255.0"/>
      <point x="278.0" y="-20.0"/>
    </contour>
    <contour>
      <point x="629.0" y="198.0" type="curve" smooth="yes"/>
      <point x="552.0" y="198.0"/>
      <point x="495.0" y="239.0"/>
      <point x="458.0" y="321.0" type="curve" smooth="yes"/>
      <point x="421.0" y="401.0"/>
      <point x="401.0" y="520.0"/>
      <point x="399.0" y="677.0" type="curve"/>
      <point x="863.0" y="677.0" type="line"/>
      <point x="860.0" y="512.0"/>
      <point x="838.0" y="390.0"/>
      <point x="797.0" y="311.0" type="curve" smooth="yes"/>
      <point x="759.0" y="236.0"/>
      <point x="703.0" y="198.0"/>
    </contour>
    <contour>
      <point x="402.0" y="894.0" type="line"/>
      <point x="407.0" y="1067.0"/>
      <point x="433.0" y="1193.0"/>
      <point x="481.0" y="1268.0" type="curve" smooth="yes"/>
      <point x="516.0" y="1330.0"/>
      <point x="566.0" y="1361.0"/>
      <point x="631.0" y="1361.0" type="curve" smooth="yes"/>
      <point x="695.0" y="1361.0"/>
      <point x="744.0" y="1331.0"/>
      <point x="780.0" y="1272.0" type="curve" smooth="yes"/>
      <point x="830.0" y="1198.0"/>
      <point x="857.0" y="1073.0"/>
      <point x="864.0" y="894.0" type="curve"/>
    </contour>
  </outline>
</glyph>
<glyph name="iota" format="2">
  <advance width="834.0"/>
  <unicode hex="03B9"/>
  <note>
iota
</note>
  <anchor x="350.0" y="1119.0" name="top"/>
  <outline>
    <contour>
      <point x="532.0" y="-20.0" type="curve" smooth="yes"/>
      <point x="628.0" y="-20.0"/>
      <point x="719.0" y="-2.0"/>
      <point x="790.0" y="30.0" type="curve"/>
      <point x="790.0" y="256.0" type="line"/>
      <point x="721.0" y="233.0"/>
      <point x="669.0" y="221.0"/>
      <point x="605.0" y="221.0" type="curve" smooth="yes"/>
      <point x="508.0" y="221.0"/>
      <point x="463.0" y="265.0"/>
      <point x="463.0" y="366.0" type="curve" smooth="yes"/>
      <point x="463.0" y="1119.0" type="line"/>
      <point x="160.0" y="1119.0" type="line"/>
      <point x="160.0" y="351.0" type="line" smooth="yes"/>
      <point x="160.0" y="104.0"/>
      <point x="275.0" y="-20.0"/>
    </contour>
  </outline>
</glyph>
<glyph name="lambda" format="2">
	<unicode hex="03BB"/>
	<advance width="1260"/>
	<outline>
		<contour>
			<point x="1086" y="-20" type="curve" smooth="yes"/>
			<point x="1137" y="-20"/>
			<point x="1233" y="-6"/>
			<point x="1261" y="9" type="curve"/>
			<point x="1261" y="229" type="line"/>
			<point x="1239" y="222"/>
			<point x="1216" y="219"/>
			<point x="1192" y="219" type="curve" smooth="yes"/>
			<point x="1163" y="219"/>
			<point x="1139" y="225"/>
			<point x="1123" y="237" type="curve" smooth="yes"/>
			<point x="1091" y="260"/>
			<point x="1065" y="308"/>
			<point x="1030" y="402" type="curve" smooth="yes"/>
			<point x="738" y="1225" type="line" smooth="yes"/>
			<point x="698" y="1334"/>
			<point x="656" y="1412"/>
			<point x="603" y="1464" type="curve" smooth="yes"/>
			<point x="532" y="1538"/>
			<point x="440" y="1569"/>
			<point x="307" y="1569" type="curve" smooth="yes"/>
			<point x="266" y="1569"/>
			<point x="190" y="1564"/>
			<point x="141" y="1552" type="curve"/>
			<point x="141" y="1315" type="line"/>
			<point x="184" y="1325"/>
			<point x="226" y="1330"/>
			<point x="266" y="1330" type="curve" smooth="yes"/>
			<point x="323" y="1330"/>
			<point x="365" y="1311"/>
			<point x="398" y="1274" type="curve" smooth="yes"/>
			<point x="425" y="1247"/>
			<point x="447" y="1204"/>
			<point x="466" y="1146" type="curve" smooth="yes"/>
			<point x="492" y="1068" type="line"/>
			<point x="8" y="0" type="line"/>
			<point x="324" y="0" type="line"/>
			<point x="556" y="562" type="line"/>
			<point x="578" y="616"/>
			<point x="598" y="681"/>
			<point x="613" y="756" type="curve"/>
			<point x="620" y="756" type="line"/>
			<point x="632" y="694"/>
			<point x="656" y="610"/>
			<point x="692" y="505" type="curve" smooth="yes"/>
			<point x="793" y="224" type="line" smooth="yes"/>
			<point x="859" y="49"/>
			<point x="950" y="-20"/>
		</contour>
	</outline>
	<note>
		lambda
	</note>
</glyph>
<glyph name="nu" format="2">
  <advance width="1219.0"/>
  <unicode hex="03BD"/>
  <note>
nu
</note>
  <outline>
    <contour>
      <point x="428.0" y="0.0" type="line"/>
      <point x="689.0" y="0.0" type="line"/>
      <point x="1003.0" y="333.0"/>
      <point x="1136.0" y="661.0"/>
      <point x="1136.0" y="1119.0" type="curve"/>
      <point x="833.0" y="1119.0" type="line"/>
      <point x="833.0" y="747.0"/>
      <point x="763.0" y="495.0"/>
      <point x="605.0" y="273.0" type="curve"/>
      <point x="596.0" y="273.0" type="line"/>
      <point x="586.0" y="318.0"/>
      <point x="573.0" y="366.0"/>
      <point x="557.0" y="414.0" type="curve" smooth="yes"/>
      <point x="318.0" y="1119.0" type="line"/>
      <point x="6.0" y="1119.0" type="line"/>
    </contour>
  </outline>
</glyph>
